<svg width="113" height="36" viewBox="0 0 113 36" fill="none" xmlns="http://www.w3.org/2000/svg">
<path fill-rule="evenodd" clip-rule="evenodd" d="M32.2 24.3C32.3 24.7 32.5 25.2 32.7 25.6C33.1 26.9 33.3 28.1 33 29.3C32.6 31.9 30.9 34.1 28.4 35.1C27.6 35.5 26.6 35.7 25.6 35.7C25.45 35.7 25.3 35.675 25.15 35.65C25 35.625 24.85 35.6 24.7 35.6C23.6 35.4 22.4 35.1 21.2 34.4C19.8 33.6 18.3 32.5 16.8 30.8C15.2 32.4 13.8 33.6 12.4 34.4C11.3 35.1 10.1 35.5 8.90003 35.6C8.60003 35.7 8.30003 35.7 8.00003 35.7C7.00003 35.7 6.00003 35.5 5.30003 35.3C2.80003 34.3 1.10003 32.1 0.700029 29.5C0.500029 28.2 0.600029 27 1.10003 25.7C1.20003 25.2 1.40003 24.8 1.60003 24.4C1.71836 24.1239 1.8367 23.8789 1.9489 23.6466C2.12114 23.29 2.27892 22.9634 2.40003 22.6V22.5C4.80003 17.3 7.40003 12 10.2 6.70002L10.3 6.50002C10.4307 6.17337 10.604 5.84672 10.7922 5.49219L10.7922 5.49218L10.7922 5.49217C10.892 5.30403 10.996 5.10804 11.1 4.90002C11.2121 4.73196 11.3241 4.55605 11.4384 4.37669C11.732 3.91572 12.0401 3.43196 12.4 3.00002C13.6 1.70002 15.1 0.900024 16.9 0.900024C18.7 0.900024 20.3 1.70002 21.4 3.10002C21.8161 3.51605 22.0879 3.98015 22.3488 4.42566L22.3488 4.42571C22.4641 4.6227 22.5774 4.81606 22.7 5.00002C22.9 5.50002 23.2 6.10002 23.5 6.60002L23.6 6.80002C26.4 12 29 17.3 31.4 22.5C31.6 23.1 31.9 23.7 32.2 24.2999L32.2 24.3L32.2 24.3L32.2 24.3ZM59.8 9.60002C59.8 10.9 58.8 11.9 57.5 11.9C56.2 11.9 55.2 10.9 55.2 9.60002C55.2 8.30002 56.2 7.30002 57.5 7.30002C58.8 7.40002 59.8 8.40002 59.8 9.60002ZM50.4 14.2V14.8C50.4 14.8 49.3 13.4 47 13.4C43.2 13.4 40.2 16.3 40.2 20.3C40.2 24.3 43.2 27.2 47 27.2C49.4 27.2 50.4 25.8 50.4 25.8V26.4C50.4 26.7 50.6 26.9 50.9 26.9H53.7V13.7H50.9C50.6 13.7 50.4 14 50.4 14.2ZM47.6 24C48.8 24 49.9 23.4 50.4 22.6V17.8C50 17.1 48.8 16.4 47.6 16.4C45.3 16.4 43.6 17.8 43.6 20.2C43.6 22.6 45.3 24 47.6 24ZM55.8 26.8H59.2V13.7H55.8V26.8ZM102.9 14.8C102.9 14.8 104 13.4 106.3 13.4C110.1 13.4 113 16.3 113 20.3C113 24.3 110 27.2 106.2 27.2C103.9 27.2 102.8 25.8 102.8 25.8V26.4C102.8 26.7 102.6 26.9 102.3 26.9H99.5V7.50002H102.9V14.8ZM105.7 24C104.4 24 103.4 23.3 102.9 22.6V17.9C103.4 17.2 104.6 16.5 105.7 16.5C108 16.5 109.7 17.9 109.7 20.3C109.7 22.7 108 24 105.7 24ZM97.7 26.8V19C97.7 16.9 97.3 15.6 96.1 14.7C95.1 13.8 93.9 13.4 92.4 13.4C91.1 13.4 89.8 13.8 88.8 14.8V14.2C88.8 13.9 88.6 13.7 88.3 13.7H85.6V26.8H89V17.7C89.6 16.9 90.7 16.4 91.7 16.4C93.6 16.4 94.3 17.2 94.3 19.4V26.8H97.7ZM77.4 13.4C75.1 13.4 74 14.8 74 14.8V7.50002H70.6V26.9H73.4C73.7 26.9 73.9 26.7 73.9 26.4V25.8C73.9 25.8 75 27.2 77.3 27.2C81.1 27.2 84.1 24.3 84.1 20.3C84.3 16.3 81.3 13.4 77.4 13.4ZM74.1 22.6C74.6 23.3 75.6 24 76.9 24C79.1 24 80.9 22.7 80.9 20.3C80.9 17.9 79.2 16.5 76.9 16.5C75.8 16.5 74.6 17.2 74.1 17.9V22.6ZM67.7 13.4C68.7 13.4 69.2 13.6 69.2 13.6V16.7C69.2 16.7 66.4 15.8 64.6 17.7V26.9H61.2V13.7H64C64.3 13.7 64.5 13.9 64.5 14.2V14.8C65.3 14 66.7 13.4 67.7 13.4ZM16.8 27.4C14.9 25 13.7 22.8 13.2 20.9C13 20.1 13 19.4 13.1 18.8C13.2 18.2 13.4 17.8 13.7 17.3C14.4 16.4 15.5 15.8 16.8 15.8C18.1 15.8 19.3 16.4 19.9 17.3C20.2 17.7 20.4 18.2 20.5 18.8C20.6 19.4 20.6 20.2 20.4 20.9C19.9 22.8 18.7 25 16.8 27.4ZM27.6 33.2C29.3 32.5 30.6 30.9 30.8 29.1C31 28.2 30.9 27.3 30.5 26.4C30.4 26.1 30.2 25.7 30 25.3L30 25.3C29.8234 25.0057 29.6815 24.6766 29.5333 24.3334C29.4299 24.0936 29.3234 23.8468 29.2 23.6C26.8 18.4 24.2 13.1 21.5 7.90002L21.4 7.70002C21.2 7.20002 20.9 6.60002 20.6 6.10002L20.6 6.1C20.3 5.60001 20 5.10001 19.6 4.60002C18.9 3.80002 17.9 3.30002 16.8 3.30002C15.7 3.30002 14.7 3.80002 14 4.60002C13.6 5.00002 13.3 5.50002 13 6.10002C12.8 6.60002 12.5 7.20002 12.2 7.70002L12.1 7.90002C9.40003 13 6.80003 18.3 4.40003 23.5V23.6C4.3234 23.7533 4.24677 23.9 4.1718 24.0436C3.95329 24.462 3.74894 24.8533 3.60003 25.3C3.40003 25.7 3.20003 26.1 3.10003 26.4C2.80003 27.4 2.70003 28.2 2.80003 29.1C3.00003 30.9 4.30003 32.5 6.00003 33.2C6.80003 33.5 7.70003 33.6 8.70003 33.5C9.60003 33.4 10.5 33.1 11.4 32.6C12.7 31.9 14 30.8 15.4 29.2C13.1 26.4 11.6 23.8 11.1 21.5C10.8 20.4 10.8 19.4 10.9 18.5C11 17.6 11.3 16.8 11.8 16.1C12.9 14.5 14.8 13.6 16.8 13.6C18.9 13.6 20.7 14.5 21.8 16.1C22.2 16.8 22.6 17.6 22.7 18.5C22.8 19.4 22.7 20.4 22.5 21.5C21.9 23.8 20.5 26.4 18.2 29.2C19.7 30.8 20.9 31.9 22.2 32.6C23.1 33.1 24 33.4 24.9 33.5C25.8 33.7 26.8 33.5 27.6 33.2Z" fill="#FF5A5F"/>
</svg>
