<svg width="24" height="24" viewBox="0 0 24 24" fill="none" xmlns="http://www.w3.org/2000/svg">
<path fill-rule="evenodd" clip-rule="evenodd" d="M5.25 7.5H16.5V18.75C16.5 19.9875 15.4875 21 14.25 21H3V9.75C3 8.5125 4.0125 7.5 5.25 7.5Z" fill="#FFEDB6"/>
<path fill-rule="evenodd" clip-rule="evenodd" d="M21 2C21.5128 2 21.9355 2.38604 21.9933 2.88338L22 3V15.1875C22 17.0173 20.5567 18.5216 18.7506 18.6199L18.5625 18.625H17.5V18.75C17.5 20.4781 16.1388 21.8989 14.4339 21.9948L14.25 22H3C2.48716 22 2.06449 21.614 2.00673 21.1166L2 21V9.75C2 8.02193 3.36125 6.6011 5.06607 6.50516L5.25 6.5H5.375V5.4375C5.375 3.60769 6.81833 2.10336 8.62441 2.0051L8.8125 2H21ZM15.5 8.5H5.25C4.60761 8.5 4.07107 8.99639 4.00651 9.62304L4 9.75V20H14.25C14.8496 20 15.3569 19.5676 15.4744 19.0004L15.4935 18.877L15.5 18.75V8.5ZM8.8125 4H20V15.1875L19.9934 15.3251C19.9231 16.05 19.3045 16.625 18.5625 16.625H17.5V7.5L17.4933 7.38338C17.4355 6.88604 17.0128 6.5 16.5 6.5H7.375V5.4375L7.38163 5.29993C7.45185 4.57503 8.07053 4 8.8125 4Z" fill="#3B3A40"/>
</svg>
