<svg width="24" height="24" viewBox="0 0 24 24" fill="none" xmlns="http://www.w3.org/2000/svg">
<path fill-rule="evenodd" clip-rule="evenodd" d="M21 15.3158C18.9158 17.7789 16.9263 21 11.9526 21C6.97895 21 3 16.9737 3 12.0474V12" fill="#D1E8FF"/>
<path d="M21 15.3158C18.9158 17.7789 16.9263 21 11.9526 21C6.97895 21 3 16.9737 3 12.0474V12" stroke="#3B3A40" stroke-width="2" stroke-linejoin="round"/>
<path fill-rule="evenodd" clip-rule="evenodd" d="M21.9962 11.7203C21.8483 6.33154 17.4411 2 12.0474 2C8.52676 2 6.373 3.18858 4.00035 5.88136L4 3H2V8.625L2.00673 8.74162C2.06449 9.23896 2.48716 9.625 3 9.625H8.625V7.625L5.13913 7.62419C7.32065 5.02493 9.03877 4 12.0474 4C16.4279 4 20 7.58513 20 12H22L21.9962 11.7203ZM4 12.0474V12H2L2.00381 12.3258C2.15089 17.6914 6.53558 22 11.9526 22C15.442 22 17.6198 20.7721 20.0004 18.0805L20 21H22V15.375L21.9933 15.2584C21.9355 14.761 21.5128 14.375 21 14.375H15.375V16.375H18.83L18.8025 16.4091C16.6392 18.9548 14.9042 20 11.9526 20C7.54839 20 4 16.4386 4 12.0474Z" fill="#3B3A40"/>
</svg>
