<svg width="113" height="24" viewBox="0 0 113 24" fill="none" xmlns="http://www.w3.org/2000/svg">
<path fill-rule="evenodd" clip-rule="evenodd" d="M13.9684 11.3473L13.9203 11.4485C12.9539 13.4811 11.1767 14.6471 9.0444 14.6471C5.95264 14.6471 3.53434 12.2087 3.53434 9.09652C3.53434 5.90496 5.93602 3.49885 9.12136 3.49885C11.1854 3.49885 12.7536 4.46321 13.783 6.36663L13.8381 6.46787L16.9535 4.48067L16.901 4.39339C15.283 1.64343 12.374 0.00183105 9.12136 0.00183105C3.92353 0.00183105 0.00439453 3.91252 0.00439453 9.09827C0.00439453 14.3695 3.8387 18.1956 9.12136 18.1956C12.5262 18.1956 15.534 16.3096 17.1678 13.1512L17.2168 13.0561L13.9684 11.3473ZM63.5844 0.892013H60.0842V4.0635H63.5844V0.892013ZM64.8578 14.7212V17.8316L64.8604 17.8299V17.8316H76.4053V14.7466H69.558L64.8604 17.8299L64.8578 14.7212ZM60.0369 5.12299H63.5371V17.87H60.0369V5.12299ZM24.3363 4.8804C20.685 4.8711 17.7162 7.81468 17.7022 11.4581C17.6929 13.2145 18.3862 14.902 19.6285 16.1464C20.8708 17.3907 22.5593 18.0891 24.3195 18.0865C27.9708 18.0865 30.9321 15.1353 30.9368 11.4918C30.9414 7.84837 27.9877 4.8897 24.3363 4.8804ZM27.5381 11.4581C27.5381 9.64808 26.1072 8.14176 24.3195 8.14176C22.5055 8.14176 21.1254 9.64634 21.1254 11.4581C21.1254 13.2699 22.5055 14.7745 24.3195 14.7745C26.1072 14.7719 27.5389 13.2682 27.5389 11.4581H27.5381ZM50.208 5.08459H46.7323L46.7349 17.8238H50.2334V10.8638C50.2334 8.72649 51.3319 7.80925 52.6605 7.80925C54.2181 7.80925 55.0105 8.80678 55.0105 10.5147V17.8316H58.5623V10.0556C58.5623 6.76721 56.7484 4.82976 53.7327 4.82976C52.2765 4.82976 51.0249 5.4651 50.208 6.51238V5.08459ZM76.6047 11.4581C76.6047 6.94525 79.9283 4.82539 82.8145 4.82539C84.4762 4.82539 85.7785 5.4363 86.6208 6.32998V5.08459H90.1192V17.8316H86.6208V16.4039C85.7785 17.3979 84.4238 18.0865 82.7637 18.0865C80.0551 18.0865 76.6047 15.9483 76.6047 11.4581ZM83.4512 8.01608C85.3421 8.01608 86.7214 9.54598 86.7214 11.4328H86.7231C86.7231 13.3188 85.3439 14.874 83.4512 14.874C81.5096 14.874 80.028 13.3964 80.028 11.4328C80.028 9.46918 81.5096 8.01608 83.4512 8.01608ZM91.5344 5.08459H95.0092V6.51238C95.827 5.4651 97.0785 4.82976 98.5348 4.82976C101.55 4.82976 103.364 6.76721 103.364 10.0556V17.8316H99.8117V10.5147C99.8117 8.80678 99.0246 7.80925 97.4616 7.80925C96.1331 7.80925 95.0346 8.72649 95.0346 10.8638V17.8238H91.5361L91.5344 5.08459ZM38.0282 4.82539C35.142 4.82539 31.8184 6.94525 31.8184 11.4581C31.8184 15.9483 35.267 18.0865 37.9705 18.0865C39.6305 18.0865 40.9844 17.3979 41.8275 16.4039V17.6047C41.8275 19.262 40.6275 20.7404 38.7366 20.7404C37.0224 20.7404 35.8495 19.8991 35.1857 18.5735L32.0939 20.3067C33.1207 22.2948 35.4962 23.9783 38.741 23.9783C43.059 23.9783 45.3329 21.0721 45.3329 17.4773V5.08459H41.8345V6.45652C40.9914 5.51398 39.6899 4.82539 38.0282 4.82539ZM41.9351 11.4328C41.9351 9.54598 40.5558 8.01608 38.6649 8.01608C36.7233 8.01608 35.2417 9.46918 35.2417 11.4328C35.2417 13.3964 36.7233 14.874 38.6649 14.874C40.5558 14.874 41.9351 13.3188 41.9351 11.4328ZM111.984 5.08459V8.2203H109.579V12.2741C109.579 14.2622 109.835 14.5685 111.981 14.5685V17.8316H111.47C107.408 17.8316 106.079 16.4554 106.079 12.2994V8.2203H103.91V5.08459H106.084V0.879795H109.582V5.08459H111.984ZM112.726 2.40096C112.559 2.56905 112.331 2.66358 112.094 2.66358C111.856 2.66358 111.629 2.56905 111.462 2.40096C111.291 2.23493 111.196 2.00614 111.199 1.76823C111.2 1.36502 111.472 1.0126 111.863 0.908948C112.253 0.805292 112.665 0.976225 112.866 1.32574C113.068 1.67525 113.009 2.11622 112.723 2.40096H112.726ZM111.327 1.76998C111.323 1.56597 111.404 1.36955 111.551 1.22714H111.549C111.768 1.00531 112.1 0.938201 112.388 1.05748C112.677 1.17676 112.864 1.45859 112.861 1.76998C112.864 1.97499 112.783 2.17247 112.637 2.3163C112.493 2.46106 112.297 2.54248 112.093 2.54248C111.889 2.54248 111.693 2.46106 111.549 2.3163C111.404 2.17183 111.324 1.97462 111.327 1.76998ZM112.076 1.27689C112.166 1.27223 112.257 1.28406 112.343 1.31179C112.443 1.35159 112.505 1.4525 112.495 1.55965C112.501 1.6366 112.464 1.71048 112.4 1.75339C112.356 1.77846 112.308 1.79449 112.258 1.80052C112.325 1.80722 112.387 1.84214 112.426 1.89652C112.459 1.94006 112.478 1.99285 112.48 2.0475V2.11994V2.19238C112.48 2.20954 112.482 2.22658 112.487 2.24299L112.494 2.25521H112.332C112.332 2.25404 112.331 2.25287 112.331 2.25169C112.331 2.24967 112.331 2.24763 112.332 2.24561V2.23514V2.20372V2.12605C112.344 2.04008 112.308 1.9544 112.239 1.90176C112.178 1.87627 112.112 1.8655 112.047 1.87034H111.91V2.25521H111.735V1.27689H112.076ZM112.053 1.3947C112.124 1.38965 112.196 1.40193 112.262 1.43049C112.31 1.46812 112.335 1.52824 112.328 1.58895C112.32 1.64966 112.282 1.70211 112.226 1.72721C112.173 1.74427 112.117 1.75166 112.062 1.74903H111.905V1.3947H112.053Z" fill="#64626A"/>
</svg>
