<svg width="750" height="408" viewBox="0 0 750 408" fill="none" xmlns="http://www.w3.org/2000/svg">
<g clip-path="url(#clip0)">
<path d="M0 16C0 7.16344 7.16344 0 16 0H734C742.837 0 750 7.16344 750 16V408H0V16Z" fill="url(#paint0_linear)"/>
<path d="M750 412H754V408V16C754 4.9543 745.046 -4 734 -4H16C4.95431 -4 -4 4.9543 -4 16V408V412H0H750Z" stroke="white" stroke-opacity="0.48" stroke-width="8"/>
<g clip-path="url(#clip1)">
<path d="M624.46 53V44.72H623.14V53H624.46ZM635.309 48.02C635.165 47.144 634.493 46.46 633.317 46.46C632.753 46.46 632.309 46.568 631.961 46.832L631.373 47.672C631.133 46.964 630.497 46.46 629.489 46.46C628.913 46.46 628.469 46.568 628.133 46.832L627.701 47.576V46.628H626.381V53H627.701V49.796C627.701 48.068 628.205 47.432 628.985 47.432C629.669 47.432 630.077 47.792 630.173 48.476C630.209 48.8 630.221 49.148 630.221 49.628V53H631.529V49.796C631.529 48.068 632.045 47.432 632.813 47.432C633.497 47.432 633.917 47.792 634.001 48.476C634.037 48.8 634.049 49.148 634.049 49.628V53H635.369V49.148C635.369 48.632 635.357 48.344 635.309 48.02ZM640.668 46.46C640.02 46.46 639.36 46.64 639 46.94L638.52 47.624V46.628H637.2V55.352H638.52V52.136L638.94 52.772C639.264 53.024 639.924 53.168 640.452 53.168C642.096 53.168 643.536 52.04 643.536 49.7C643.536 47.84 642.492 46.46 640.668 46.46ZM640.296 52.208C639.456 52.208 638.52 51.632 638.52 50.072V49.748C638.52 48.044 639.372 47.42 640.356 47.42C641.508 47.42 642.144 48.44 642.144 49.82C642.144 51.404 641.352 52.208 640.296 52.208ZM647.781 46.472C647.457 46.472 647.085 46.604 646.797 46.832L646.257 47.708V46.628H644.937V53H646.257V49.688C646.257 48.116 647.013 47.492 648.225 47.576V46.544C648.093 46.496 647.961 46.472 647.781 46.472ZM654.771 49.652C654.771 47.852 653.775 46.46 651.927 46.46C650.091 46.46 648.807 47.816 648.807 49.832C648.807 52.088 650.091 53.168 651.795 53.168C653.187 53.168 654.399 52.448 654.675 50.936H653.343C653.211 51.74 652.611 52.208 651.843 52.208C650.979 52.208 650.283 51.704 650.175 50.18H654.747C654.771 49.952 654.771 49.772 654.771 49.652ZM651.879 47.42C652.803 47.42 653.319 48.08 653.415 49.256H650.187C650.331 48.032 650.979 47.42 651.879 47.42ZM658.302 46.46C656.886 46.46 655.95 47.18 655.95 48.368C655.95 49.484 656.814 49.976 657.978 50.276C659.058 50.564 659.49 50.864 659.49 51.416C659.49 51.968 658.998 52.232 658.386 52.232C657.726 52.232 657.186 51.908 657.03 51.092H655.698C655.878 52.532 656.922 53.168 658.338 53.168C659.73 53.168 660.822 52.556 660.822 51.32C660.822 50.192 660.09 49.64 658.698 49.28C657.75 49.028 657.282 48.788 657.282 48.212C657.282 47.732 657.582 47.384 658.206 47.384C658.854 47.384 659.25 47.78 659.382 48.452H660.726C660.582 47.288 659.766 46.46 658.302 46.46ZM664.234 46.46C662.818 46.46 661.882 47.18 661.882 48.368C661.882 49.484 662.746 49.976 663.91 50.276C664.99 50.564 665.422 50.864 665.422 51.416C665.422 51.968 664.93 52.232 664.318 52.232C663.658 52.232 663.118 51.908 662.962 51.092H661.63C661.81 52.532 662.854 53.168 664.27 53.168C665.662 53.168 666.754 52.556 666.754 51.32C666.754 50.192 666.022 49.64 664.63 49.28C663.682 49.028 663.214 48.788 663.214 48.212C663.214 47.732 663.514 47.384 664.138 47.384C664.786 47.384 665.182 47.78 665.314 48.452H666.658C666.514 47.288 665.698 46.46 664.234 46.46ZM668.774 44.408C668.33 44.408 668.006 44.732 668.006 45.164C668.006 45.608 668.33 45.932 668.774 45.932C669.218 45.932 669.554 45.608 669.554 45.164C669.554 44.732 669.218 44.408 668.774 44.408ZM669.434 53V46.628H668.114V53H669.434ZM674.099 46.46C671.951 46.46 670.871 47.948 670.871 49.808C670.871 51.668 671.951 53.168 674.099 53.168C676.235 53.168 677.327 51.668 677.327 49.808C677.327 47.948 676.235 46.46 674.099 46.46ZM674.099 52.208C672.935 52.208 672.263 51.248 672.263 49.808C672.263 48.368 672.935 47.42 674.099 47.42C675.251 47.42 675.923 48.368 675.923 49.808C675.923 51.248 675.251 52.208 674.099 52.208ZM684.34 48.284C684.22 47.168 683.44 46.46 682.072 46.46C681.436 46.46 680.968 46.568 680.464 46.952L680.032 47.684V46.628H678.712V53H680.032V50.144C680.032 48.152 680.776 47.432 681.688 47.432C682.588 47.432 682.972 47.936 683.032 48.656C683.056 48.98 683.056 49.256 683.056 49.556V53H684.376V49.412C684.376 48.896 684.364 48.608 684.34 48.284ZM688.267 46.46C686.851 46.46 685.915 47.18 685.915 48.368C685.915 49.484 686.779 49.976 687.943 50.276C689.023 50.564 689.455 50.864 689.455 51.416C689.455 51.968 688.963 52.232 688.351 52.232C687.691 52.232 687.151 51.908 686.995 51.092H685.663C685.843 52.532 686.887 53.168 688.303 53.168C689.695 53.168 690.787 52.556 690.787 51.32C690.787 50.192 690.055 49.64 688.663 49.28C687.715 49.028 687.247 48.788 687.247 48.212C687.247 47.732 687.547 47.384 688.171 47.384C688.819 47.384 689.215 47.78 689.347 48.452H690.691C690.547 47.288 689.731 46.46 688.267 46.46Z" fill="#3B3A40"/>
<path d="M708.833 47.5L713 51.6667L717.167 47.5" stroke="#8E8C95" stroke-width="1.2" stroke-linejoin="round"/>
<path fill-rule="evenodd" clip-rule="evenodd" d="M614 54C616.209 54 618 52.2091 618 50C618 47.7909 616.209 46 614 46C611.791 46 610 47.7909 610 50C610 52.2091 611.791 54 614 54Z" fill="#1E5579"/>
<rect x="602" y="34" width="124" height="32" rx="4" stroke="#D1D0D6"/>
</g>
<path d="M48.8437 401.144C48.0997 401.144 47.4557 400.964 46.9117 400.604C46.3757 400.236 45.9637 399.728 45.6757 399.08C45.3877 398.424 45.2437 397.664 45.2437 396.8C45.2437 395.936 45.3877 395.18 45.6757 394.532C45.9637 393.876 46.3757 393.368 46.9117 393.008C47.4557 392.64 48.0997 392.456 48.8437 392.456C49.5877 392.456 50.2277 392.64 50.7637 393.008C51.2997 393.368 51.7117 393.876 51.9997 394.532C52.2877 395.18 52.4317 395.936 52.4317 396.8C52.4317 397.664 52.2877 398.424 51.9997 399.08C51.7117 399.728 51.2997 400.236 50.7637 400.604C50.2277 400.964 49.5877 401.144 48.8437 401.144ZM48.8437 400.256C49.3317 400.256 49.7677 400.12 50.1517 399.848C50.5437 399.568 50.8477 399.172 51.0637 398.66C51.2877 398.14 51.3997 397.52 51.3997 396.8C51.3997 396.08 51.2877 395.464 51.0637 394.952C50.8477 394.44 50.5437 394.048 50.1517 393.776C49.7677 393.496 49.3317 393.356 48.8437 393.356C48.3477 393.356 47.9077 393.496 47.5237 393.776C47.1397 394.048 46.8357 394.44 46.6117 394.952C46.3877 395.464 46.2757 396.08 46.2757 396.8C46.2757 397.52 46.3877 398.14 46.6117 398.66C46.8357 399.172 47.1397 399.568 47.5237 399.848C47.9077 400.12 48.3477 400.256 48.8437 400.256Z" fill="#8E8F98"/>
<path d="M69 397.5H714" stroke="#DFE0E3" stroke-dasharray="4 3"/>
<path d="M31.2208 344V343.292C31.7888 342.844 32.3248 342.392 32.8288 341.936C33.3408 341.472 33.7928 341.016 34.1848 340.568C34.5848 340.12 34.8968 339.68 35.1208 339.248C35.3528 338.816 35.4688 338.4 35.4688 338C35.4688 337.704 35.4168 337.428 35.3128 337.172C35.2168 336.916 35.0568 336.712 34.8328 336.56C34.6088 336.4 34.3048 336.32 33.9208 336.32C33.5528 336.32 33.2448 336.404 32.9968 336.572C32.7488 336.732 32.5608 336.948 32.4328 337.22C32.3128 337.492 32.2528 337.784 32.2528 338.096H31.2808C31.2808 337.544 31.3968 337.072 31.6288 336.68C31.8608 336.28 32.1768 335.976 32.5768 335.768C32.9768 335.56 33.4288 335.456 33.9328 335.456C34.6768 335.456 35.2848 335.668 35.7568 336.092C36.2368 336.508 36.4768 337.132 36.4768 337.964C36.4768 338.46 36.3528 338.952 36.1048 339.44C35.8568 339.92 35.5408 340.388 35.1568 340.844C34.7728 341.292 34.3608 341.712 33.9208 342.104C33.4888 342.496 33.0848 342.848 32.7088 343.16H36.7648V344H31.2208ZM41.076 344.144C40.5 344.144 40 344.04 39.576 343.832C39.152 343.624 38.812 343.34 38.556 342.98C38.308 342.612 38.156 342.196 38.1 341.732H39.084C39.18 342.196 39.404 342.572 39.756 342.86C40.108 343.14 40.552 343.28 41.088 343.28C41.488 343.28 41.832 343.188 42.12 343.004C42.408 342.812 42.628 342.556 42.78 342.236C42.94 341.916 43.02 341.56 43.02 341.168C43.02 340.544 42.844 340.04 42.492 339.656C42.14 339.272 41.684 339.08 41.124 339.08C40.66 339.08 40.264 339.184 39.936 339.392C39.608 339.6 39.368 339.872 39.216 340.208H38.256L38.976 335.6H43.38V336.476H39.756L39.264 339.032C39.456 338.8 39.72 338.608 40.056 338.456C40.4 338.304 40.792 338.228 41.232 338.228C41.784 338.228 42.264 338.356 42.672 338.612C43.088 338.868 43.412 339.216 43.644 339.656C43.876 340.096 43.992 340.596 43.992 341.156C43.992 341.692 43.876 342.188 43.644 342.644C43.42 343.1 43.088 343.464 42.648 343.736C42.216 344.008 41.692 344.144 41.076 344.144ZM48.8437 344.144C48.0997 344.144 47.4557 343.964 46.9117 343.604C46.3757 343.236 45.9637 342.728 45.6757 342.08C45.3877 341.424 45.2437 340.664 45.2437 339.8C45.2437 338.936 45.3877 338.18 45.6757 337.532C45.9637 336.876 46.3757 336.368 46.9117 336.008C47.4557 335.64 48.0997 335.456 48.8437 335.456C49.5877 335.456 50.2277 335.64 50.7637 336.008C51.2997 336.368 51.7117 336.876 51.9997 337.532C52.2877 338.18 52.4317 338.936 52.4317 339.8C52.4317 340.664 52.2877 341.424 51.9997 342.08C51.7117 342.728 51.2997 343.236 50.7637 343.604C50.2277 343.964 49.5877 344.144 48.8437 344.144ZM48.8437 343.256C49.3317 343.256 49.7677 343.12 50.1517 342.848C50.5437 342.568 50.8477 342.172 51.0637 341.66C51.2877 341.14 51.3997 340.52 51.3997 339.8C51.3997 339.08 51.2877 338.464 51.0637 337.952C50.8477 337.44 50.5437 337.048 50.1517 336.776C49.7677 336.496 49.3317 336.356 48.8437 336.356C48.3477 336.356 47.9077 336.496 47.5237 336.776C47.1397 337.048 46.8357 337.44 46.6117 337.952C46.3877 338.464 46.2757 339.08 46.2757 339.8C46.2757 340.52 46.3877 341.14 46.6117 341.66C46.8357 342.172 47.1397 342.568 47.5237 342.848C47.9077 343.12 48.3477 343.256 48.8437 343.256Z" fill="#8E8F98"/>
<path d="M69 340.5H714" stroke="#DFE0E3" stroke-dasharray="4 3"/>
<path d="M31.7557 287.144C31.1797 287.144 30.6797 287.04 30.2557 286.832C29.8317 286.624 29.4917 286.34 29.2357 285.98C28.9877 285.612 28.8357 285.196 28.7797 284.732H29.7637C29.8597 285.196 30.0837 285.572 30.4357 285.86C30.7877 286.14 31.2317 286.28 31.7677 286.28C32.1677 286.28 32.5117 286.188 32.7997 286.004C33.0877 285.812 33.3077 285.556 33.4597 285.236C33.6197 284.916 33.6997 284.56 33.6997 284.168C33.6997 283.544 33.5237 283.04 33.1717 282.656C32.8197 282.272 32.3637 282.08 31.8037 282.08C31.3397 282.08 30.9437 282.184 30.6157 282.392C30.2877 282.6 30.0477 282.872 29.8957 283.208H28.9357L29.6557 278.6H34.0597V279.476H30.4357L29.9437 282.032C30.1357 281.8 30.3997 281.608 30.7357 281.456C31.0797 281.304 31.4717 281.228 31.9117 281.228C32.4637 281.228 32.9437 281.356 33.3517 281.612C33.7677 281.868 34.0917 282.216 34.3237 282.656C34.5557 283.096 34.6717 283.596 34.6717 284.156C34.6717 284.692 34.5557 285.188 34.3237 285.644C34.0997 286.1 33.7677 286.464 33.3277 286.736C32.8957 287.008 32.3717 287.144 31.7557 287.144ZM39.5234 287.144C38.7794 287.144 38.1354 286.964 37.5914 286.604C37.0554 286.236 36.6434 285.728 36.3554 285.08C36.0674 284.424 35.9234 283.664 35.9234 282.8C35.9234 281.936 36.0674 281.18 36.3554 280.532C36.6434 279.876 37.0554 279.368 37.5914 279.008C38.1354 278.64 38.7794 278.456 39.5234 278.456C40.2674 278.456 40.9074 278.64 41.4434 279.008C41.9794 279.368 42.3914 279.876 42.6794 280.532C42.9674 281.18 43.1114 281.936 43.1114 282.8C43.1114 283.664 42.9674 284.424 42.6794 285.08C42.3914 285.728 41.9794 286.236 41.4434 286.604C40.9074 286.964 40.2674 287.144 39.5234 287.144ZM39.5234 286.256C40.0114 286.256 40.4474 286.12 40.8314 285.848C41.2234 285.568 41.5274 285.172 41.7434 284.66C41.9674 284.14 42.0794 283.52 42.0794 282.8C42.0794 282.08 41.9674 281.464 41.7434 280.952C41.5274 280.44 41.2234 280.048 40.8314 279.776C40.4474 279.496 40.0114 279.356 39.5234 279.356C39.0274 279.356 38.5874 279.496 38.2034 279.776C37.8194 280.048 37.5154 280.44 37.2914 280.952C37.0674 281.464 36.9554 282.08 36.9554 282.8C36.9554 283.52 37.0674 284.14 37.2914 284.66C37.5154 285.172 37.8194 285.568 38.2034 285.848C38.5874 286.12 39.0274 286.256 39.5234 286.256ZM47.8437 287.144C47.0997 287.144 46.4557 286.964 45.9117 286.604C45.3757 286.236 44.9637 285.728 44.6757 285.08C44.3877 284.424 44.2437 283.664 44.2437 282.8C44.2437 281.936 44.3877 281.18 44.6757 280.532C44.9637 279.876 45.3757 279.368 45.9117 279.008C46.4557 278.64 47.0997 278.456 47.8437 278.456C48.5877 278.456 49.2277 278.64 49.7637 279.008C50.2997 279.368 50.7117 279.876 50.9997 280.532C51.2877 281.18 51.4317 281.936 51.4317 282.8C51.4317 283.664 51.2877 284.424 50.9997 285.08C50.7117 285.728 50.2997 286.236 49.7637 286.604C49.2277 286.964 48.5877 287.144 47.8437 287.144ZM47.8437 286.256C48.3317 286.256 48.7677 286.12 49.1517 285.848C49.5437 285.568 49.8477 285.172 50.0637 284.66C50.2877 284.14 50.3997 283.52 50.3997 282.8C50.3997 282.08 50.2877 281.464 50.0637 280.952C49.8477 280.44 49.5437 280.048 49.1517 279.776C48.7677 279.496 48.3317 279.356 47.8437 279.356C47.3477 279.356 46.9077 279.496 46.5237 279.776C46.1397 280.048 45.8357 280.44 45.6117 280.952C45.3877 281.464 45.2757 282.08 45.2757 282.8C45.2757 283.52 45.3877 284.14 45.6117 284.66C45.8357 285.172 46.1397 285.568 46.5237 285.848C46.9077 286.12 47.3477 286.256 47.8437 286.256Z" fill="#8E8F98"/>
<path d="M69 283.5H714" stroke="#DFE0E3" stroke-dasharray="4 3"/>
<path d="M32.8692 230L36.2052 222.464H31.5972V221.6H37.2372V222.356L33.9372 230H32.8692ZM41.076 230.144C40.5 230.144 40 230.04 39.576 229.832C39.152 229.624 38.812 229.34 38.556 228.98C38.308 228.612 38.156 228.196 38.1 227.732H39.084C39.18 228.196 39.404 228.572 39.756 228.86C40.108 229.14 40.552 229.28 41.088 229.28C41.488 229.28 41.832 229.188 42.12 229.004C42.408 228.812 42.628 228.556 42.78 228.236C42.94 227.916 43.02 227.56 43.02 227.168C43.02 226.544 42.844 226.04 42.492 225.656C42.14 225.272 41.684 225.08 41.124 225.08C40.66 225.08 40.264 225.184 39.936 225.392C39.608 225.6 39.368 225.872 39.216 226.208H38.256L38.976 221.6H43.38V222.476H39.756L39.264 225.032C39.456 224.8 39.72 224.608 40.056 224.456C40.4 224.304 40.792 224.228 41.232 224.228C41.784 224.228 42.264 224.356 42.672 224.612C43.088 224.868 43.412 225.216 43.644 225.656C43.876 226.096 43.992 226.596 43.992 227.156C43.992 227.692 43.876 228.188 43.644 228.644C43.42 229.1 43.088 229.464 42.648 229.736C42.216 230.008 41.692 230.144 41.076 230.144ZM48.8437 230.144C48.0997 230.144 47.4557 229.964 46.9117 229.604C46.3757 229.236 45.9637 228.728 45.6757 228.08C45.3877 227.424 45.2437 226.664 45.2437 225.8C45.2437 224.936 45.3877 224.18 45.6757 223.532C45.9637 222.876 46.3757 222.368 46.9117 222.008C47.4557 221.64 48.0997 221.456 48.8437 221.456C49.5877 221.456 50.2277 221.64 50.7637 222.008C51.2997 222.368 51.7117 222.876 51.9997 223.532C52.2877 224.18 52.4317 224.936 52.4317 225.8C52.4317 226.664 52.2877 227.424 51.9997 228.08C51.7117 228.728 51.2997 229.236 50.7637 229.604C50.2277 229.964 49.5877 230.144 48.8437 230.144ZM48.8437 229.256C49.3317 229.256 49.7677 229.12 50.1517 228.848C50.5437 228.568 50.8477 228.172 51.0637 227.66C51.2877 227.14 51.3997 226.52 51.3997 225.8C51.3997 225.08 51.2877 224.464 51.0637 223.952C50.8477 223.44 50.5437 223.048 50.1517 222.776C49.7677 222.496 49.3317 222.356 48.8437 222.356C48.3477 222.356 47.9077 222.496 47.5237 222.776C47.1397 223.048 46.8357 223.44 46.6117 223.952C46.3877 224.464 46.2757 225.08 46.2757 225.8C46.2757 226.52 46.3877 227.14 46.6117 227.66C46.8357 228.172 47.1397 228.568 47.5237 228.848C47.9077 229.12 48.3477 229.256 48.8437 229.256Z" fill="#8E8F98"/>
<path d="M69 226.5H714" stroke="#DFE0E3" stroke-dasharray="4 3"/>
<path d="M23.0012 173V165.728L21.6452 166.028V165.332L23.3372 164.6H24.0212V173H23.0012ZM24.9303 174.428L25.6263 171.776H26.6702L25.6263 174.428H24.9303ZM31.2031 173.144C30.4591 173.144 29.8151 172.964 29.2711 172.604C28.7351 172.236 28.3231 171.728 28.0351 171.08C27.7471 170.424 27.6031 169.664 27.6031 168.8C27.6031 167.936 27.7471 167.18 28.0351 166.532C28.3231 165.876 28.7351 165.368 29.2711 165.008C29.8151 164.64 30.4591 164.456 31.2031 164.456C31.9471 164.456 32.5871 164.64 33.1231 165.008C33.6591 165.368 34.0711 165.876 34.3591 166.532C34.6471 167.18 34.7911 167.936 34.7911 168.8C34.7911 169.664 34.6471 170.424 34.3591 171.08C34.0711 171.728 33.6591 172.236 33.1231 172.604C32.5871 172.964 31.9471 173.144 31.2031 173.144ZM31.2031 172.256C31.6911 172.256 32.1271 172.12 32.5111 171.848C32.9031 171.568 33.2071 171.172 33.4231 170.66C33.6471 170.14 33.7591 169.52 33.7591 168.8C33.7591 168.08 33.6471 167.464 33.4231 166.952C33.2071 166.44 32.9031 166.048 32.5111 165.776C32.1271 165.496 31.6911 165.356 31.2031 165.356C30.7071 165.356 30.2671 165.496 29.8831 165.776C29.4991 166.048 29.1951 166.44 28.9711 166.952C28.7471 167.464 28.6351 168.08 28.6351 168.8C28.6351 169.52 28.7471 170.14 28.9711 170.66C29.1951 171.172 29.4991 171.568 29.8831 171.848C30.2671 172.12 30.7071 172.256 31.2031 172.256ZM39.5234 173.144C38.7794 173.144 38.1354 172.964 37.5914 172.604C37.0554 172.236 36.6434 171.728 36.3554 171.08C36.0674 170.424 35.9234 169.664 35.9234 168.8C35.9234 167.936 36.0674 167.18 36.3554 166.532C36.6434 165.876 37.0554 165.368 37.5914 165.008C38.1354 164.64 38.7794 164.456 39.5234 164.456C40.2674 164.456 40.9074 164.64 41.4434 165.008C41.9794 165.368 42.3914 165.876 42.6794 166.532C42.9674 167.18 43.1114 167.936 43.1114 168.8C43.1114 169.664 42.9674 170.424 42.6794 171.08C42.3914 171.728 41.9794 172.236 41.4434 172.604C40.9074 172.964 40.2674 173.144 39.5234 173.144ZM39.5234 172.256C40.0114 172.256 40.4474 172.12 40.8314 171.848C41.2234 171.568 41.5274 171.172 41.7434 170.66C41.9674 170.14 42.0794 169.52 42.0794 168.8C42.0794 168.08 41.9674 167.464 41.7434 166.952C41.5274 166.44 41.2234 166.048 40.8314 165.776C40.4474 165.496 40.0114 165.356 39.5234 165.356C39.0274 165.356 38.5874 165.496 38.2034 165.776C37.8194 166.048 37.5154 166.44 37.2914 166.952C37.0674 167.464 36.9554 168.08 36.9554 168.8C36.9554 169.52 37.0674 170.14 37.2914 170.66C37.5154 171.172 37.8194 171.568 38.2034 171.848C38.5874 172.12 39.0274 172.256 39.5234 172.256ZM47.8437 173.144C47.0997 173.144 46.4557 172.964 45.9117 172.604C45.3757 172.236 44.9637 171.728 44.6757 171.08C44.3877 170.424 44.2437 169.664 44.2437 168.8C44.2437 167.936 44.3877 167.18 44.6757 166.532C44.9637 165.876 45.3757 165.368 45.9117 165.008C46.4557 164.64 47.0997 164.456 47.8437 164.456C48.5877 164.456 49.2277 164.64 49.7637 165.008C50.2997 165.368 50.7117 165.876 50.9997 166.532C51.2877 167.18 51.4317 167.936 51.4317 168.8C51.4317 169.664 51.2877 170.424 50.9997 171.08C50.7117 171.728 50.2997 172.236 49.7637 172.604C49.2277 172.964 48.5877 173.144 47.8437 173.144ZM47.8437 172.256C48.3317 172.256 48.7677 172.12 49.1517 171.848C49.5437 171.568 49.8477 171.172 50.0637 170.66C50.2877 170.14 50.3997 169.52 50.3997 168.8C50.3997 168.08 50.2877 167.464 50.0637 166.952C49.8477 166.44 49.5437 166.048 49.1517 165.776C48.7677 165.496 48.3317 165.356 47.8437 165.356C47.3477 165.356 46.9077 165.496 46.5237 165.776C46.1397 166.048 45.8357 166.44 45.6117 166.952C45.3877 167.464 45.2757 168.08 45.2757 168.8C45.2757 169.52 45.3877 170.14 45.6117 170.66C45.8357 171.172 46.1397 171.568 46.5237 171.848C46.9077 172.12 47.3477 172.256 47.8437 172.256Z" fill="#8E8F98"/>
<path d="M69 169.5H714" stroke="#DFE0E3" stroke-dasharray="4 3"/>
<path d="M281 205C281 203.895 281.895 203 283 203H287C288.105 203 289 203.895 289 205V398H281V205Z" fill="#FFD246"/>
<path d="M293 181C293 179.895 293.895 179 295 179H299C300.105 179 301 179.895 301 181V398H293V181Z" fill="#1E5579"/>
<path d="M82 324C82 322.895 82.8954 322 84 322H88C89.1046 322 90 322.895 90 324V398H82V324Z" fill="#FFD246"/>
<path d="M94 290C94 288.895 94.8954 288 96 288H100C101.105 288 102 288.895 102 290V398H94V290Z" fill="#1E5579"/>
<path d="M181 313C181 311.895 181.895 311 183 311H187C188.105 311 189 311.895 189 313V398H181V313Z" fill="#FFD246"/>
<path d="M193 357C193 355.895 193.895 355 195 355H199C200.105 355 201 355.895 201 357V398H193V357Z" fill="#1E5579"/>
<path d="M380 258C380 256.895 380.895 256 382 256H386C387.105 256 388 256.895 388 258V398H380V258Z" fill="#FFD246"/>
<path d="M392 316C392 314.895 392.895 314 394 314H398C399.105 314 400 314.895 400 316V398H392V316Z" fill="#1E5579"/>
<path d="M479 239C479 237.895 479.895 237 481 237H485C486.105 237 487 237.895 487 239V398H479V239Z" fill="#FFD246"/>
<path d="M491 346C491 344.895 491.895 344 493 344H497C498.105 344 499 344.895 499 346V398H491V346Z" fill="#1E5579"/>
<path d="M579 313C579 311.895 579.895 311 581 311H585C586.105 311 587 311.895 587 313V398H579V313Z" fill="#FFD246"/>
<path d="M591 328C591 326.895 591.895 326 593 326H597C598.105 326 599 326.895 599 328V398H591V328Z" fill="#1E5579"/>
<path d="M678 206C678 204.895 678.895 204 680 204H684C685.105 204 686 204.895 686 206V398H678V206Z" fill="#FFD246"/>
<path d="M690 241C690 239.895 690.895 239 692 239H696C697.105 239 698 239.895 698 241V398H690V241Z" fill="#1E5579"/>
<path d="M50.768 99.16C51.776 98.808 52.592 97.992 52.592 96.744C52.592 94.92 51.2 93.736 48.912 93.736C46.64 93.736 45.232 94.92 45.232 96.744C45.232 97.976 45.936 98.792 46.912 99.16C45.744 99.528 44.736 100.52 44.736 101.896C44.736 104.312 46.544 105.24 48.8 105.24C50.896 105.24 52.88 104.312 52.88 101.896C52.88 100.52 51.92 99.528 50.768 99.16ZM48.912 95.08C50.128 95.08 50.752 95.832 50.752 96.808C50.752 97.848 50.096 98.584 48.896 98.584C47.696 98.584 47.072 97.848 47.072 96.808C47.072 95.832 47.712 95.08 48.912 95.08ZM48.832 103.896C47.376 103.896 46.624 103.08 46.624 101.912C46.624 100.824 47.328 99.928 48.816 99.928C50.336 99.928 50.976 100.84 50.976 101.912C50.976 103.08 50.304 103.896 48.832 103.896ZM59.0934 97.56C58.2934 97.56 57.6854 97.736 57.0934 98.232L56.5014 99.224C56.6134 96.232 57.5414 95.08 58.9174 95.08C59.9254 95.08 60.5174 95.64 60.7734 96.76L60.8054 96.92H62.6294L62.6134 96.76C62.4054 94.92 61.0774 93.736 59.0454 93.736C56.6134 93.736 54.6454 95.64 54.6454 99.928C54.6454 103.624 56.1014 105.224 58.6934 105.224C60.9494 105.224 62.7414 103.688 62.7414 101.24C62.7414 99.128 61.4454 97.56 59.0934 97.56ZM58.6934 103.88C57.4134 103.88 56.5974 102.824 56.5974 101.416C56.5974 99.768 57.5574 98.904 58.6774 98.904C60.1814 98.904 60.8374 100.024 60.8374 101.448C60.8374 102.872 59.9734 103.88 58.6934 103.88ZM65.5948 102.888C64.9068 102.888 64.4268 103.368 64.4268 104.056C64.4268 104.728 64.9068 105.224 65.5948 105.224C66.2668 105.224 66.7628 104.728 66.7628 104.056C66.7628 103.368 66.2668 102.888 65.5948 102.888ZM73.0375 97.656C72.3815 97.656 71.8215 97.8 71.3095 98.104L70.6855 98.856L71.1335 95.352H76.2535V93.96H69.7095L68.9255 100.424H70.5735C71.0535 99.4 71.7095 99 72.6535 99C74.0135 99 74.8135 99.976 74.8135 101.464C74.8135 102.968 73.9655 103.88 72.6055 103.88C71.3735 103.88 70.7495 103.16 70.5255 102.024L70.5095 101.864H68.7495L68.7655 102.024C68.9895 104.168 70.3335 105.224 72.6535 105.224C74.7655 105.224 76.7175 103.848 76.7175 101.384C76.7175 99.208 75.4375 97.656 73.0375 97.656ZM80.7869 93.784C79.2989 93.784 78.3709 94.76 78.3709 96.36C78.3709 97.96 79.2989 98.952 80.7869 98.952C82.2589 98.952 83.2029 97.96 83.2029 96.36C83.2029 94.76 82.2589 93.784 80.7869 93.784ZM80.9629 105L88.1309 93.96H86.5949L79.4269 105H80.9629ZM80.7869 94.84C81.3789 94.84 81.7629 95.368 81.7629 96.36C81.7629 97.352 81.3789 97.896 80.7869 97.896C80.1789 97.896 79.8109 97.352 79.8109 96.36C79.8109 95.368 80.1789 94.84 80.7869 94.84ZM86.7229 100.056C85.2509 100.056 84.3069 101.032 84.3069 102.632C84.3069 104.232 85.2509 105.224 86.7229 105.224C88.2109 105.224 89.1389 104.232 89.1389 102.632C89.1389 101.032 88.2109 100.056 86.7229 100.056ZM86.7229 101.112C87.3309 101.112 87.6989 101.64 87.6989 102.632C87.6989 103.624 87.3309 104.168 86.7229 104.168C86.1309 104.168 85.7469 103.624 85.7469 102.632C85.7469 101.64 86.1309 101.112 86.7229 101.112Z" fill="black"/>
<path d="M35 101L30 96L25 101" stroke="#0BAD4B" stroke-width="2" stroke-linejoin="round"/>
<path d="M30 96.5V104.5" stroke="#0BAD4B" stroke-width="2" stroke-linejoin="round"/>
<path d="M26.004 117.416C26.088 116.9 26.604 116.72 27.384 116.864V116.012C27.168 115.976 26.916 115.952 26.652 115.952C25.704 115.952 25.08 116.468 24.972 117.392C24.948 117.608 24.936 117.92 24.936 118.16V118.688H24.252V119.48H24.936V125H25.968V119.48H27.276V118.688H25.968V118.064C25.968 117.884 25.98 117.584 26.004 117.416ZM31.0895 118.496C30.7895 118.496 30.4655 118.604 30.2015 118.784L29.6255 119.636V118.64H28.5935V125H29.6255V121.376C29.6255 119.924 30.4415 119.288 31.5215 119.36V118.58C31.4015 118.52 31.2575 118.496 31.0895 118.496ZM35.2668 118.472C33.1068 118.472 32.1108 120.02 32.1108 121.82C32.1108 123.608 33.1068 125.168 35.2668 125.168C37.4268 125.168 38.4228 123.608 38.4228 121.82C38.4228 120.02 37.4268 118.472 35.2668 118.472ZM35.2668 124.376C33.9828 124.376 33.2388 123.308 33.2388 121.82C33.2388 120.32 33.9828 119.264 35.2668 119.264C36.5508 119.264 37.2948 120.32 37.2948 121.82C37.2948 123.308 36.5508 124.376 35.2668 124.376ZM48.355 120.02C48.211 119.144 47.563 118.472 46.423 118.472C45.859 118.472 45.403 118.58 45.079 118.844L44.515 119.66C44.275 118.964 43.651 118.472 42.679 118.472C42.115 118.472 41.659 118.58 41.335 118.844L40.927 119.564V118.64H39.895V125H40.927V121.856C40.927 119.924 41.515 119.288 42.319 119.288C43.039 119.288 43.495 119.636 43.591 120.356C43.627 120.68 43.639 121.028 43.639 121.592V125H44.671V121.856C44.671 119.924 45.259 119.288 46.063 119.288C46.783 119.288 47.239 119.636 47.335 120.356C47.371 120.68 47.383 121.028 47.383 121.592V125H48.415V121.112C48.415 120.596 48.403 120.344 48.355 120.02ZM56.3925 118.472C55.7445 118.472 55.0725 118.676 54.7125 118.976L54.2325 119.66V118.64H53.2005V127.352H54.2325V124.124L54.6525 124.748C54.9765 125.012 55.6485 125.168 56.1765 125.168C57.8205 125.168 59.2845 124.076 59.2845 121.724C59.2845 119.864 58.2525 118.472 56.3925 118.472ZM56.1765 124.376C55.2645 124.376 54.2325 123.752 54.2325 122.108V121.76C54.2325 119.936 55.1805 119.264 56.2365 119.264C57.5085 119.264 58.1565 120.404 58.1565 121.844C58.1565 123.512 57.2925 124.376 56.1765 124.376ZM63.2574 118.496C62.9574 118.496 62.6334 118.604 62.3694 118.784L61.7934 119.636V118.64H60.7614V125H61.7934V121.376C61.7934 119.924 62.6094 119.288 63.6894 119.36V118.58C63.5694 118.52 63.4254 118.496 63.2574 118.496ZM70.0268 121.64C70.0268 119.78 69.0548 118.472 67.3028 118.472C65.5628 118.472 64.2788 119.78 64.2788 121.844C64.2788 124.088 65.5148 125.168 67.1708 125.168C68.4788 125.168 69.6908 124.484 69.9428 122.948H68.8628C68.7188 123.86 68.0468 124.376 67.2188 124.376C66.2828 124.376 65.4908 123.812 65.3948 122.132H70.0028C70.0268 121.904 70.0268 121.736 70.0268 121.64ZM67.2788 119.264C68.3228 119.264 68.8868 120.02 68.9828 121.34H65.4068C65.5268 119.984 66.2708 119.264 67.2788 119.264ZM76.8257 118.64H75.7337L73.8257 124.244L71.8817 118.64H70.7417L73.1537 125H74.4137L76.8257 118.64ZM77.7331 123.632C77.2891 123.632 76.9651 123.956 76.9651 124.4C76.9651 124.844 77.2891 125.168 77.7331 125.168C78.1771 125.168 78.5011 124.844 78.5011 124.4C78.5011 123.956 78.1771 123.632 77.7331 123.632ZM91.5457 120.02C91.4017 119.144 90.7537 118.472 89.6137 118.472C89.0497 118.472 88.5937 118.58 88.2697 118.844L87.7057 119.66C87.4657 118.964 86.8417 118.472 85.8697 118.472C85.3057 118.472 84.8497 118.58 84.5257 118.844L84.1177 119.564V118.64H83.0857V125H84.1177V121.856C84.1177 119.924 84.7057 119.288 85.5097 119.288C86.2297 119.288 86.6857 119.636 86.7817 120.356C86.8177 120.68 86.8297 121.028 86.8297 121.592V125H87.8617V121.856C87.8617 119.924 88.4497 119.288 89.2537 119.288C89.9737 119.288 90.4297 119.636 90.5257 120.356C90.5617 120.68 90.5737 121.028 90.5737 121.592V125H91.6057V121.112C91.6057 120.596 91.5937 120.344 91.5457 120.02ZM96.2043 118.472C94.0443 118.472 93.0483 120.02 93.0483 121.82C93.0483 123.608 94.0443 125.168 96.2043 125.168C98.3643 125.168 99.3603 123.608 99.3603 121.82C99.3603 120.02 98.3643 118.472 96.2043 118.472ZM96.2043 124.376C94.9203 124.376 94.1763 123.308 94.1763 121.82C94.1763 120.32 94.9203 119.264 96.2043 119.264C97.4883 119.264 98.2323 120.32 98.2323 121.82C98.2323 123.308 97.4883 124.376 96.2043 124.376ZM102.069 119.48H103.257V118.688H102.069V117.212H101.037V118.688H100.185V119.48H101.037V123.188C101.037 123.548 101.037 123.812 101.049 123.98C101.109 124.772 101.517 125.096 102.309 125.096C102.597 125.096 102.885 125.084 103.185 125.036V124.28C102.381 124.376 102.129 124.244 102.081 123.632C102.069 123.464 102.069 123.356 102.069 123.14V119.48ZM110.171 120.332C110.075 119.216 109.295 118.472 107.903 118.472C107.255 118.472 106.787 118.58 106.247 119L105.851 119.732V116.12H104.819V125H105.851V122.204C105.851 120.032 106.691 119.312 107.687 119.288C108.671 119.264 109.079 119.84 109.139 120.584C109.163 120.908 109.163 121.172 109.163 121.496V125H110.195V121.424C110.195 120.908 110.195 120.656 110.171 120.332Z" fill="#8E8C95"/>
<path d="M463.584 103.592L466.016 101.192C467.952 99.304 468.72 98.28 468.72 96.824C468.72 95.08 467.536 93.72 465.2 93.72C462.864 93.72 461.44 94.984 461.216 97.32L461.2 97.48H462.96L462.976 97.32C463.12 95.864 463.744 95.064 465.008 95.064C466.208 95.064 466.816 95.912 466.816 96.984C466.816 98.04 466.208 98.84 464.816 100.216L460.96 104.104V105H468.656V103.592H463.584ZM471.685 102.888C470.997 102.888 470.517 103.368 470.517 104.056C470.517 104.728 470.997 105.224 471.685 105.224C472.357 105.224 472.853 104.728 472.853 104.056C472.853 103.368 472.357 102.888 471.685 102.888ZM483.016 102.296V100.888H481.624V93.96H479.816L474.472 101.384V102.296H479.88V105H481.624V102.296H483.016ZM479.88 100.888H476.536L479.048 97.4C479.384 96.952 479.64 96.52 479.88 96.104V100.888ZM489.037 97.656C488.381 97.656 487.821 97.8 487.309 98.104L486.685 98.856L487.133 95.352H492.253V93.96H485.709L484.925 100.424H486.573C487.053 99.4 487.709 99 488.654 99C490.013 99 490.813 99.976 490.813 101.464C490.813 102.968 489.965 103.88 488.605 103.88C487.373 103.88 486.749 103.16 486.525 102.024L486.509 101.864H484.749L484.765 102.024C484.989 104.168 486.333 105.224 488.654 105.224C490.766 105.224 492.717 103.848 492.717 101.384C492.717 99.208 491.438 97.656 489.037 97.656ZM498.931 97.56C498.131 97.56 497.523 97.736 496.931 98.232L496.339 99.224C496.451 96.232 497.379 95.08 498.755 95.08C499.763 95.08 500.355 95.64 500.611 96.76L500.643 96.92H502.467L502.451 96.76C502.243 94.92 500.915 93.736 498.883 93.736C496.451 93.736 494.483 95.64 494.483 99.928C494.483 103.624 495.939 105.224 498.531 105.224C500.787 105.224 502.579 103.688 502.579 101.24C502.579 99.128 501.283 97.56 498.931 97.56ZM498.531 103.88C497.251 103.88 496.435 102.824 496.435 101.416C496.435 99.768 497.395 98.904 498.515 98.904C500.019 98.904 500.675 100.024 500.675 101.448C500.675 102.872 499.811 103.88 498.531 103.88Z" fill="black"/>
<path d="M462.232 125V116.72H461.2V125H462.232ZM472.737 120.02C472.593 119.144 471.945 118.472 470.805 118.472C470.241 118.472 469.785 118.58 469.461 118.844L468.897 119.66C468.657 118.964 468.033 118.472 467.061 118.472C466.497 118.472 466.041 118.58 465.717 118.844L465.309 119.564V118.64H464.277V125H465.309V121.856C465.309 119.924 465.897 119.288 466.701 119.288C467.421 119.288 467.877 119.636 467.973 120.356C468.009 120.68 468.021 121.028 468.021 121.592V125H469.053V121.856C469.053 119.924 469.641 119.288 470.445 119.288C471.165 119.288 471.621 119.636 471.717 120.356C471.753 120.68 471.765 121.028 471.765 121.592V125H472.797V121.112C472.797 120.596 472.785 120.344 472.737 120.02ZM477.96 118.472C477.312 118.472 476.64 118.676 476.28 118.976L475.8 119.66V118.64H474.768V127.352H475.8V124.124L476.22 124.748C476.544 125.012 477.216 125.168 477.744 125.168C479.388 125.168 480.852 124.076 480.852 121.724C480.852 119.864 479.82 118.472 477.96 118.472ZM477.744 124.376C476.832 124.376 475.8 123.752 475.8 122.108V121.76C475.8 119.936 476.748 119.264 477.804 119.264C479.076 119.264 479.724 120.404 479.724 121.844C479.724 123.512 478.86 124.376 477.744 124.376ZM484.825 118.496C484.525 118.496 484.201 118.604 483.937 118.784L483.361 119.636V118.64H482.329V125H483.361V121.376C483.361 119.924 484.177 119.288 485.257 119.36V118.58C485.137 118.52 484.993 118.496 484.825 118.496ZM491.594 121.64C491.594 119.78 490.622 118.472 488.87 118.472C487.13 118.472 485.846 119.78 485.846 121.844C485.846 124.088 487.082 125.168 488.738 125.168C490.046 125.168 491.258 124.484 491.51 122.948H490.43C490.286 123.86 489.614 124.376 488.786 124.376C487.85 124.376 487.058 123.812 486.962 122.132H491.57C491.594 121.904 491.594 121.736 491.594 121.64ZM488.846 119.264C489.89 119.264 490.454 120.02 490.55 121.34H486.974C487.094 119.984 487.838 119.264 488.846 119.264ZM495.033 118.472C493.725 118.472 492.837 119.168 492.837 120.332C492.837 121.448 493.749 121.916 494.889 122.228C495.957 122.516 496.389 122.84 496.389 123.452C496.389 124.064 495.837 124.376 495.153 124.376C494.421 124.376 493.833 124.052 493.665 123.128H492.585C492.777 124.568 493.773 125.168 495.081 125.168C496.425 125.168 497.445 124.568 497.445 123.368C497.445 122.288 496.749 121.712 495.285 121.328C494.421 121.1 493.893 120.848 493.893 120.212C493.893 119.66 494.229 119.264 494.949 119.264C495.693 119.264 496.149 119.708 496.293 120.452H497.373C497.241 119.288 496.461 118.472 495.033 118.472ZM500.766 118.472C499.458 118.472 498.57 119.168 498.57 120.332C498.57 121.448 499.482 121.916 500.622 122.228C501.69 122.516 502.122 122.84 502.122 123.452C502.122 124.064 501.57 124.376 500.886 124.376C500.154 124.376 499.566 124.052 499.398 123.128H498.318C498.51 124.568 499.506 125.168 500.814 125.168C502.158 125.168 503.178 124.568 503.178 123.368C503.178 122.288 502.482 121.712 501.018 121.328C500.154 121.1 499.626 120.848 499.626 120.212C499.626 119.66 499.962 119.264 500.682 119.264C501.426 119.264 501.882 119.708 502.026 120.452H503.106C502.974 119.288 502.194 118.472 500.766 118.472ZM505.167 116.552C504.795 116.552 504.507 116.84 504.507 117.212C504.507 117.584 504.795 117.872 505.167 117.872C505.539 117.872 505.827 117.584 505.827 117.212C505.827 116.84 505.539 116.552 505.167 116.552ZM505.683 125V118.64H504.651V125H505.683ZM510.363 118.472C508.203 118.472 507.207 120.02 507.207 121.82C507.207 123.608 508.203 125.168 510.363 125.168C512.523 125.168 513.519 123.608 513.519 121.82C513.519 120.02 512.523 118.472 510.363 118.472ZM510.363 124.376C509.079 124.376 508.335 123.308 508.335 121.82C508.335 120.32 509.079 119.264 510.363 119.264C511.647 119.264 512.391 120.32 512.391 121.82C512.391 123.308 511.647 124.376 510.363 124.376ZM520.343 120.332C520.247 119.216 519.467 118.472 518.075 118.472C517.427 118.472 516.959 118.58 516.419 119L516.023 119.732V118.64H514.991V125H516.023V122.204C516.023 120.032 516.863 119.288 517.859 119.288C518.843 119.288 519.251 119.84 519.311 120.584C519.335 120.908 519.335 121.172 519.335 121.496V125H520.367V121.424C520.367 120.908 520.367 120.656 520.343 120.332ZM524.177 118.472C522.869 118.472 521.981 119.168 521.981 120.332C521.981 121.448 522.893 121.916 524.033 122.228C525.101 122.516 525.533 122.84 525.533 123.452C525.533 124.064 524.981 124.376 524.297 124.376C523.565 124.376 522.977 124.052 522.809 123.128H521.729C521.921 124.568 522.917 125.168 524.225 125.168C525.569 125.168 526.589 124.568 526.589 123.368C526.589 122.288 525.893 121.712 524.429 121.328C523.565 121.1 523.037 120.848 523.037 120.212C523.037 119.66 523.373 119.264 524.093 119.264C524.837 119.264 525.293 119.708 525.437 120.452H526.517C526.385 119.288 525.605 118.472 524.177 118.472Z" fill="#8E8C95"/>
<path d="M582.912 93.96H581.936C581.44 93.96 580.976 94.072 580.464 94.376L578.032 95.864V97.592L581.152 95.8V105H582.912V93.96ZM588.469 103.272V103.112H586.693L585.429 106.936H586.965L588.469 103.272ZM593.512 103.592L595.944 101.192C597.88 99.304 598.648 98.28 598.648 96.824C598.648 95.08 597.464 93.72 595.128 93.72C592.792 93.72 591.368 94.984 591.144 97.32L591.128 97.48H592.888L592.904 97.32C593.048 95.864 593.672 95.064 594.936 95.064C596.136 95.064 596.744 95.912 596.744 96.984C596.744 98.04 596.136 98.84 594.744 100.216L590.888 104.104V105H598.584V103.592H593.512ZM606.605 99.16C607.614 98.808 608.429 97.992 608.429 96.744C608.429 94.92 607.037 93.736 604.749 93.736C602.477 93.736 601.069 94.92 601.069 96.744C601.069 97.976 601.773 98.792 602.749 99.16C601.581 99.528 600.573 100.52 600.573 101.896C600.573 104.312 602.381 105.24 604.637 105.24C606.734 105.24 608.717 104.312 608.717 101.896C608.717 100.52 607.758 99.528 606.605 99.16ZM604.749 95.08C605.965 95.08 606.589 95.832 606.589 96.808C606.589 97.848 605.933 98.584 604.734 98.584C603.533 98.584 602.909 97.848 602.909 96.808C602.909 95.832 603.549 95.08 604.749 95.08ZM604.669 103.896C603.213 103.896 602.461 103.08 602.461 101.912C602.461 100.824 603.165 99.928 604.654 99.928C606.174 99.928 606.813 100.84 606.813 101.912C606.813 103.08 606.141 103.896 604.669 103.896ZM616.323 99.144C617.571 98.792 618.323 97.848 618.323 96.568C618.323 94.936 617.059 93.736 614.851 93.736C612.467 93.736 611.091 95.08 610.899 97.048L610.883 97.208H612.627L612.643 97.048C612.771 95.784 613.571 95.08 614.659 95.08C615.731 95.08 616.419 95.768 616.419 96.776C616.419 98.008 615.507 98.728 614.259 98.744L613.939 98.76V100.056H614.259C615.891 100.072 616.675 100.744 616.675 101.96C616.675 103.144 615.795 103.88 614.531 103.88C613.283 103.88 612.355 103.192 612.195 101.832L612.179 101.672H610.419L610.435 101.832C610.675 104.168 612.179 105.224 614.451 105.224C616.755 105.224 618.579 103.944 618.579 101.88C618.579 100.424 617.747 99.496 616.323 99.144Z" fill="black"/>
<path d="M582.648 122.828C582.576 122 582.252 121.244 581.58 120.932C582.348 120.692 583.056 120.068 583.056 118.976C583.056 117.584 582.192 116.924 580.992 116.768C580.62 116.72 580.332 116.72 579.912 116.72H577.2V125H578.232V121.436H579.792C579.984 121.436 580.188 121.436 580.38 121.448C581.196 121.508 581.52 122.072 581.616 122.924C581.724 123.944 581.832 124.472 582.06 125H583.2C582.864 124.556 582.744 123.908 582.648 122.828ZM578.232 120.596V117.56H579.912C580.284 117.56 580.512 117.572 580.74 117.608C581.508 117.728 581.952 118.148 581.952 119.072C581.952 120.008 581.388 120.5 580.62 120.572C580.392 120.596 580.188 120.596 579.816 120.596H578.232ZM589.763 121.64C589.763 119.78 588.791 118.472 587.039 118.472C585.299 118.472 584.015 119.78 584.015 121.844C584.015 124.088 585.251 125.168 586.907 125.168C588.215 125.168 589.427 124.484 589.679 122.948H588.599C588.455 123.86 587.783 124.376 586.955 124.376C586.019 124.376 585.227 123.812 585.131 122.132H589.739C589.763 121.904 589.763 121.736 589.763 121.64ZM587.015 119.264C588.059 119.264 588.623 120.02 588.719 121.34H585.143C585.263 119.984 586.007 119.264 587.015 119.264ZM595.002 125H596.034C595.938 124.292 595.914 123.86 595.914 123.38V120.992C595.914 120.716 595.902 120.404 595.878 120.152C595.77 119.108 595.134 118.472 593.622 118.472C592.218 118.472 591.27 119.252 591.174 120.608H592.254C592.326 119.732 592.758 119.264 593.622 119.264C594.474 119.264 594.81 119.648 594.858 120.236C594.882 120.476 594.882 120.728 594.882 121.004V121.172H594.474C591.978 121.172 590.898 121.916 590.898 123.356C590.898 124.532 591.798 125.168 592.95 125.168C593.562 125.168 594.114 125.072 594.546 124.772L594.894 124.088L595.002 125ZM593.298 124.376C592.518 124.376 592.026 124.04 592.026 123.272C592.026 122.18 593.13 121.808 594.882 121.94V122.588C594.882 123.74 594.258 124.376 593.298 124.376ZM600.414 118.472C598.818 118.472 597.426 119.684 597.426 121.832C597.426 124.16 598.65 125.168 600.258 125.168C601.674 125.168 602.73 124.448 603.042 122.972H601.962C601.746 123.896 601.158 124.376 600.318 124.376C599.37 124.376 598.554 123.608 598.554 121.76C598.554 120.044 599.394 119.264 600.39 119.264C601.242 119.264 601.794 119.756 602.022 120.776H603.102C602.91 119.384 601.938 118.472 600.414 118.472ZM609.882 120.332C609.786 119.216 609.006 118.472 607.614 118.472C606.966 118.472 606.498 118.58 605.958 119L605.562 119.732V116.12H604.53V125H605.562V122.204C605.562 120.032 606.402 119.312 607.398 119.288C608.382 119.264 608.79 119.84 608.85 120.584C608.874 120.908 608.874 121.172 608.874 121.496V125H609.906V121.424C609.906 120.908 609.906 120.656 609.882 120.332Z" fill="#8E8C95"/>
<path d="M677.584 103.592L680.016 101.192C681.952 99.304 682.72 98.28 682.72 96.824C682.72 95.08 681.536 93.72 679.2 93.72C676.864 93.72 675.44 94.984 675.216 97.32L675.2 97.48H676.96L676.976 97.32C677.12 95.864 677.744 95.064 679.008 95.064C680.208 95.064 680.816 95.912 680.816 96.984C680.816 98.04 680.208 98.84 678.816 100.216L674.96 104.104V105H682.656V103.592H677.584ZM685.685 102.888C684.997 102.888 684.517 103.368 684.517 104.056C684.517 104.728 684.997 105.224 685.685 105.224C686.357 105.224 686.853 104.728 686.853 104.056C686.853 103.368 686.357 102.888 685.685 102.888ZM694.504 99.144C695.752 98.792 696.504 97.848 696.504 96.568C696.504 94.936 695.24 93.736 693.032 93.736C690.648 93.736 689.272 95.08 689.08 97.048L689.064 97.208H690.808L690.824 97.048C690.952 95.784 691.752 95.08 692.84 95.08C693.912 95.08 694.6 95.768 694.6 96.776C694.6 98.008 693.688 98.728 692.44 98.744L692.12 98.76V100.056H692.44C694.072 100.072 694.856 100.744 694.856 101.96C694.856 103.144 693.976 103.88 692.712 103.88C691.464 103.88 690.536 103.192 690.376 101.832L690.36 101.672H688.6L688.616 101.832C688.856 104.168 690.36 105.224 692.632 105.224C694.936 105.224 696.76 103.944 696.76 101.88C696.76 100.424 695.928 99.496 694.504 99.144ZM706.925 102.296V100.888H705.534V93.96H703.726L698.381 101.384V102.296H703.789V105H705.534V102.296H706.925ZM703.789 100.888H700.445L702.957 97.4C703.293 96.952 703.549 96.52 703.789 96.104V100.888ZM710.787 93.784C709.299 93.784 708.371 94.76 708.371 96.36C708.371 97.96 709.299 98.952 710.787 98.952C712.259 98.952 713.203 97.96 713.203 96.36C713.203 94.76 712.259 93.784 710.787 93.784ZM710.963 105L718.131 93.96H716.595L709.427 105H710.963ZM710.787 94.84C711.379 94.84 711.763 95.368 711.763 96.36C711.763 97.352 711.379 97.896 710.787 97.896C710.179 97.896 709.811 97.352 709.811 96.36C709.811 95.368 710.179 94.84 710.787 94.84ZM716.723 100.056C715.251 100.056 714.307 101.032 714.307 102.632C714.307 104.232 715.251 105.224 716.723 105.224C718.211 105.224 719.139 104.232 719.139 102.632C719.139 101.032 718.211 100.056 716.723 100.056ZM716.723 101.112C717.331 101.112 717.699 101.64 717.699 102.632C717.699 103.624 717.331 104.168 716.723 104.168C716.131 104.168 715.747 103.624 715.747 102.632C715.747 101.64 716.131 101.112 716.723 101.112Z" fill="black"/>
<path d="M678.788 121.004V121.844H680.72C680.72 123.32 679.724 124.352 678.38 124.352C676.748 124.352 675.716 122.888 675.716 120.848C675.716 118.844 676.76 117.368 678.452 117.368C679.832 117.368 680.564 118.172 680.804 119.36L680.828 119.48H681.86L681.848 119.36C681.68 117.74 680.576 116.552 678.476 116.552C676.124 116.552 674.564 118.376 674.564 120.896C674.564 123.32 675.908 125.168 678.32 125.168C679.268 125.168 680 124.856 680.468 124.328L680.84 123.56V125H681.752V121.004H678.788ZM686.129 118.496C685.829 118.496 685.505 118.604 685.241 118.784L684.665 119.636V118.64H683.633V125H684.665V121.376C684.665 119.924 685.481 119.288 686.561 119.36V118.58C686.441 118.52 686.297 118.496 686.129 118.496ZM690.306 118.472C688.146 118.472 687.15 120.02 687.15 121.82C687.15 123.608 688.146 125.168 690.306 125.168C692.466 125.168 693.462 123.608 693.462 121.82C693.462 120.02 692.466 118.472 690.306 118.472ZM690.306 124.376C689.022 124.376 688.278 123.308 688.278 121.82C688.278 120.32 689.022 119.264 690.306 119.264C691.59 119.264 692.334 120.32 692.334 121.82C692.334 123.308 691.59 124.376 690.306 124.376ZM703.394 118.64H702.29L700.814 123.98L699.398 118.64H698.114L696.722 124.016L695.246 118.64H694.058L696.086 125H697.31L698.726 119.648L700.142 125H701.366L703.394 118.64ZM705.817 119.48H707.005V118.688H705.817V117.212H704.785V118.688H703.933V119.48H704.785V123.188C704.785 123.548 704.785 123.812 704.797 123.98C704.857 124.772 705.265 125.096 706.057 125.096C706.345 125.096 706.633 125.084 706.933 125.036V124.28C706.129 124.376 705.877 124.244 705.829 123.632C705.817 123.464 705.817 123.356 705.817 123.14V119.48ZM713.92 120.332C713.824 119.216 713.044 118.472 711.652 118.472C711.004 118.472 710.536 118.58 709.996 119L709.6 119.732V116.12H708.568V125H709.6V122.204C709.6 120.032 710.44 119.312 711.436 119.288C712.42 119.264 712.828 119.84 712.888 120.584C712.912 120.908 712.912 121.172 712.912 121.496V125H713.944V121.424C713.944 120.908 713.944 120.656 713.92 120.332Z" fill="#8E8C95"/>
<path d="M31.47 29.652C30.84 29.58 30.552 29.58 29.886 29.58H25.602V42H29.85C30.516 42 30.804 42 31.434 41.928C34.314 41.586 36.582 39.426 36.582 35.628C36.582 31.83 34.35 29.994 31.47 29.652ZM30.876 39.984C30.48 40.038 30.102 40.038 29.562 40.038H28.086V31.524H29.598C30.156 31.524 30.516 31.542 30.93 31.596C32.766 31.83 33.954 33.216 33.954 35.664C33.954 38.202 32.73 39.75 30.876 39.984ZM44.1995 42H46.6295C46.4855 40.938 46.4495 40.29 46.4495 39.57V36.474C46.4495 35.952 46.4315 35.448 46.3955 34.998C46.2515 33.342 45.2435 32.172 42.5615 32.172C40.2755 32.172 38.5295 33.396 38.4575 35.556L40.8695 35.538C40.9415 34.494 41.4815 33.918 42.4715 33.918C43.4435 33.918 43.8755 34.404 43.9475 35.07C43.9835 35.394 43.9835 35.682 43.9835 35.97V36.168H43.3715C39.8975 36.168 38.0975 37.356 38.0975 39.462C38.0975 41.28 39.5195 42.252 41.1755 42.252C42.0755 42.252 42.8855 42.072 43.5515 41.622L44.0195 40.596L44.1995 42ZM42.1295 40.506C41.2475 40.506 40.6715 40.11 40.6715 39.264C40.6715 38.004 42.0035 37.554 43.9835 37.698V38.472C43.9835 39.804 43.1375 40.506 42.1295 40.506ZM52.0524 34.134H54.0324V32.496H52.0524V30.138H49.5684V32.496H48.1644V34.134H49.5684V38.85C49.5684 39.39 49.5684 39.804 49.6044 40.236C49.7124 41.586 50.3784 42.198 52.2324 42.198C52.7904 42.198 53.3124 42.162 53.8704 42.072V40.452C52.4844 40.56 52.1424 40.344 52.0704 39.408C52.0524 39.156 52.0524 38.886 52.0524 38.562V34.134ZM61.4858 42H63.9158C63.7718 40.938 63.7358 40.29 63.7358 39.57V36.474C63.7358 35.952 63.7178 35.448 63.6818 34.998C63.5378 33.342 62.5298 32.172 59.8478 32.172C57.5618 32.172 55.8158 33.396 55.7438 35.556L58.1558 35.538C58.2278 34.494 58.7678 33.918 59.7578 33.918C60.7298 33.918 61.1618 34.404 61.2338 35.07C61.2698 35.394 61.2698 35.682 61.2698 35.97V36.168H60.6578C57.1838 36.168 55.3838 37.356 55.3838 39.462C55.3838 41.28 56.8058 42.252 58.4618 42.252C59.3618 42.252 60.1718 42.072 60.8378 41.622L61.3058 40.596L61.4858 42ZM59.4158 40.506C58.5338 40.506 57.9578 40.11 57.9578 39.264C57.9578 38.004 59.2898 37.554 61.2698 37.698V38.472C61.2698 39.804 60.4238 40.506 59.4158 40.506ZM77.4043 38.256L78.6283 42H81.3283L76.9363 29.58H73.8223L69.3403 42H71.9863L73.2283 38.256H77.4043ZM75.3343 31.704L76.7743 36.294H73.8583L75.3343 31.704ZM91.6339 34.854C91.4359 33.18 90.2659 32.172 88.2319 32.172C87.3139 32.172 86.6119 32.352 85.9279 32.838L85.1899 33.972V32.424H82.7059V42H85.1899V37.626C85.1899 34.962 86.1439 33.918 87.3499 33.918C88.5559 33.918 89.1139 34.602 89.1859 35.61C89.2219 36.096 89.2219 36.546 89.2219 36.942V42H91.7059V36.6C91.7059 35.826 91.6879 35.34 91.6339 34.854ZM99.7851 42H102.215C102.071 40.938 102.035 40.29 102.035 39.57V36.474C102.035 35.952 102.017 35.448 101.981 34.998C101.837 33.342 100.829 32.172 98.1471 32.172C95.8611 32.172 94.1151 33.396 94.0431 35.556L96.4551 35.538C96.5271 34.494 97.0671 33.918 98.0571 33.918C99.0291 33.918 99.4611 34.404 99.5331 35.07C99.5691 35.394 99.5691 35.682 99.5691 35.97V36.168H98.9571C95.4831 36.168 93.6831 37.356 93.6831 39.462C93.6831 41.28 95.1051 42.252 96.7611 42.252C97.6611 42.252 98.4711 42.072 99.1371 41.622L99.6051 40.596L99.7851 42ZM97.7151 40.506C96.8331 40.506 96.2571 40.11 96.2571 39.264C96.2571 38.004 97.5891 37.554 99.5691 37.698V38.472C99.5691 39.804 98.7231 40.506 97.7151 40.506ZM107.08 28.77H104.596V38.922C104.596 39.552 104.596 40.002 104.632 40.434C104.686 41.676 105.46 42.126 106.684 42.126C107.242 42.126 107.728 42.108 108.214 42.054V40.344C107.368 40.398 107.152 40.236 107.098 39.75C107.08 39.498 107.08 39.246 107.08 38.868V28.77ZM119.105 32.424H116.387L114.047 40.11L111.671 32.424H108.899L112.805 42.45L112.679 42.756C112.283 43.71 111.725 44.034 110.879 44.034C110.627 44.034 110.393 44.034 110.141 43.998V45.708C110.501 45.762 110.807 45.78 111.257 45.78C113.201 45.78 114.245 44.952 115.253 42.36L119.105 32.424ZM123.518 34.134H125.498V32.496H123.518V30.138H121.034V32.496H119.63V34.134H121.034V38.85C121.034 39.39 121.034 39.804 121.07 40.236C121.178 41.586 121.844 42.198 123.698 42.198C124.256 42.198 124.778 42.162 125.336 42.072V40.452C123.95 40.56 123.608 40.344 123.536 39.408C123.518 39.156 123.518 38.886 123.518 38.562V34.134ZM128.631 28.86C127.821 28.86 127.263 29.4 127.263 30.174C127.263 30.966 127.821 31.488 128.631 31.488C129.441 31.488 129.999 30.966 129.999 30.174C129.999 29.4 129.441 28.86 128.631 28.86ZM129.873 42V32.424H127.389V42H129.873ZM136.648 32.172C134.02 32.172 131.86 34.008 131.86 37.284C131.86 40.596 133.822 42.252 136.432 42.252C138.826 42.252 140.59 41.046 141.004 38.688H138.52C138.268 39.894 137.548 40.506 136.576 40.506C135.334 40.506 134.434 39.498 134.434 37.122C134.434 34.944 135.334 33.918 136.594 33.918C137.62 33.918 138.34 34.494 138.574 35.88H141.022C140.842 33.756 139.24 32.172 136.648 32.172ZM146.356 32.172C144.07 32.172 142.558 33.288 142.558 35.124C142.558 36.78 143.782 37.554 145.564 38.004C147.22 38.418 147.85 38.832 147.85 39.57C147.85 40.272 147.238 40.614 146.446 40.614C145.582 40.614 144.862 40.128 144.664 39.084H142.18C142.45 41.244 144.088 42.252 146.41 42.252C148.606 42.252 150.352 41.316 150.352 39.39C150.352 37.626 149.2 36.834 147.238 36.33C145.654 35.934 145.06 35.556 145.06 34.836C145.06 34.242 145.456 33.81 146.194 33.81C147.022 33.81 147.508 34.314 147.67 35.196H150.154C149.938 33.45 148.642 32.172 146.356 32.172Z" fill="black"/>
<path d="M27.768 53.552C26.244 53.552 25.008 54.452 25.008 55.88C25.008 57.248 26.028 57.836 27.492 58.172C28.944 58.508 29.52 58.964 29.52 59.972C29.52 60.836 28.752 61.352 27.804 61.352C26.724 61.352 25.968 60.74 25.728 59.648H24.624C24.804 61.244 25.956 62.168 27.78 62.168C29.376 62.168 30.624 61.232 30.624 59.78C30.624 58.376 29.712 57.632 27.888 57.212C26.628 56.924 26.112 56.54 26.112 55.64C26.112 54.776 26.808 54.368 27.684 54.368C28.728 54.368 29.34 54.968 29.436 56.012H30.54C30.384 54.596 29.484 53.552 27.768 53.552ZM37.3525 58.64C37.3525 56.78 36.3805 55.472 34.6285 55.472C32.8885 55.472 31.6045 56.78 31.6045 58.844C31.6045 61.088 32.8405 62.168 34.4965 62.168C35.8045 62.168 37.0165 61.484 37.2685 59.948H36.1885C36.0445 60.86 35.3725 61.376 34.5445 61.376C33.6085 61.376 32.8165 60.812 32.7205 59.132H37.3285C37.3525 58.904 37.3525 58.736 37.3525 58.64ZM34.6045 56.264C35.6485 56.264 36.2125 57.02 36.3085 58.34H32.7325C32.8525 56.984 33.5965 56.264 34.6045 56.264ZM44.1635 58.64C44.1635 56.78 43.1915 55.472 41.4395 55.472C39.6995 55.472 38.4155 56.78 38.4155 58.844C38.4155 61.088 39.6515 62.168 41.3075 62.168C42.6155 62.168 43.8275 61.484 44.0795 59.948H42.9995C42.8555 60.86 42.1835 61.376 41.3555 61.376C40.4195 61.376 39.6275 60.812 39.5315 59.132H44.1395C44.1635 58.904 44.1635 58.736 44.1635 58.64ZM41.4155 56.264C42.4595 56.264 43.0235 57.02 43.1195 58.34H39.5435C39.6635 56.984 40.4075 56.264 41.4155 56.264ZM49.0852 53.552C48.7132 53.552 48.4252 53.84 48.4252 54.212C48.4252 54.584 48.7132 54.872 49.0852 54.872C49.4572 54.872 49.7452 54.584 49.7452 54.212C49.7452 53.84 49.4572 53.552 49.0852 53.552ZM49.6012 62V55.64H48.5692V62H49.6012ZM57.0056 57.332C56.9096 56.216 56.1296 55.472 54.7376 55.472C54.0896 55.472 53.6216 55.58 53.0816 56L52.6856 56.732V55.64H51.6536V62H52.6856V59.204C52.6856 57.032 53.5256 56.288 54.5216 56.288C55.5056 56.288 55.9136 56.84 55.9736 57.584C55.9976 57.908 55.9976 58.172 55.9976 58.496V62H57.0296V58.424C57.0296 57.908 57.0296 57.656 57.0056 57.332ZM60.8399 55.472C59.5319 55.472 58.6439 56.168 58.6439 57.332C58.6439 58.448 59.5559 58.916 60.6959 59.228C61.7639 59.516 62.1959 59.84 62.1959 60.452C62.1959 61.064 61.6439 61.376 60.9599 61.376C60.2279 61.376 59.6399 61.052 59.4719 60.128H58.3919C58.5839 61.568 59.5799 62.168 60.8879 62.168C62.2319 62.168 63.2519 61.568 63.2519 60.368C63.2519 59.288 62.5559 58.712 61.0919 58.328C60.2279 58.1 59.6999 57.848 59.6999 57.212C59.6999 56.66 60.0359 56.264 60.7559 56.264C61.4999 56.264 61.9559 56.708 62.0999 57.452H63.1799C63.0479 56.288 62.2679 55.472 60.8399 55.472ZM65.2407 53.552C64.8687 53.552 64.5807 53.84 64.5807 54.212C64.5807 54.584 64.8687 54.872 65.2407 54.872C65.6127 54.872 65.9007 54.584 65.9007 54.212C65.9007 53.84 65.6127 53.552 65.2407 53.552ZM65.7567 62V55.64H64.7247V62H65.7567ZM73.3651 55.64H72.3331V56.516L71.9131 55.892C71.5891 55.628 70.9171 55.472 70.3891 55.472C68.7451 55.472 67.2811 56.564 67.2811 58.916C67.2811 60.776 68.3131 62.168 70.1731 62.168C70.8211 62.168 71.4931 61.964 71.8531 61.664L72.3331 60.98V61.088C72.3331 61.28 72.3331 61.484 72.3211 61.784C72.2731 63.008 71.5891 63.728 70.3291 63.728C69.2371 63.728 68.6131 63.188 68.5291 62.408L68.5171 62.3H67.4731L67.4851 62.42C67.6171 63.764 68.5171 64.52 70.3291 64.52C72.1651 64.52 73.2931 63.536 73.3531 61.676C73.3651 61.328 73.3651 60.836 73.3651 60.44V55.64ZM70.3291 61.376C69.0571 61.376 68.4091 60.236 68.4091 58.796C68.4091 57.128 69.2731 56.264 70.3891 56.264C71.3011 56.264 72.3331 56.888 72.3331 58.532V58.88C72.3331 60.704 71.3851 61.376 70.3291 61.376ZM80.7689 57.332C80.6729 56.216 79.8929 55.472 78.5009 55.472C77.8529 55.472 77.3849 55.58 76.8449 56L76.4489 56.732V53.12H75.4169V62H76.4489V59.204C76.4489 57.032 77.2889 56.312 78.2849 56.288C79.2689 56.264 79.6769 56.84 79.7369 57.584C79.7609 57.908 79.7609 58.172 79.7609 58.496V62H80.7929V58.424C80.7929 57.908 80.7929 57.656 80.7689 57.332ZM83.9912 56.48H85.1792V55.688H83.9912V54.212H82.9592V55.688H82.1072V56.48H82.9592V60.188C82.9592 60.548 82.9592 60.812 82.9712 60.98C83.0312 61.772 83.4392 62.096 84.2312 62.096C84.5192 62.096 84.8072 62.084 85.1072 62.036V61.28C84.3032 61.376 84.0512 61.244 84.0032 60.632C83.9912 60.464 83.9912 60.356 83.9912 60.14V56.48ZM92.1847 55.472C90.0247 55.472 89.0287 57.02 89.0287 58.82C89.0287 60.608 90.0247 62.168 92.1847 62.168C94.3447 62.168 95.3407 60.608 95.3407 58.82C95.3407 57.02 94.3447 55.472 92.1847 55.472ZM92.1847 61.376C90.9007 61.376 90.1567 60.308 90.1567 58.82C90.1567 57.32 90.9007 56.264 92.1847 56.264C93.4687 56.264 94.2127 57.32 94.2127 58.82C94.2127 60.308 93.4687 61.376 92.1847 61.376ZM102.165 57.332C102.069 56.216 101.289 55.472 99.897 55.472C99.249 55.472 98.781 55.58 98.241 56L97.845 56.732V55.64H96.813V62H97.845V59.204C97.845 57.032 98.685 56.288 99.681 56.288C100.665 56.288 101.073 56.84 101.133 57.584C101.157 57.908 101.157 58.172 101.157 58.496V62H102.189V58.424C102.189 57.908 102.189 57.656 102.165 57.332ZM112.318 57.332C112.222 56.216 111.442 55.472 110.05 55.472C109.402 55.472 108.934 55.58 108.394 56L107.998 56.732V53.12H106.966V62H107.998V59.204C107.998 57.032 108.838 56.312 109.834 56.288C110.818 56.264 111.226 56.84 111.286 57.584C111.31 57.908 111.31 58.172 111.31 58.496V62H112.342V58.424C112.342 57.908 112.342 57.656 112.318 57.332ZM116.932 55.472C114.772 55.472 113.776 57.02 113.776 58.82C113.776 60.608 114.772 62.168 116.932 62.168C119.092 62.168 120.088 60.608 120.088 58.82C120.088 57.02 119.092 55.472 116.932 55.472ZM116.932 61.376C115.648 61.376 114.904 60.308 114.904 58.82C114.904 57.32 115.648 56.264 116.932 56.264C118.216 56.264 118.96 57.32 118.96 58.82C118.96 60.308 118.216 61.376 116.932 61.376ZM130.021 55.64H128.917L127.441 60.98L126.025 55.64H124.741L123.349 61.016L121.873 55.64H120.685L122.713 62H123.937L125.353 56.648L126.769 62H127.993L130.021 55.64ZM139.218 55.64H138.09L136.206 61.232L134.31 55.64H133.146L135.678 62.324L135.594 62.552C135.27 63.392 134.85 63.668 134.214 63.668C134.106 63.668 133.998 63.668 133.842 63.656V64.496C133.998 64.52 134.142 64.52 134.37 64.52C135.402 64.52 136.086 63.884 136.602 62.54L139.218 55.64ZM142.934 55.472C140.774 55.472 139.778 57.02 139.778 58.82C139.778 60.608 140.774 62.168 142.934 62.168C145.094 62.168 146.09 60.608 146.09 58.82C146.09 57.02 145.094 55.472 142.934 55.472ZM142.934 61.376C141.65 61.376 140.906 60.308 140.906 58.82C140.906 57.32 141.65 56.264 142.934 56.264C144.218 56.264 144.962 57.32 144.962 58.82C144.962 60.308 144.218 61.376 142.934 61.376ZM152.842 55.64H151.81V58.436C151.81 60.608 151.018 61.352 150.022 61.352C149.158 61.352 148.642 60.86 148.546 60.14C148.51 59.816 148.498 59.468 148.498 59.264V55.64H147.466V59.456C147.466 59.972 147.478 60.224 147.526 60.548C147.67 61.424 148.438 62.168 149.758 62.168C150.406 62.168 150.874 62.06 151.414 61.664L151.81 60.92V62H152.842V55.64ZM157.385 55.496C157.085 55.496 156.761 55.604 156.497 55.784L155.921 56.636V55.64H154.889V62H155.921V58.376C155.921 56.924 156.737 56.288 157.817 56.36V55.58C157.697 55.52 157.553 55.496 157.385 55.496ZM165.082 55.472C164.434 55.472 163.762 55.676 163.402 55.976L162.922 56.66V53.18H161.89V62H162.922V61.124L163.342 61.748C163.666 62.012 164.338 62.168 164.866 62.168C166.51 62.168 167.974 61.076 167.974 58.724C167.974 56.864 166.942 55.472 165.082 55.472ZM164.866 61.376C163.954 61.376 162.922 60.752 162.922 59.108V58.76C162.922 56.936 163.87 56.264 164.926 56.264C166.198 56.264 166.846 57.404 166.846 58.844C166.846 60.512 165.982 61.376 164.866 61.376ZM174.73 55.64H173.699V58.436C173.699 60.608 172.907 61.352 171.911 61.352C171.047 61.352 170.531 60.86 170.435 60.14C170.399 59.816 170.387 59.468 170.387 59.264V55.64H169.354V59.456C169.354 59.972 169.367 60.224 169.415 60.548C169.559 61.424 170.326 62.168 171.646 62.168C172.295 62.168 172.763 62.06 173.303 61.664L173.699 60.92V62H174.73V55.64ZM178.625 55.472C177.317 55.472 176.429 56.168 176.429 57.332C176.429 58.448 177.341 58.916 178.481 59.228C179.549 59.516 179.981 59.84 179.981 60.452C179.981 61.064 179.429 61.376 178.745 61.376C178.013 61.376 177.425 61.052 177.257 60.128H176.177C176.369 61.568 177.365 62.168 178.673 62.168C180.017 62.168 181.037 61.568 181.037 60.368C181.037 59.288 180.341 58.712 178.877 58.328C178.013 58.1 177.485 57.848 177.485 57.212C177.485 56.66 177.821 56.264 178.541 56.264C179.285 56.264 179.741 56.708 179.885 57.452H180.965C180.833 56.288 180.053 55.472 178.625 55.472ZM183.026 53.552C182.654 53.552 182.366 53.84 182.366 54.212C182.366 54.584 182.654 54.872 183.026 54.872C183.398 54.872 183.686 54.584 183.686 54.212C183.686 53.84 183.398 53.552 183.026 53.552ZM183.542 62V55.64H182.51V62H183.542ZM190.946 57.332C190.85 56.216 190.07 55.472 188.678 55.472C188.03 55.472 187.562 55.58 187.022 56L186.626 56.732V55.64H185.594V62H186.626V59.204C186.626 57.032 187.466 56.288 188.462 56.288C189.446 56.288 189.854 56.84 189.914 57.584C189.938 57.908 189.938 58.172 189.938 58.496V62H190.97V58.424C190.97 57.908 190.97 57.656 190.946 57.332ZM198.153 58.64C198.153 56.78 197.181 55.472 195.429 55.472C193.689 55.472 192.405 56.78 192.405 58.844C192.405 61.088 193.641 62.168 195.297 62.168C196.605 62.168 197.817 61.484 198.069 59.948H196.989C196.845 60.86 196.173 61.376 195.345 61.376C194.409 61.376 193.617 60.812 193.521 59.132H198.129C198.153 58.904 198.153 58.736 198.153 58.64ZM195.405 56.264C196.449 56.264 197.013 57.02 197.109 58.34H193.533C193.653 56.984 194.397 56.264 195.405 56.264ZM201.591 55.472C200.283 55.472 199.395 56.168 199.395 57.332C199.395 58.448 200.307 58.916 201.447 59.228C202.515 59.516 202.947 59.84 202.947 60.452C202.947 61.064 202.395 61.376 201.711 61.376C200.979 61.376 200.391 61.052 200.223 60.128H199.143C199.335 61.568 200.331 62.168 201.639 62.168C202.983 62.168 204.003 61.568 204.003 60.368C204.003 59.288 203.307 58.712 201.843 58.328C200.979 58.1 200.451 57.848 200.451 57.212C200.451 56.66 200.787 56.264 201.507 56.264C202.251 56.264 202.707 56.708 202.851 57.452H203.931C203.799 56.288 203.019 55.472 201.591 55.472ZM207.324 55.472C206.016 55.472 205.128 56.168 205.128 57.332C205.128 58.448 206.04 58.916 207.18 59.228C208.248 59.516 208.68 59.84 208.68 60.452C208.68 61.064 208.128 61.376 207.444 61.376C206.712 61.376 206.124 61.052 205.956 60.128H204.876C205.068 61.568 206.064 62.168 207.372 62.168C208.716 62.168 209.736 61.568 209.736 60.368C209.736 59.288 209.04 58.712 207.576 58.328C206.712 58.1 206.184 57.848 206.184 57.212C206.184 56.66 206.52 56.264 207.24 56.264C207.984 56.264 208.44 56.708 208.584 57.452H209.664C209.532 56.288 208.752 55.472 207.324 55.472ZM219.376 57.332C219.28 56.216 218.5 55.472 217.108 55.472C216.46 55.472 215.992 55.58 215.452 56L215.056 56.732V53.12H214.024V62H215.056V59.204C215.056 57.032 215.896 56.312 216.892 56.288C217.876 56.264 218.284 56.84 218.344 57.584C218.368 57.908 218.368 58.172 218.368 58.496V62H219.4V58.424C219.4 57.908 219.4 57.656 219.376 57.332ZM225.01 62H226.042C225.946 61.292 225.922 60.86 225.922 60.38V57.992C225.922 57.716 225.91 57.404 225.886 57.152C225.778 56.108 225.142 55.472 223.63 55.472C222.226 55.472 221.278 56.252 221.182 57.608H222.262C222.334 56.732 222.766 56.264 223.63 56.264C224.482 56.264 224.818 56.648 224.866 57.236C224.89 57.476 224.89 57.728 224.89 58.004V58.172H224.482C221.986 58.172 220.906 58.916 220.906 60.356C220.906 61.532 221.806 62.168 222.958 62.168C223.57 62.168 224.122 62.072 224.554 61.772L224.902 61.088L225.01 62ZM223.306 61.376C222.526 61.376 222.034 61.04 222.034 60.272C222.034 59.18 223.138 58.808 224.89 58.94V59.588C224.89 60.74 224.266 61.376 223.306 61.376ZM229.81 55.472C228.502 55.472 227.614 56.168 227.614 57.332C227.614 58.448 228.526 58.916 229.666 59.228C230.734 59.516 231.166 59.84 231.166 60.452C231.166 61.064 230.614 61.376 229.93 61.376C229.198 61.376 228.61 61.052 228.442 60.128H227.362C227.554 61.568 228.55 62.168 229.858 62.168C231.202 62.168 232.222 61.568 232.222 60.368C232.222 59.288 231.526 58.712 230.062 58.328C229.198 58.1 228.67 57.848 228.67 57.212C228.67 56.66 229.006 56.264 229.726 56.264C230.47 56.264 230.926 56.708 231.07 57.452H232.15C232.018 56.288 231.238 55.472 229.81 55.472ZM238.97 55.472C237.374 55.472 235.982 56.684 235.982 58.832C235.982 61.16 237.206 62.168 238.814 62.168C240.23 62.168 241.286 61.448 241.598 59.972H240.518C240.302 60.896 239.714 61.376 238.874 61.376C237.926 61.376 237.11 60.608 237.11 58.76C237.11 57.044 237.95 56.264 238.946 56.264C239.798 56.264 240.35 56.756 240.578 57.776H241.658C241.466 56.384 240.494 55.472 238.97 55.472ZM248.438 57.332C248.342 56.216 247.562 55.472 246.17 55.472C245.522 55.472 245.054 55.58 244.514 56L244.118 56.732V53.12H243.086V62H244.118V59.204C244.118 57.032 244.958 56.312 245.954 56.288C246.938 56.264 247.346 56.84 247.406 57.584C247.43 57.908 247.43 58.172 247.43 58.496V62H248.462V58.424C248.462 57.908 248.462 57.656 248.438 57.332ZM254.073 62H255.105C255.009 61.292 254.985 60.86 254.985 60.38V57.992C254.985 57.716 254.973 57.404 254.949 57.152C254.841 56.108 254.205 55.472 252.693 55.472C251.289 55.472 250.341 56.252 250.245 57.608H251.325C251.397 56.732 251.829 56.264 252.693 56.264C253.545 56.264 253.881 56.648 253.929 57.236C253.953 57.476 253.953 57.728 253.953 58.004V58.172H253.545C251.049 58.172 249.969 58.916 249.969 60.356C249.969 61.532 250.869 62.168 252.021 62.168C252.633 62.168 253.185 62.072 253.617 61.772L253.965 61.088L254.073 62ZM252.369 61.376C251.589 61.376 251.097 61.04 251.097 60.272C251.097 59.18 252.201 58.808 253.953 58.94V59.588C253.953 60.74 253.329 61.376 252.369 61.376ZM262.377 57.332C262.281 56.216 261.501 55.472 260.109 55.472C259.461 55.472 258.993 55.58 258.453 56L258.057 56.732V55.64H257.025V62H258.057V59.204C258.057 57.032 258.897 56.288 259.893 56.288C260.877 56.288 261.285 56.84 261.345 57.584C261.369 57.908 261.369 58.172 261.369 58.496V62H262.401V58.424C262.401 57.908 262.401 57.656 262.377 57.332ZM269.919 55.64H268.887V56.516L268.467 55.892C268.143 55.628 267.471 55.472 266.943 55.472C265.299 55.472 263.835 56.564 263.835 58.916C263.835 60.776 264.867 62.168 266.727 62.168C267.375 62.168 268.047 61.964 268.407 61.664L268.887 60.98V61.088C268.887 61.28 268.887 61.484 268.875 61.784C268.827 63.008 268.143 63.728 266.883 63.728C265.791 63.728 265.167 63.188 265.083 62.408L265.071 62.3H264.027L264.039 62.42C264.171 63.764 265.071 64.52 266.883 64.52C268.719 64.52 269.847 63.536 269.907 61.676C269.919 61.328 269.919 60.836 269.919 60.44V55.64ZM266.883 61.376C265.611 61.376 264.963 60.236 264.963 58.796C264.963 57.128 265.827 56.264 266.943 56.264C267.855 56.264 268.887 56.888 268.887 58.532V58.88C268.887 60.704 267.939 61.376 266.883 61.376ZM277.191 58.64C277.191 56.78 276.219 55.472 274.467 55.472C272.727 55.472 271.443 56.78 271.443 58.844C271.443 61.088 272.679 62.168 274.335 62.168C275.643 62.168 276.855 61.484 277.107 59.948H276.027C275.883 60.86 275.211 61.376 274.383 61.376C273.447 61.376 272.655 60.812 272.559 59.132H277.167C277.191 58.904 277.191 58.736 277.191 58.64ZM274.443 56.264C275.487 56.264 276.051 57.02 276.147 58.34H272.571C272.691 56.984 273.435 56.264 274.443 56.264ZM284.338 53.18H283.306V56.516L282.886 55.892C282.562 55.628 281.89 55.472 281.362 55.472C279.718 55.472 278.254 56.564 278.254 58.916C278.254 60.776 279.286 62.168 281.146 62.168C281.794 62.168 282.466 61.964 282.826 61.664L283.306 60.98V62H284.338V53.18ZM281.302 61.376C280.03 61.376 279.382 60.236 279.382 58.796C279.382 57.128 280.246 56.264 281.362 56.264C282.274 56.264 283.306 56.888 283.306 58.532V58.88C283.306 60.704 282.358 61.376 281.302 61.376ZM291.832 55.472C289.672 55.472 288.676 57.02 288.676 58.82C288.676 60.608 289.672 62.168 291.832 62.168C293.992 62.168 294.988 60.608 294.988 58.82C294.988 57.02 293.992 55.472 291.832 55.472ZM291.832 61.376C290.548 61.376 289.804 60.308 289.804 58.82C289.804 57.32 290.548 56.264 291.832 56.264C293.116 56.264 293.86 57.32 293.86 58.82C293.86 60.308 293.116 61.376 291.832 61.376ZM301.669 55.64H300.577L298.669 61.244L296.725 55.64H295.585L297.997 62H299.257L301.669 55.64ZM307.976 58.64C307.976 56.78 307.004 55.472 305.252 55.472C303.512 55.472 302.228 56.78 302.228 58.844C302.228 61.088 303.464 62.168 305.12 62.168C306.428 62.168 307.64 61.484 307.892 59.948H306.812C306.668 60.86 305.996 61.376 305.168 61.376C304.232 61.376 303.44 60.812 303.344 59.132H307.952C307.976 58.904 307.976 58.736 307.976 58.64ZM305.228 56.264C306.272 56.264 306.836 57.02 306.932 58.34H303.356C303.476 56.984 304.22 56.264 305.228 56.264ZM312.063 55.496C311.763 55.496 311.439 55.604 311.175 55.784L310.599 56.636V55.64H309.567V62H310.599V58.376C310.599 56.924 311.415 56.288 312.495 56.36V55.58C312.375 55.52 312.231 55.496 312.063 55.496ZM317.804 56.48H318.992V55.688H317.804V54.212H316.772V55.688H315.92V56.48H316.772V60.188C316.772 60.548 316.772 60.812 316.784 60.98C316.844 61.772 317.252 62.096 318.044 62.096C318.332 62.096 318.62 62.084 318.92 62.036V61.28C318.116 61.376 317.864 61.244 317.816 60.632C317.804 60.464 317.804 60.356 317.804 60.14V56.48ZM321.07 53.552C320.698 53.552 320.41 53.84 320.41 54.212C320.41 54.584 320.698 54.872 321.07 54.872C321.442 54.872 321.73 54.584 321.73 54.212C321.73 53.84 321.442 53.552 321.07 53.552ZM321.586 62V55.64H320.554V62H321.586ZM332.099 57.02C331.955 56.144 331.307 55.472 330.167 55.472C329.603 55.472 329.147 55.58 328.823 55.844L328.259 56.66C328.019 55.964 327.395 55.472 326.423 55.472C325.859 55.472 325.403 55.58 325.079 55.844L324.671 56.564V55.64H323.639V62H324.671V58.856C324.671 56.924 325.259 56.288 326.063 56.288C326.783 56.288 327.239 56.636 327.335 57.356C327.371 57.68 327.383 58.028 327.383 58.592V62H328.415V58.856C328.415 56.924 329.003 56.288 329.807 56.288C330.527 56.288 330.983 56.636 331.079 57.356C331.115 57.68 331.127 58.028 331.127 58.592V62H332.159V58.112C332.159 57.596 332.147 57.344 332.099 57.02ZM339.349 58.64C339.349 56.78 338.377 55.472 336.625 55.472C334.885 55.472 333.601 56.78 333.601 58.844C333.601 61.088 334.837 62.168 336.493 62.168C337.801 62.168 339.013 61.484 339.265 59.948H338.185C338.041 60.86 337.369 61.376 336.541 61.376C335.605 61.376 334.813 60.812 334.717 59.132H339.325C339.349 58.904 339.349 58.736 339.349 58.64ZM336.601 56.264C337.645 56.264 338.209 57.02 338.305 58.34H334.729C334.849 56.984 335.593 56.264 336.601 56.264Z" fill="#8E8C95"/>
</g>
<g clip-path="url(#clip2)">
<g filter="url(#filter0_d)">
<rect x="312" y="176" width="200" height="173" rx="16" fill="white"/>
</g>
<path d="M364.203 256.572L368.235 252.648C372.879 248.148 374.319 245.916 374.319 242.856C374.319 238.464 371.295 235.584 365.679 235.584C359.847 235.584 356.499 238.572 355.959 243.972L355.923 244.332H361.575L361.611 243.972C361.863 241.164 362.979 239.76 365.175 239.76C367.227 239.76 368.379 241.092 368.379 243.144C368.379 245.52 367.083 247.284 363.591 250.632L355.491 258.444V261H374.103V256.572H364.203ZM381.819 254.952C379.911 254.952 378.543 256.284 378.543 258.228C378.543 260.136 379.911 261.504 381.819 261.504C383.763 261.504 385.095 260.136 385.095 258.228C385.095 256.284 383.763 254.952 381.819 254.952ZM408.842 255.276V250.848H405.782V236.16H399.698L388.322 252.216V255.276H400.13V261H405.782V255.276H408.842ZM400.13 250.848H394.298L398.618 244.764C399.086 244.08 399.59 243.252 400.13 242.316V250.848ZM423.759 244.224C422.355 244.224 421.059 244.476 419.907 245.16L418.791 246.816L419.691 240.552H430.995V236.16H415.047L413.247 250.956H418.467C419.187 249.156 420.303 248.4 422.139 248.4C424.623 248.4 426.063 250.236 426.063 252.864C426.063 255.492 424.659 257.328 422.031 257.328C419.907 257.328 418.791 256.104 418.503 254.124L418.467 253.764H412.815L412.851 254.124C413.391 259.236 416.631 261.504 422.355 261.504C427.323 261.504 432.003 258.444 432.003 252.684C432.003 247.428 428.871 244.224 423.759 244.224ZM447.748 244.332C445.984 244.332 444.652 244.62 443.32 245.7L442.132 247.932C442.312 242.244 443.896 239.832 446.524 239.832C448.288 239.832 449.332 240.732 449.872 242.712L449.944 243.072H455.632L455.596 242.712C455.056 238.392 452.068 235.656 446.848 235.656C440.728 235.656 436.372 240.3 436.372 249.228C436.372 257.724 439.72 261.504 446.2 261.504C451.348 261.504 455.884 258.264 455.884 252.36C455.884 247.932 453.256 244.332 447.748 244.332ZM446.128 257.328C443.824 257.328 442.348 255.528 442.348 252.9C442.348 250.056 444.076 248.508 446.092 248.508C448.612 248.508 449.944 250.344 449.944 253.044C449.944 255.384 448.576 257.328 446.128 257.328Z" fill="#3B3A40"/>
<path fill-rule="evenodd" clip-rule="evenodd" d="M334 254C337.314 254 340 251.314 340 248C340 244.686 337.314 242 334 242C330.686 242 328 244.686 328 248C328 251.314 330.686 254 334 254Z" fill="#1E5579"/>
<path fill-rule="evenodd" clip-rule="evenodd" d="M334 322C337.314 322 340 319.314 340 316C340 312.686 337.314 310 334 310C330.686 310 328 312.686 328 316C328 319.314 330.686 322 334 322Z" fill="#FFD246"/>
<path d="M335.36 203.352L336.56 207H338.464L334.608 195.96H332.336L328.368 207H330.24L331.44 203.352H335.36ZM331.904 201.96L333.44 197.416L334.896 201.96H331.904ZM347.312 198.504H345.568V202.504C345.568 204.968 344.64 205.912 343.408 205.912C342.32 205.912 341.712 205.304 341.584 204.376C341.536 203.944 341.52 203.48 341.52 203.208V198.504H339.776V203.56C339.776 204.248 339.792 204.632 339.856 205.064C340.048 206.232 341.072 207.224 342.832 207.224C343.68 207.224 344.304 207.08 344.976 206.6L345.568 205.544V207H347.312V198.504ZM357.668 198.504H355.908V199.656L355.348 198.808C354.916 198.472 354.036 198.28 353.332 198.28C351.14 198.28 349.22 199.752 349.22 202.856C349.22 205.352 350.644 207.144 353.092 207.144C353.956 207.144 354.788 206.888 355.268 206.504L355.908 205.576V205.752C355.908 206.056 355.908 206.36 355.892 206.728C355.828 208.248 354.948 209.08 353.412 209.08C352.1 209.08 351.316 208.456 351.204 207.544L351.188 207.4H349.46L349.476 207.56C349.652 209.384 350.948 210.408 353.396 210.408C355.956 210.408 357.556 209.112 357.652 206.536C357.668 206.072 357.668 205.416 357.668 204.888V198.504ZM353.444 205.864C351.924 205.864 351.076 204.536 351.076 202.696C351.076 200.584 352.132 199.56 353.524 199.56C354.66 199.56 355.908 200.328 355.908 202.392V202.76C355.908 205.032 354.772 205.864 353.444 205.864ZM366.3 205.592L368.732 203.192C370.668 201.304 371.436 200.28 371.436 198.824C371.436 197.08 370.252 195.72 367.916 195.72C365.58 195.72 364.156 196.984 363.932 199.32L363.916 199.48H365.676L365.692 199.32C365.836 197.864 366.46 197.064 367.724 197.064C368.924 197.064 369.532 197.912 369.532 198.984C369.532 200.04 368.924 200.84 367.532 202.216L363.676 206.104V207H371.372V205.592H366.3ZM376.209 205.592L378.641 203.192C380.577 201.304 381.345 200.28 381.345 198.824C381.345 197.08 380.161 195.72 377.825 195.72C375.489 195.72 374.065 196.984 373.841 199.32L373.825 199.48H375.585L375.601 199.32C375.745 197.864 376.369 197.064 377.633 197.064C378.833 197.064 379.441 197.912 379.441 198.984C379.441 200.04 378.833 200.84 377.441 202.216L373.585 206.104V207H381.281V205.592H376.209ZM385.094 205.272V205.112H383.318L382.054 208.936H383.59L385.094 205.272ZM393.734 205.592L396.166 203.192C398.102 201.304 398.87 200.28 398.87 198.824C398.87 197.08 397.686 195.72 395.35 195.72C393.014 195.72 391.59 196.984 391.366 199.32L391.35 199.48H393.11L393.126 199.32C393.27 197.864 393.894 197.064 395.158 197.064C396.358 197.064 396.966 197.912 396.966 198.984C396.966 200.04 396.358 200.84 394.966 202.216L391.11 206.104V207H398.806V205.592H393.734ZM404.859 195.736C401.787 195.736 400.731 198.136 400.731 201.48C400.731 204.792 401.787 207.224 404.859 207.224C407.947 207.224 408.987 204.792 408.987 201.48C408.987 198.136 407.947 195.736 404.859 195.736ZM404.859 205.88C403.291 205.88 402.635 204.312 402.635 201.48C402.635 198.616 403.291 197.08 404.859 197.08C406.443 197.08 407.083 198.616 407.083 201.48C407.083 204.312 406.443 205.88 404.859 205.88ZM416.881 195.96H415.905C415.409 195.96 414.945 196.072 414.433 196.376L412.001 197.864V199.592L415.121 197.8V207H416.881V195.96ZM424.694 195.736C422.438 195.736 420.662 197.272 420.662 199.72C420.662 201.832 421.958 203.4 424.31 203.4C425.11 203.4 425.718 203.208 426.31 202.728L426.902 201.736C426.79 204.712 425.862 205.88 424.486 205.88C423.462 205.88 422.87 205.32 422.63 204.184L422.598 204.024H420.774L420.79 204.184C420.966 206.04 422.31 207.224 424.358 207.224C426.79 207.224 428.758 205.32 428.758 201.032C428.758 197.32 427.302 195.736 424.694 195.736ZM424.71 202.056C423.222 202.056 422.566 200.92 422.566 199.512C422.566 198.088 423.43 197.08 424.71 197.08C425.974 197.08 426.806 198.136 426.806 199.544C426.806 201.192 425.846 202.056 424.71 202.056Z" fill="#64626A"/>
<path d="M358.912 309.96H357.936C357.44 309.96 356.976 310.072 356.464 310.376L354.032 311.864V313.592L357.152 311.8V321H358.912V309.96ZM364.469 319.272V319.112H362.693L361.429 322.936H362.965L364.469 319.272ZM369.512 319.592L371.944 317.192C373.88 315.304 374.648 314.28 374.648 312.824C374.648 311.08 373.464 309.72 371.128 309.72C368.792 309.72 367.368 310.984 367.144 313.32L367.128 313.48H368.888L368.904 313.32C369.048 311.864 369.672 311.064 370.936 311.064C372.136 311.064 372.744 311.912 372.744 312.984C372.744 314.04 372.136 314.84 370.744 316.216L366.888 320.104V321H374.584V319.592H369.512ZM382.605 315.16C383.614 314.808 384.429 313.992 384.429 312.744C384.429 310.92 383.037 309.736 380.749 309.736C378.477 309.736 377.069 310.92 377.069 312.744C377.069 313.976 377.773 314.792 378.749 315.16C377.581 315.528 376.573 316.52 376.573 317.896C376.573 320.312 378.381 321.24 380.637 321.24C382.734 321.24 384.717 320.312 384.717 317.896C384.717 316.52 383.758 315.528 382.605 315.16ZM380.749 311.08C381.965 311.08 382.589 311.832 382.589 312.808C382.589 313.848 381.933 314.584 380.734 314.584C379.533 314.584 378.909 313.848 378.909 312.808C378.909 311.832 379.549 311.08 380.749 311.08ZM380.669 319.896C379.213 319.896 378.461 319.08 378.461 317.912C378.461 316.824 379.165 315.928 380.654 315.928C382.174 315.928 382.813 316.84 382.813 317.912C382.813 319.08 382.141 319.896 380.669 319.896ZM392.323 315.144C393.571 314.792 394.323 313.848 394.323 312.568C394.323 310.936 393.059 309.736 390.851 309.736C388.467 309.736 387.091 311.08 386.899 313.048L386.883 313.208H388.627L388.643 313.048C388.771 311.784 389.571 311.08 390.659 311.08C391.731 311.08 392.419 311.768 392.419 312.776C392.419 314.008 391.507 314.728 390.259 314.744L389.939 314.76V316.056H390.259C391.891 316.072 392.675 316.744 392.675 317.96C392.675 319.144 391.795 319.88 390.531 319.88C389.283 319.88 388.355 319.192 388.195 317.832L388.179 317.672H386.419L386.435 317.832C386.675 320.168 388.179 321.224 390.451 321.224C392.755 321.224 394.579 319.944 394.579 317.88C394.579 316.424 393.747 315.496 392.323 315.144Z" fill="#64626A"/>
<path d="M360.039 286.02H354.817V282.66H359.479V281.68H354.817V278.32H359.899V277.34H353.613V287H360.039V286.02ZM367.973 281.554C367.861 280.252 366.951 279.384 365.327 279.384C364.571 279.384 364.025 279.51 363.395 280L362.933 280.854V279.58H361.729V287H362.933V283.738C362.933 281.204 363.913 280.336 365.075 280.336C366.223 280.336 366.699 280.98 366.769 281.848C366.797 282.226 366.797 282.534 366.797 282.912V287H368.001V282.828C368.001 282.226 368.001 281.932 367.973 281.554ZM376.772 279.58H375.568V280.602L375.078 279.874C374.7 279.566 373.916 279.384 373.3 279.384C371.382 279.384 369.674 280.658 369.674 283.402C369.674 285.572 370.878 287.196 373.048 287.196C373.804 287.196 374.588 286.958 375.008 286.608L375.568 285.81V285.936C375.568 286.16 375.568 286.398 375.554 286.748C375.498 288.176 374.7 289.016 373.23 289.016C371.956 289.016 371.228 288.386 371.13 287.476L371.116 287.35H369.898L369.912 287.49C370.066 289.058 371.116 289.94 373.23 289.94C375.372 289.94 376.688 288.792 376.758 286.622C376.772 286.216 376.772 285.642 376.772 285.18V279.58ZM373.23 286.272C371.746 286.272 370.99 284.942 370.99 283.262C370.99 281.316 371.998 280.308 373.3 280.308C374.364 280.308 375.568 281.036 375.568 282.954V283.36C375.568 285.488 374.462 286.272 373.23 286.272ZM383.422 287H384.626C384.514 286.174 384.486 285.67 384.486 285.11V282.324C384.486 282.002 384.472 281.638 384.444 281.344C384.318 280.126 383.576 279.384 381.812 279.384C380.174 279.384 379.068 280.294 378.956 281.876H380.216C380.3 280.854 380.804 280.308 381.812 280.308C382.806 280.308 383.198 280.756 383.254 281.442C383.282 281.722 383.282 282.016 383.282 282.338V282.534H382.806C379.894 282.534 378.634 283.402 378.634 285.082C378.634 286.454 379.684 287.196 381.028 287.196C381.742 287.196 382.386 287.084 382.89 286.734L383.296 285.936L383.422 287ZM381.434 286.272C380.524 286.272 379.95 285.88 379.95 284.984C379.95 283.71 381.238 283.276 383.282 283.43V284.186C383.282 285.53 382.554 286.272 381.434 286.272ZM393.348 279.58H392.144V280.602L391.654 279.874C391.276 279.566 390.492 279.384 389.876 279.384C387.958 279.384 386.25 280.658 386.25 283.402C386.25 285.572 387.454 287.196 389.624 287.196C390.38 287.196 391.164 286.958 391.584 286.608L392.144 285.81V285.936C392.144 286.16 392.144 286.398 392.13 286.748C392.074 288.176 391.276 289.016 389.806 289.016C388.532 289.016 387.804 288.386 387.706 287.476L387.692 287.35H386.474L386.488 287.49C386.642 289.058 387.692 289.94 389.806 289.94C391.948 289.94 393.264 288.792 393.334 286.622C393.348 286.216 393.348 285.642 393.348 285.18V279.58ZM389.806 286.272C388.322 286.272 387.566 284.942 387.566 283.262C387.566 281.316 388.574 280.308 389.876 280.308C390.94 280.308 392.144 281.036 392.144 282.954V283.36C392.144 285.488 391.038 286.272 389.806 286.272ZM401.831 283.08C401.831 280.91 400.697 279.384 398.653 279.384C396.623 279.384 395.125 280.91 395.125 283.318C395.125 285.936 396.567 287.196 398.499 287.196C400.025 287.196 401.439 286.398 401.733 284.606H400.473C400.305 285.67 399.521 286.272 398.555 286.272C397.463 286.272 396.539 285.614 396.427 283.654H401.803C401.831 283.388 401.831 283.192 401.831 283.08ZM398.625 280.308C399.843 280.308 400.501 281.19 400.613 282.73H396.441C396.581 281.148 397.449 280.308 398.625 280.308ZM413.558 281.19C413.39 280.168 412.634 279.384 411.304 279.384C410.646 279.384 410.114 279.51 409.736 279.818L409.078 280.77C408.798 279.958 408.07 279.384 406.936 279.384C406.278 279.384 405.746 279.51 405.368 279.818L404.892 280.658V279.58H403.688V287H404.892V283.332C404.892 281.078 405.578 280.336 406.516 280.336C407.356 280.336 407.888 280.742 408 281.582C408.042 281.96 408.056 282.366 408.056 283.024V287H409.26V283.332C409.26 281.078 409.946 280.336 410.884 280.336C411.724 280.336 412.256 280.742 412.368 281.582C412.41 281.96 412.424 282.366 412.424 283.024V287H413.628V282.464C413.628 281.862 413.614 281.568 413.558 281.19ZM422.017 283.08C422.017 280.91 420.883 279.384 418.839 279.384C416.809 279.384 415.311 280.91 415.311 283.318C415.311 285.936 416.753 287.196 418.685 287.196C420.211 287.196 421.625 286.398 421.919 284.606H420.659C420.491 285.67 419.707 286.272 418.741 286.272C417.649 286.272 416.725 285.614 416.613 283.654H421.989C422.017 283.388 422.017 283.192 422.017 283.08ZM418.811 280.308C420.029 280.308 420.687 281.19 420.799 282.73H416.627C416.767 281.148 417.635 280.308 418.811 280.308ZM430.117 281.554C430.005 280.252 429.095 279.384 427.471 279.384C426.715 279.384 426.169 279.51 425.539 280L425.077 280.854V279.58H423.873V287H425.077V283.738C425.077 281.204 426.057 280.336 427.219 280.336C428.367 280.336 428.843 280.98 428.913 281.848C428.941 282.226 428.941 282.534 428.941 282.912V287H430.145V282.828C430.145 282.226 430.145 281.932 430.117 281.554ZM433.876 280.56H435.262V279.636H433.876V277.914H432.672V279.636H431.678V280.56H432.672V284.886C432.672 285.306 432.672 285.614 432.686 285.81C432.756 286.734 433.232 287.112 434.156 287.112C434.492 287.112 434.828 287.098 435.178 287.042V286.16C434.24 286.272 433.946 286.118 433.89 285.404C433.876 285.208 433.876 285.082 433.876 284.83V280.56Z" fill="#8E8C95"/>
<path d="M409.982 319.466C409.898 318.5 409.52 317.618 408.736 317.254C409.632 316.974 410.458 316.246 410.458 314.972C410.458 313.348 409.45 312.578 408.05 312.396C407.616 312.34 407.28 312.34 406.79 312.34H403.626V322H404.83V317.842H406.65C406.874 317.842 407.112 317.842 407.336 317.856C408.288 317.926 408.666 318.584 408.778 319.578C408.904 320.768 409.03 321.384 409.296 322H410.626C410.234 321.482 410.094 320.726 409.982 319.466ZM404.83 316.862V313.32H406.79C407.224 313.32 407.49 313.334 407.756 313.376C408.652 313.516 409.17 314.006 409.17 315.084C409.17 316.176 408.512 316.75 407.616 316.834C407.35 316.862 407.112 316.862 406.678 316.862H404.83ZM418.282 318.08C418.282 315.91 417.148 314.384 415.104 314.384C413.074 314.384 411.576 315.91 411.576 318.318C411.576 320.936 413.018 322.196 414.95 322.196C416.476 322.196 417.89 321.398 418.184 319.606H416.924C416.756 320.67 415.972 321.272 415.006 321.272C413.914 321.272 412.99 320.614 412.878 318.654H418.254C418.282 318.388 418.282 318.192 418.282 318.08ZM415.076 315.308C416.294 315.308 416.952 316.19 417.064 317.73H412.892C413.032 316.148 413.9 315.308 415.076 315.308ZM424.395 322H425.599C425.487 321.174 425.459 320.67 425.459 320.11V317.324C425.459 317.002 425.445 316.638 425.417 316.344C425.291 315.126 424.549 314.384 422.785 314.384C421.147 314.384 420.041 315.294 419.929 316.876H421.189C421.273 315.854 421.777 315.308 422.785 315.308C423.779 315.308 424.171 315.756 424.227 316.442C424.255 316.722 424.255 317.016 424.255 317.338V317.534H423.779C420.867 317.534 419.607 318.402 419.607 320.082C419.607 321.454 420.657 322.196 422.001 322.196C422.715 322.196 423.359 322.084 423.863 321.734L424.269 320.936L424.395 322ZM422.407 321.272C421.497 321.272 420.923 320.88 420.923 319.984C420.923 318.71 422.211 318.276 424.255 318.43V319.186C424.255 320.53 423.527 321.272 422.407 321.272ZM430.709 314.384C428.847 314.384 427.223 315.798 427.223 318.304C427.223 321.02 428.651 322.196 430.527 322.196C432.179 322.196 433.411 321.356 433.775 319.634H432.515C432.263 320.712 431.577 321.272 430.597 321.272C429.491 321.272 428.539 320.376 428.539 318.22C428.539 316.218 429.519 315.308 430.681 315.308C431.675 315.308 432.319 315.882 432.585 317.072H433.845C433.621 315.448 432.487 314.384 430.709 314.384ZM441.755 316.554C441.643 315.252 440.733 314.384 439.109 314.384C438.353 314.384 437.807 314.51 437.177 315L436.715 315.854V311.64H435.511V322H436.715V318.738C436.715 316.204 437.695 315.364 438.857 315.336C440.005 315.308 440.481 315.98 440.551 316.848C440.579 317.226 440.579 317.534 440.579 317.912V322H441.783V317.828C441.783 317.226 441.783 316.932 441.755 316.554Z" fill="#8E8C95"/>
</g>
<defs>
<filter id="filter0_d" x="232" y="126" width="360" height="333" filterUnits="userSpaceOnUse" color-interpolation-filters="sRGB">
<feFlood flood-opacity="0" result="BackgroundImageFix"/>
<feColorMatrix in="SourceAlpha" type="matrix" values="0 0 0 0 0 0 0 0 0 0 0 0 0 0 0 0 0 0 127 0"/>
<feOffset dy="30"/>
<feGaussianBlur stdDeviation="40"/>
<feColorMatrix type="matrix" values="0 0 0 0 0 0 0 0 0 0 0 0 0 0 0 0 0 0 0.1 0"/>
<feBlend mode="normal" in2="BackgroundImageFix" result="effect1_dropShadow"/>
<feBlend mode="normal" in="SourceGraphic" in2="effect1_dropShadow" result="shape"/>
</filter>
<linearGradient id="paint0_linear" x1="187.5" y1="204" x2="187.5" y2="408" gradientUnits="userSpaceOnUse">
<stop stop-color="white"/>
<stop offset="1" stop-color="#F5F6F9"/>
</linearGradient>
<clipPath id="clip0">
<rect width="750" height="408" fill="white"/>
</clipPath>
<clipPath id="clip1">
<rect width="124" height="32" fill="white" transform="translate(602 34)"/>
</clipPath>
<clipPath id="clip2">
<rect width="200" height="173" fill="white" transform="translate(312 176)"/>
</clipPath>
</defs>
</svg>
