<svg width="64" height="64" viewBox="0 0 64 64" fill="none" xmlns="http://www.w3.org/2000/svg">
<rect width="64" height="64" rx="32" fill="#FFEDB6"/>
<path fill-rule="evenodd" clip-rule="evenodd" d="M46.2174 37.5652C46.5304 30.2539 41.4522 29.913 40.3043 29.913H34.3913C32.4991 29.9478 31.6922 28.6052 32.5617 26.8661L33.7304 24.7791C35.4835 21.7043 35.1496 17.8643 31.247 16L21.8696 29.913H17L18.7809 40.7652C19.2911 44.8568 22.7415 47.9449 26.8643 48H39.4209C40.5061 48 45.9322 43.9235 46.2174 37.5652Z" fill="white"/>
<path fill-rule="evenodd" clip-rule="evenodd" d="M21.337 28.913L30.4177 15.4411C30.6947 15.0302 31.2309 14.8841 31.678 15.0977C35.8495 17.0905 36.8106 21.3956 34.6029 25.2677L33.4562 27.3133C32.9175 28.3906 33.2439 28.934 34.3913 28.913L40.3707 28.9134C41.7508 28.9267 43.1911 29.2817 44.4737 30.2454C46.3608 31.6635 47.3671 34.0897 47.2164 37.61C46.9651 43.2122 42.0902 49 39.4209 49L26.851 48.9999C22.2288 48.9381 18.3606 45.476 17.7941 40.9272L16.0132 30.075C15.9133 29.4662 16.3831 28.913 17 28.913L21.337 28.913ZM31.6401 17.3709L31.562 17.32L22.6988 30.4719C22.5129 30.7477 22.2021 30.913 21.8696 30.913L18.177 30.913L19.7732 40.6415C20.2115 44.1558 23.1176 46.8278 26.6191 46.9926L26.8643 47H39.4209C39.6867 47 41.1735 45.9247 42.3543 44.5227C44.0353 42.527 45.1017 40.1211 45.2183 37.5224C45.3421 34.63 44.6009 32.8427 43.2722 31.8444C42.3887 31.1804 41.3436 30.9229 40.3609 30.9133L34.2223 30.9127C31.6939 30.8595 30.4962 28.7612 31.6892 26.3775L32.8617 24.2838C34.3694 21.6393 33.972 18.9421 31.6401 17.3709Z" fill="#3B3A40"/>
</svg>
