<svg width="93" height="94" viewBox="0 0 93 94" fill="none" xmlns="http://www.w3.org/2000/svg">
<rect y="1" width="92" height="92" rx="46" fill="#FFEDB6" stroke="#FFEDB6"/>
<path fill-rule="evenodd" clip-rule="evenodd" d="M28.3045 41.6123C24.2031 52.4428 29.6717 64.6402 40.6087 68.6359C51.5458 72.6316 63.6396 67.1638 67.6358 56.3333C71.6321 45.5029 66.1635 33.3054 55.3317 29.3097C53.018 28.3634 50.4941 27.9427 47.9702 27.9427C46.9991 27.9427 45.9749 28.0489 44.973 28.2234C44.5645 28.2946 44.973 46.9999 44.973 46.9999L28.3045 41.6123Z" fill="white"/>
<path d="M47.9702 26.4427C50.7807 26.4427 53.4764 26.9302 55.8508 27.9024C67.4289 32.1734 73.3378 45.2132 69.0431 56.8526C64.7648 68.4476 51.8186 74.3283 40.094 70.0449C28.522 65.8172 22.6109 52.9857 26.7726 41.4308L26.9018 41.0811L29.7073 42.1435C25.8875 52.2305 31.0085 63.5317 41.1234 67.227C51.3043 70.9465 62.5258 65.8492 66.2286 55.8141C69.9527 45.7211 64.8278 34.4115 54.7638 30.698C52.7165 29.8607 50.4055 29.4427 47.9702 29.4427C47.2702 29.4427 46.5077 29.5049 45.7118 29.6233L45.2305 29.7011L44.7156 26.7457C45.8471 26.5485 46.947 26.4427 47.9702 26.4427Z" fill="#3B3A40"/>
<path fill-rule="evenodd" clip-rule="evenodd" d="M30.1811 27.6144C34.4496 24.3063 39.6741 22.5 45 22.5C45.8284 22.5 46.5 23.1716 46.5 24V47C46.5 47.9891 45.5595 48.7074 44.6053 48.4471L22.6053 42.4471C21.81 42.2302 21.3388 41.4122 21.5502 40.6153C22.9241 35.4367 25.9893 30.8389 30.1811 27.6144ZM43.5 45.035V25.555L43.1431 25.5838C39.1366 25.9457 35.2641 27.4705 32.0146 29.9889C28.8319 32.4371 26.3883 35.7925 25.0094 39.598L24.883 39.958L43.5 45.035Z" fill="#3B3A40"/>
</svg>
