<svg width="64" height="64" viewBox="0 0 64 64" fill="none" xmlns="http://www.w3.org/2000/svg">
<rect width="64" height="64" rx="32" fill="#D1E8FF"/>
<path fill-rule="evenodd" clip-rule="evenodd" d="M25.7763 28.7044L28.6649 25.8159L48.3734 42.696L42.6564 48.413L25.7763 28.7044Z" fill="white"/>
<path fill-rule="evenodd" clip-rule="evenodd" d="M28.9362 20.4468V15H26.9362V20.4468H28.9362ZM38.3794 18.9071L36.9652 17.4929L33.1525 21.3057L34.5667 22.7199L38.3794 18.9071ZM29.2124 24.979C28.8216 24.7228 28.2964 24.7702 27.9578 25.1088L25.0692 27.9973L24.9841 28.0941C24.6985 28.4639 24.7053 28.9913 25.0168 29.3549L41.8969 49.0635L41.9825 49.1519C42.3711 49.5075 42.9809 49.5027 43.3635 49.1201L49.0805 43.4031L49.1621 43.311C49.4867 42.8961 49.4348 42.2884 49.0239 41.9365L29.3154 25.0564L29.2124 24.979ZM31.392 33.724L33.684 31.432L46.9022 42.7525L42.7126 46.9421L31.392 33.724ZM21.3057 33.1525L22.7199 34.5667L18.9071 38.3794L17.4929 36.9652L21.3057 33.1525ZM27.1378 28.7567L28.7168 27.1778L32.16 30.127L30.087 32.2L27.1378 28.7567ZM20.4468 26.9362V28.9362H15V26.9362H20.4468ZM18.9071 17.4929L22.7199 21.3057L21.3057 22.7199L17.4929 18.9071L18.9071 17.4929Z" fill="black"/>
</svg>
