<svg width="93" height="94" viewBox="0 0 93 94" fill="none" xmlns="http://www.w3.org/2000/svg">
<rect y="1" width="92" height="92" rx="46" fill="#FFEDB6" stroke="#FFEDB6"/>
<path fill-rule="evenodd" clip-rule="evenodd" d="M46 70C46 70 27 63.2 27 43.6V27.5L46 24L65 27.5V43.6C65 63.4 46 70 46 70Z" fill="white" stroke="#3B3A40" stroke-width="3"/>
<path fill-rule="evenodd" clip-rule="evenodd" d="M46 22.4747L66.5 26.251V43.6C66.5 52.7299 62.7297 59.9332 56.4835 65.3575C54.3106 67.2445 51.9871 68.778 49.6619 69.9896C48.2572 70.7215 47.1516 71.1879 46.4922 71.4169L45.9926 71.5905L45.3468 71.3581C44.7802 71.1459 43.9448 70.7837 42.9117 70.259L42.329 69.9567C40.0057 68.7258 37.6842 67.1764 35.5131 65.2796C29.2697 59.8248 25.5 52.6426 25.5 43.6V26.251L46 22.4747ZM63.5 28.749L46 25.525L28.5 28.749V43.6C28.5 51.5419 31.7198 57.8385 37.145 62.7173L37.4869 63.0204C39.4721 64.7548 41.6036 66.1773 43.7335 67.3058C44.4765 67.6994 45.1642 68.0274 45.778 68.2923L46.006 68.389L46.0865 68.3571L46.546 68.1611C47.077 67.9282 47.6571 67.6514 48.2756 67.3291C50.4035 66.2204 52.5331 64.8148 54.5165 63.0924C60.1453 58.2042 63.5 51.795 63.5 43.6V28.749Z" fill="#3B3A40"/>
<path fill-rule="evenodd" clip-rule="evenodd" d="M35.5131 47L45.8658 55.8523L65.1062 33.8523" fill="#FFEDB6"/>
<path d="M63.9771 32.8649L66.2353 34.8398L46.9949 56.8398C46.4876 57.4198 45.6313 57.5159 45.0116 57.0855L44.8909 56.9924L34.5383 48.1401L36.4879 45.86L45.712 53.748L63.9771 32.8649Z" fill="#3B3A40"/>
</svg>
