<svg width="64" height="64" viewBox="0 0 64 64" fill="none" xmlns="http://www.w3.org/2000/svg">
<rect width="64" height="64" rx="32" fill="#D1E8FF"/>
<path fill-rule="evenodd" clip-rule="evenodd" d="M32 48C40.8366 48 48 40.8366 48 32C48 23.1634 40.8366 16 32 16C23.1634 16 16 23.1634 16 32C16 40.8366 23.1634 48 32 48Z" fill="white"/>
<path fill-rule="evenodd" clip-rule="evenodd" d="M49 32C49 22.6112 41.3888 15 32 15C22.6112 15 15 22.6112 15 32C15 41.3888 22.6112 49 32 49C41.3888 49 49 41.3888 49 32ZM17 32C17 23.7157 23.7157 17 32 17C40.2843 17 47 23.7157 47 32C47 40.2843 40.2843 47 32 47C23.7157 47 17 40.2843 17 32ZM39.2929 23.2929L40.7071 24.7071L34.7071 30.7071L34.7642 30.8323C34.9161 31.1912 35 31.5858 35 32C35 33.6569 33.6569 35 32 35C31.5858 35 31.1912 34.9161 30.8323 34.7642L30.7071 34.7071L26.7071 38.7071L25.2929 37.2929L29.2929 33.2929L29.2358 33.1677C29.0839 32.8088 29 32.4142 29 32C29 30.3431 30.3431 29 32 29C32.4142 29 32.8088 29.0839 33.1677 29.2358L33.2929 29.2929L39.2929 23.2929ZM31 32C31 31.4477 31.4477 31 32 31C32.5523 31 33 31.4477 33 32C33 32.5523 32.5523 33 32 33C31.4477 33 31 32.5523 31 32Z" fill="#3B3A40"/>
</svg>
