<svg width="92" height="92" viewBox="0 0 92 92" fill="none" xmlns="http://www.w3.org/2000/svg">
<rect width="92" height="92" rx="46" fill="#D1E8FF"/>
<path fill-rule="evenodd" clip-rule="evenodd" d="M23 27V58C23 62.4183 26.5817 66 31 66H69" fill="white"/>
<path d="M24.5 27V58C24.5 61.5118 27.285 64.3731 30.7669 64.4959L31 64.5H69V67.5H31C25.8438 67.5 21.647 63.3921 21.5038 58.2705L21.5 58V27H24.5Z" fill="#3B3A40"/>
<path d="M65.78 30.19L68.305 31.81L54.884 52.7284C54.4022 53.4793 53.3854 53.6386 52.6993 53.1016L52.5881 53.0057L43.123 44.01L34.2778 56.851L31.8073 55.149L41.6494 40.8633C42.1433 40.1464 43.1318 40.0065 43.803 40.5281L43.918 40.627L53.339 49.581L65.78 30.19Z" fill="#3B3A40"/>
</svg>
