<svg width="64" height="64" viewBox="0 0 64 64" fill="none" xmlns="http://www.w3.org/2000/svg">
<rect width="64" height="64" rx="32" fill="#FFEDB6"/>
<path fill-rule="evenodd" clip-rule="evenodd" d="M32.3043 48C36.1463 48 39.2608 40.8366 39.2608 32C39.2608 23.1634 36.1463 16 32.3043 16C28.4623 16 25.3478 23.1634 25.3478 32C25.3478 40.8366 28.4623 48 32.3043 48Z" fill="white"/>
<path fill-rule="evenodd" clip-rule="evenodd" d="M32.3043 15C34.9036 15 37.0957 17.4256 38.5166 21.2082C42.637 20.5294 45.9618 21.2195 47.2898 23.4961C48.6127 25.764 47.6008 28.8783 44.9922 32.0025C47.6289 35.1405 48.6473 38.2572 47.2819 40.5171C45.9166 42.777 42.6266 43.4515 38.5282 42.7627C37.107 46.5619 34.9103 49 32.3043 49C29.6972 49 27.4997 46.5598 26.0792 42.7577C21.9496 43.454 18.6255 42.782 17.2571 40.5171C15.8877 38.2506 16.916 35.1223 19.5678 31.9755C16.9649 28.8596 15.9362 25.7471 17.2492 23.4961C18.5793 21.216 21.922 20.5431 26.0772 21.2453C27.4982 17.4419 29.6963 15 32.3043 15ZM32.3017 40.8996L31.9956 41.0254C30.6501 41.5711 29.3292 42.0094 28.0615 42.3345C29.1781 45.2149 30.7187 47 32.3043 47C33.8891 47 35.4291 45.2165 36.5461 42.339C35.3775 42.0392 34.1625 41.642 32.9233 41.1522L32.3017 40.8996ZM20.7912 33.6412L20.9327 33.4664C22.0012 34.5382 23.2438 35.5941 24.6284 36.5977C24.817 38.1015 25.0972 39.5229 25.4588 40.8292C22.2605 41.3308 19.8189 40.8897 18.9689 39.4829C18.1626 38.1483 18.8998 35.9934 20.7912 33.6412ZM43.6276 33.4932C42.5682 34.5535 41.3458 35.5932 39.982 36.5858C39.7928 38.0954 39.5118 39.5223 39.1496 40.8338C42.3144 41.3276 44.7234 40.8843 45.5701 39.4829C46.3933 38.1204 45.6076 35.9028 43.6276 33.4932ZM37.402 38.3019L37.7161 38.1086L37.5969 38.7123C37.4725 39.3084 37.3326 39.8816 37.179 40.4287C36.4265 40.2391 35.6453 40.0047 34.8435 39.7254C35.343 39.4719 35.843 39.2046 36.3424 38.9237C36.7018 38.7202 37.0551 38.5128 37.402 38.3019ZM26.8938 38.1145L26.9093 38.1981C27.0573 38.9784 27.2314 39.7224 27.4282 40.4234C28.1795 40.2349 28.9599 40.0014 29.7596 39.7238C29.2624 39.4704 28.7641 39.2038 28.2662 38.9237C27.7984 38.6606 27.3407 38.3906 26.8938 38.1145ZM31.9713 25.3835L32.2469 25.2595C33.1597 25.6619 34.0847 26.1168 35.0102 26.6242L35.356 26.8161L35.9288 27.1501C36.6843 27.5995 37.4062 28.0646 38.0913 28.5401C38.2017 29.6493 38.2608 30.8074 38.2608 32C38.2608 33.1969 38.2012 34.3591 38.09 35.4719C37.2355 36.0626 36.3232 36.6361 35.3593 37.182C34.3355 37.7579 33.3118 38.2698 32.3038 38.7182C31.2964 38.2702 30.2724 37.7575 29.2467 37.1806C28.2859 36.6402 27.3746 36.0699 26.5193 35.4809C26.4077 34.3653 26.3478 33.2001 26.3478 32C26.3478 30.7888 26.4088 29.613 26.5223 28.4886C27.357 27.9123 28.2459 27.3516 29.183 26.8161C30.1142 26.2839 31.0478 25.8064 31.9713 25.3835ZM24.3953 30.0835L24.1715 30.2675C23.4871 30.8363 22.8573 31.4105 22.2872 31.9817C22.9181 32.6177 23.6225 33.2567 24.3928 33.8863C24.3633 33.2667 24.3478 32.6372 24.3478 32C24.3478 31.3525 24.3638 30.713 24.3953 30.0835ZM40.2294 30.4399L40.2165 30.1427L40.6606 30.5142C41.2423 31.0104 41.7821 31.5096 42.2763 32.0062C41.6585 32.6291 40.9694 33.255 40.2154 33.8736C40.2455 33.2579 40.2608 32.6328 40.2608 32C40.2608 31.4743 40.2502 30.9539 40.2294 30.4399ZM32.3043 30.6087C33.0727 30.6087 33.6956 31.2316 33.6956 32C33.6956 32.7684 33.0727 33.3913 32.3043 33.3913C31.5359 33.3913 30.913 32.7684 30.913 32C30.913 31.2316 31.5359 30.6087 32.3043 30.6087ZM39.9833 27.4273C39.7931 25.9017 39.5087 24.4605 39.1412 23.1369C42.3173 22.6517 44.7445 23.102 45.5622 24.5039C46.3683 25.8856 45.589 28.1101 43.6248 30.5156C42.5709 29.463 41.3471 28.4229 39.9833 27.4273ZM18.9768 24.5039C18.1803 25.8693 18.9751 28.0911 20.9376 30.4903C22.0066 29.4267 23.248 28.376 24.6323 27.3715C24.8127 25.9436 25.0757 24.5905 25.4117 23.3395L25.4564 23.1742C22.2433 22.6674 19.7941 23.1028 18.9768 24.5039ZM36.9781 23.5843L37.169 23.5363C37.3785 24.2776 37.5627 25.0672 37.7163 25.8974C37.3822 25.6886 37.0419 25.4829 36.6957 25.2805L36.3424 25.0763L35.8251 24.7903C35.48 24.603 35.1347 24.4221 34.7894 24.2481C35.5377 23.9878 36.2697 23.7665 36.9781 23.5843ZM27.4262 23.5804C27.2257 24.2995 27.0496 25.0554 26.9005 25.8486C27.321 25.5873 27.7514 25.3307 28.1908 25.0796C28.6938 24.7921 29.1983 24.5189 29.7027 24.26C29.1176 24.059 28.5431 23.8813 27.9823 23.7269L27.4262 23.5804ZM28.0594 21.669C29.1766 18.7868 30.718 17 32.3043 17C33.8828 17 35.4167 18.7692 36.5329 21.6261C35.1513 21.9767 33.7081 22.4627 32.2413 23.0773C30.8114 22.4858 29.4059 22.0141 28.0594 21.669Z" fill="black"/>
</svg>
