<svg width="64" height="64" viewBox="0 0 64 64" fill="none" xmlns="http://www.w3.org/2000/svg">
<rect width="64" height="64" rx="32" fill="#FFEDB6"/>
<path fill-rule="evenodd" clip-rule="evenodd" d="M37.5652 39.9565H41.0435C44.8696 39.9565 48 36.8261 48 33C48 29.1739 44.8696 26.0435 41.0435 26.0435C40.8348 21.0348 36.6609 17.1391 31.6522 17.3478C26.6435 17.5565 22.7478 21.7304 22.9565 26.7391V28.1304H21.913C18.7826 28.1304 16.2087 30.5652 16 33.6957V39.9565H26.4348" fill="white"/>
<path fill-rule="evenodd" clip-rule="evenodd" d="M41.964 25.097L41.9384 24.9056C41.1867 19.8771 36.7919 16.1328 31.6105 16.3487L31.3331 16.364C25.8983 16.736 21.7299 21.3218 21.9574 26.7808L21.957 27.13L21.6757 27.1344C18.1293 27.2543 15.2408 30.05 15.0022 33.6291L15 39.9565L15.0067 40.0731C15.0645 40.5705 15.4872 40.9565 16 40.9565H26.4348V38.9565L17 38.956V33.6957L17.0195 33.4788C17.2947 31.037 19.3895 29.1304 21.913 29.1304H22.9565L23.0731 29.1237C23.5705 29.0659 23.9565 28.6433 23.9565 28.1304V26.7391L23.9499 26.4907C23.8987 22.1171 27.3066 18.5298 31.6938 18.347C36.1377 18.1618 39.8581 21.6151 40.0443 26.0851C40.0667 26.6207 40.5074 27.0435 41.0435 27.0435C44.3173 27.0435 47 29.7262 47 33C47 36.2738 44.3173 38.9565 41.0435 38.9565H37.5652V40.9565H41.0435L41.2904 40.9527C45.5556 40.8212 49 37.2958 49 33L48.9962 32.753C48.8748 28.816 45.8615 25.5782 42.0199 25.1034L41.964 25.097ZM32.7071 29.1625L32.6129 29.0793C32.2206 28.7742 31.6534 28.802 31.2929 29.1625L25.7277 34.7277L27.1419 36.1419L30.9997 32.2826L31 46.913H33L32.9997 32.2826L36.8581 36.1419L38.2723 34.7277L32.7071 29.1625Z" fill="#3B3A40"/>
</svg>
