<svg width="64" height="64" viewBox="0 0 64 64" fill="none" xmlns="http://www.w3.org/2000/svg">
<rect width="64" height="64" rx="32" fill="#D1E8FF"/>
<path fill-rule="evenodd" clip-rule="evenodd" d="M32 48C32 48 19 43.2696 19 29.6348V18.4348L32 16L45 18.4348V29.6348C45 43.4087 32 48 32 48Z" fill="white"/>
<path fill-rule="evenodd" clip-rule="evenodd" d="M32.0616 15.0019L32.1841 15.0171L45.1841 17.4519C45.6177 17.5331 45.942 17.8869 45.993 18.316L46 18.4348V29.6348C46 35.9685 43.4271 40.9663 39.1619 44.7322C37.677 46.0433 36.0888 47.109 34.4994 47.951L33.9876 48.2148C33.4981 48.4598 33.0776 48.6489 32.7431 48.7856L32.5832 48.8495L32.333 48.9429C32.1145 49.0201 31.8759 49.019 31.6581 48.9397L31.3776 48.8315C31.0669 48.7058 30.6679 48.5273 30.1976 48.293L29.9566 48.1712L29.4945 47.9282C27.9064 47.0727 26.3196 45.996 24.8359 44.6781C20.674 40.9811 18.1235 36.1443 18.0044 30.0807L18 29.6348V18.4348C18 17.9936 18.2881 17.6098 18.7005 17.4806L18.8159 17.4519L31.8159 15.0171C31.897 15.0019 31.9795 14.9968 32.0616 15.0019ZM32 17.017L20 19.264V29.6348C20 34.9904 22.0633 39.2731 25.5594 42.6248L25.8625 42.9099L26.1641 43.1828C27.5242 44.3909 28.9842 45.3816 30.443 46.1674C30.8501 46.3867 31.2329 46.5767 31.585 46.7384L32.004 46.924L32.4223 46.7435C32.774 46.5854 33.1565 46.3992 33.5631 46.1837C35.0206 45.4116 36.4793 44.4328 37.8381 43.233C41.5963 39.9147 43.8778 35.5879 43.9952 30.0837L44 29.6348V19.264L32 17.017ZM39.4696 26.6114L37.887 25.3886L31.959 33.06L27.6927 28.9625L26.3073 30.4049L31.3769 35.2745L31.4726 35.3557C31.9029 35.677 32.5233 35.6017 32.8609 35.1647L39.4696 26.6114Z" fill="#3B3A40"/>
</svg>
