<svg width="114" height="24" viewBox="0 0 114 24" fill="none" xmlns="http://www.w3.org/2000/svg">
<path fill-rule="evenodd" clip-rule="evenodd" d="M6.631 0C4.579 0 2.85 0.68625 1.71 1.94439C0.456 3.20253 0 5.03257 0 7.22479V16.7562C0 18.8149 0.456 20.7593 1.71 22.0365C2.964 23.2947 4.674 23.9809 6.631 23.9809C8.683 23.9809 10.412 23.2947 11.552 22.0365C12.806 20.7784 13.262 18.9484 13.262 16.7562V11.4948C13.262 11.2661 13.034 11.0373 12.806 11.0373H6.973C6.745 11.0373 6.517 11.2661 6.517 11.4948V15.4027C6.517 15.6315 6.745 15.8602 6.973 15.8602H8.474V16.7752C8.474 17.5759 8.246 18.2812 7.904 18.7196C7.562 19.1771 7.106 19.2915 6.536 19.2915C5.985 19.2915 5.51 19.0627 5.168 18.7196C4.826 18.2621 4.598 17.5759 4.598 16.7752V7.35822C4.598 6.55758 4.826 5.85227 5.168 5.41383C5.51 4.95632 5.966 4.84194 6.536 4.84194C7.087 4.84194 7.562 5.0707 7.904 5.41383C8.246 5.87133 8.474 6.55758 8.474 7.35822V8.27324C8.474 8.50199 8.702 8.61635 8.816 8.61635H12.806C13.034 8.61635 13.148 8.50199 13.148 8.27324V7.35822C13.148 5.29944 12.692 3.35505 11.438 2.07784C10.412 0.686264 8.569 0 6.631 0ZM41.743 0.343139H45.733C45.98 0.343139 46.094 0.571878 46.113 0.686254V16.6418C46.113 18.834 45.657 20.664 44.403 21.9222C43.263 23.1803 41.534 23.8666 39.482 23.8666C37.525 23.8666 35.815 23.1803 34.561 21.9222C33.307 20.645 32.851 18.7006 32.851 16.6418V0.686254C32.851 0.457501 32.965 0.343139 33.193 0.343139H37.183C37.297 0.343139 37.525 0.457501 37.525 0.686254V16.5274C37.525 17.328 37.753 17.8999 38.095 18.3574C38.437 18.7006 38.912 18.9293 39.463 18.9293C40.033 18.9293 40.489 18.8149 40.831 18.3574C41.173 17.8999 41.401 17.328 41.401 16.5274V0.686254C41.401 0.457501 41.515 0.343139 41.743 0.343139ZM75.373 0.343139H79.363C79.591 0.343139 79.705 0.571878 79.705 0.686254V23.0469C79.705 23.1612 79.591 23.39 79.363 23.39H75.373C75.259 23.39 75.031 23.2756 75.031 23.0469V14.1064H71.041V23.0469C71.041 23.1612 70.927 23.39 70.699 23.39H66.709C66.595 23.39 66.367 23.2756 66.367 23.0469V0.686254C66.367 0.571878 66.481 0.343139 66.709 0.343139H70.699C70.813 0.343139 71.041 0.457501 71.041 0.686254V9.39794H75.031V0.686254C75.031 0.571878 75.145 0.343139 75.373 0.343139ZM56.582 18.8149C57.285 18.8149 57.741 18.7005 58.083 18.243C58.444 17.7665 58.558 17.2137 58.52 16.2605C58.52 15.5743 58.292 15.0024 57.95 14.5449C57.608 14.2018 57.152 13.973 56.582 13.973H54.302V18.8149H56.582ZM54.416 5.05163H56.354C56.924 5.05163 57.38 5.166 57.722 5.62351C58.064 5.96664 58.178 6.53852 58.178 7.24384C58.178 7.94917 58.064 8.50199 57.722 8.95949C57.38 9.30262 56.924 9.53137 56.468 9.53137H54.416V5.05163ZM62.871 7.22479C62.871 9.30262 61.617 10.9039 60.933 11.5902C61.636 12.0286 63.346 13.6489 63.479 16.394C63.479 18.6815 62.662 20.1874 61.978 21.1025C60.705 22.7228 58.767 23.5234 56.715 23.5234H50.084C49.97 23.5234 49.742 23.409 49.742 23.1803V0.800626C49.742 0.68625 49.856 0.457511 50.084 0.457511H56.335C58.292 0.457511 60.002 1.14376 61.256 2.51627C61.959 3.31691 62.871 4.80382 62.871 7.22479ZM24.586 9.39794C24.244 9.85545 23.674 10.0842 22.971 10.0842H21.033V5.05163H22.971C23.655 5.05163 24.225 5.28038 24.586 5.73788C25.042 6.19539 25.156 6.76727 25.156 7.5679C25.156 8.36854 25.061 8.94044 24.586 9.39794ZM27.2651 13.4208L27.265 13.4209C27.2157 13.4577 27.1651 13.4954 27.113 13.5346L30.058 23.0278C30.058 23.1422 30.058 23.3709 29.944 23.3709C29.887 23.3709 29.83 23.3995 29.773 23.4281C29.716 23.4567 29.659 23.4853 29.602 23.4853H25.384C25.27 23.4853 25.042 23.3709 25.042 23.2566L22.515 14.7736H21.147V23.0469C21.147 23.1612 21.033 23.39 20.805 23.39H16.815C16.701 23.39 16.473 23.2756 16.473 23.0469V0.686254C16.473 0.571878 16.587 0.343139 16.815 0.343139H23.446C25.403 0.457515 27.113 1.14376 28.253 2.51627C29.165 3.45035 30.077 5.03256 30.077 7.45353C30.077 9.96981 29.051 11.5901 28.253 12.5052C27.9501 12.9104 27.6472 13.1361 27.2651 13.4208ZM108.509 18.243C108.167 18.7005 107.711 18.8149 107.008 18.8149H104.728V13.973H107.008C107.578 13.973 108.034 14.2018 108.376 14.5449C108.718 15.0024 108.946 15.5743 108.946 16.2605C109.079 17.2137 108.87 17.7665 108.509 18.243ZM106.894 5.05163H104.956V9.53137H107.008C107.464 9.53137 107.92 9.30262 108.262 8.95949C108.604 8.50199 108.718 7.94917 108.718 7.24384C108.718 6.53852 108.604 5.96664 108.262 5.62351C107.92 5.166 107.464 5.05163 106.894 5.05163ZM111.473 11.5902C112.157 10.9039 113.411 9.30262 113.411 7.22479C113.411 4.80382 112.499 3.31691 111.796 2.51627C110.542 1.14376 108.832 0.457511 106.875 0.457511H100.567C100.339 0.457511 100.225 0.68625 100.225 0.800626V23.1803C100.225 23.409 100.453 23.5234 100.567 23.5234H107.236C109.288 23.5234 111.226 22.7228 112.499 21.1025C113.183 20.1874 114 18.6815 114 16.394C113.772 13.6489 112.062 12.0286 111.473 11.5902ZM92.169 0.343139H96.159C96.406 0.343139 96.634 0.571878 96.52 0.686254V16.6418C96.52 18.834 96.064 20.664 94.81 21.9222C93.67 23.1803 91.941 23.8666 89.889 23.8666C87.932 23.8666 86.222 23.1803 84.968 21.9222C83.714 20.645 83.258 18.7006 83.258 16.6418V0.686254C83.258 0.457501 83.372 0.343139 83.6 0.343139H87.609C87.723 0.343139 87.951 0.457501 87.951 0.686254V16.5274C87.951 17.328 88.179 17.8999 88.521 18.3574C88.863 18.7006 89.338 18.9293 89.889 18.9293C90.459 18.9293 90.915 18.8149 91.257 18.3574C91.599 17.8999 91.827 17.328 91.827 16.5274V0.686254C91.827 0.457501 91.941 0.343139 92.169 0.343139Z" fill="#64626A"/>
</svg>
