<svg width="111" height="32" viewBox="0 0 111 32" fill="none" xmlns="http://www.w3.org/2000/svg">
<path fill-rule="evenodd" clip-rule="evenodd" d="M3.84827 5.95081H0.0128784V26.8467H3.84827V18.1553H11.9374V26.8467H15.7777V5.95081H11.9374V14.4634H3.84827V5.95081ZM24.7511 23.2132C26.5016 23.2132 27.9282 21.7898 27.9282 20.0406V11.0442H31.5642V20.0406C31.5642 23.7938 28.5074 26.8467 24.7511 26.8467C20.9939 26.8467 17.9369 23.7938 17.9369 20.0406V11.0442H21.5742V20.0406C21.5742 21.7898 22.9999 23.2132 24.7511 23.2132ZM41.7181 11.1496C39.9139 11.1496 38.6545 11.6726 37.4382 12.8653V5.95081H33.7891V18.7652C33.7891 23.5618 37.2606 26.8467 41.1606 26.8467C45.4964 26.8467 49.2952 23.5032 49.2952 18.9983C49.2952 14.5506 45.7922 11.1496 41.7181 11.1496ZM37.4453 18.9983C37.4453 21.4112 39.3362 23.4742 41.8088 23.4742C43.904 23.4742 45.7959 21.4112 45.7959 18.9983C45.7959 16.585 43.904 14.5214 41.8088 14.5214C39.3362 14.5214 37.4453 16.585 37.4453 18.9983ZM55.4241 12.0679C55.4241 10.2354 56.6463 9.65445 57.9844 9.65445C59.0616 9.65445 60.4871 10.4683 61.4174 11.4569L63.8028 8.66651C62.6106 7.06795 60.196 5.96304 58.2173 5.96304C54.2596 5.96304 51.408 8.25957 51.408 12.0679C51.408 16.1083 54.2548 17.105 56.6916 17.9581C58.5149 18.5964 60.1086 19.1543 60.1086 20.8467C60.1086 22.0662 58.9159 23.1428 57.5491 23.1428C55.5924 23.1428 54.8366 22.2792 53.9733 21.2928L53.973 21.2924L53.9718 21.2911C53.8852 21.1922 53.7976 21.092 53.7075 20.9914L51.0591 23.7234C52.7478 25.7875 54.8421 26.8344 57.3448 26.8344C61.0981 26.8344 64.1244 24.5089 64.1244 20.8748C64.1244 16.1421 60.9605 15.1514 58.4486 14.3649C56.7951 13.8472 55.4241 13.4179 55.4241 12.0679ZM66.3594 19.0254C66.3594 14.2278 69.8313 10.9448 73.7309 10.9448C78.0658 10.9448 81.8658 14.2874 81.8658 18.7929C81.8658 23.2407 78.3623 26.6413 74.2885 26.6413C72.4835 26.6413 71.2248 26.1174 70.0083 24.9255V31.8729H66.3594V19.0254ZM74.3793 23.2699C71.9069 23.2699 70.0159 21.2041 70.0159 18.7929C70.0159 16.3796 71.9069 14.316 74.3793 14.316C76.4741 14.316 78.3662 16.3796 78.3662 18.7929C78.3662 21.2041 76.4741 23.2699 74.3793 23.2699ZM105.962 21.1195C105.962 22.5444 106.573 23.4742 108.726 23.4742C109.134 23.4742 109.6 23.4452 110.007 23.4171L109.105 26.7306C108.755 26.8166 108.115 26.8467 107.649 26.8467C104.537 26.8467 102.268 25.1895 102.268 21.9044V9.05606L105.962 7.39955V11.6149H109.308V14.812H105.962V21.1195Z" fill="#64626A"/>
<path fill-rule="evenodd" clip-rule="evenodd" d="M96.189 12.1059C97.4192 12.8316 98.4032 13.7955 99.1027 14.9978C99.79 16.1914 100.117 17.4942 100.117 18.9062V18.9779C100.117 20.4134 99.7105 21.7181 98.9719 22.899C98.2371 24.0766 97.2645 24.9991 96.0219 25.6737C94.8426 26.312 93.5881 26.6241 92.2582 26.6241H92.0378C90.8349 26.6241 89.7357 26.362 88.7399 25.9319C88.2351 25.714 87.7654 25.4614 87.3306 25.1614L84.1588 28.3304C84.2336 28.5686 84.2733 28.8193 84.2733 29.0762C84.2741 29.4026 84.2102 29.726 84.0852 30.0276C83.9602 30.3292 83.7766 30.6031 83.545 30.8334C83.3145 31.065 83.0402 31.2486 82.7382 31.3737C82.4361 31.4987 82.1122 31.5627 81.7852 31.5618C81.4584 31.5627 81.1346 31.4988 80.8326 31.3737C80.5306 31.2487 80.2565 31.065 80.0261 30.8334C79.556 30.364 79.2971 29.7401 79.2969 29.0762C79.2958 28.7497 79.3596 28.4262 79.4845 28.1244C79.6095 27.8227 79.7931 27.5487 80.0248 27.3184C80.3594 26.9823 80.7839 26.7496 81.2474 26.648C81.7109 26.5465 82.1939 26.5804 82.6386 26.7458L85.7072 23.6727C85.1995 23.0471 84.7896 22.3551 84.5092 21.594C84.1908 20.7224 84.0039 19.7946 84.0039 18.8118V18.5197C84.0039 17.1197 84.4549 15.8362 85.1929 14.6697C85.557 14.0975 86.0123 13.5875 86.5011 13.1391L77.255 6.48393L76.5822 5.97397C76.0979 6.26543 75.5367 6.44272 74.93 6.44272C73.1513 6.44272 71.7106 5.00256 71.7106 3.2265C71.7106 1.45023 73.1498 0.010498 74.9285 0.010498C76.7072 0.010498 78.1471 1.45023 78.1471 3.2265C78.1471 3.52269 78.0889 3.80342 78.0132 4.07579C80.4512 5.92356 84.2119 8.77751 86.5902 10.5824C87.3223 11.1379 87.9233 11.5941 88.3146 11.8909C89.1284 11.4796 90.0196 11.212 90.8789 11.0879V7.26582C89.8047 6.81016 89.1765 5.80162 89.1765 4.62502C89.1765 3.02131 90.4864 1.72174 92.0917 1.72174C93.6957 1.72174 94.9831 3.02131 94.9831 4.62502C94.9831 5.80162 94.3164 6.81016 93.2422 7.26582V11.0862C94.3164 11.232 95.2697 11.5713 96.189 12.1059ZM92.2582 23.19C93.3769 23.19 94.3665 22.6013 95.2274 21.6455C95.977 20.822 96.3516 19.9148 96.3516 18.9352C96.3516 18.7884 96.3456 18.6347 96.3338 18.4847C96.2586 17.7629 96.0249 17.1003 95.6319 16.4861C95.2274 15.872 94.7055 15.4052 94.0668 15.0635C93.4399 14.7431 92.7756 14.6048 92.0739 14.6048H92.0019C91.228 14.6048 90.5332 14.815 89.8827 15.2434C89.2201 15.6748 88.7219 16.2174 88.353 16.9151C88.008 17.5534 87.8711 18.2293 87.8711 18.9421V19.1623C87.8711 19.8873 88.1117 20.5711 88.5552 21.1974C88.9842 21.8355 89.5084 22.3394 90.1981 22.6927C90.81 23.0136 91.4349 23.19 92.0739 23.19H92.2582Z" fill="#64626A"/>
</svg>
