<svg width="122" height="34" viewBox="0 0 122 34" fill="none" xmlns="http://www.w3.org/2000/svg">
<g clip-path="url(#clip0)">
<path d="M38.7426 9.18634C38.635 9.01809 38.4332 8.94406 38.2381 8.98444L26.5191 11.3803C26.4249 11.4005 26.3173 11.5822 26.472 11.8581C26.4787 11.8649 30.8851 20.7148 30.8851 20.7148L38.7225 9.73147C38.8368 9.56995 38.8503 9.35459 38.7426 9.18634Z" fill="url(#paint0_linear)"/>
<path d="M26.4047 11.5283L21.1776 32.8759C21.1238 33.0913 21.2314 33.3201 21.4332 33.4143C21.5005 33.4479 21.5678 33.4614 21.6418 33.4547C21.7831 33.4479 21.9243 33.3806 22.0118 33.2595L30.8851 20.708C30.8851 20.708 26.4787 11.8581 26.472 11.8514C26.398 11.7235 26.3846 11.6091 26.4047 11.5283Z" fill="url(#paint1_linear)"/>
<path d="M20.5722 -0.0810315C20.5587 -0.0743015 20.552 -0.0608414 20.5385 -0.0541114C20.4376 0.0333787 20.3771 0.154519 20.3771 0.289119V25.5805C20.3771 25.8093 20.552 26.0045 20.7807 26.0314C20.8009 26.0314 20.8144 26.0314 20.8345 26.0314C21.0431 26.0314 21.2247 25.8901 21.2785 25.6814L25.0997 9.68421H25.1131L25.2342 9.66402L20.7269 -0.141602C20.6731 -0.128142 20.6193 -0.114682 20.5722 -0.0810315Z" fill="url(#paint2_linear)"/>
<path d="M38.265 6.87117C38.2852 6.66927 38.1641 6.48083 37.9757 6.4068L20.996 -0.128035C20.9085 -0.161685 20.8143 -0.161685 20.7269 -0.141495L25.2342 9.66412L37.895 7.27497C38.0968 7.23459 38.2448 7.07307 38.265 6.87117Z" fill="url(#paint3_linear)"/>
<path d="M0.363287 9.18634C0.470924 9.01809 0.672743 8.94406 0.867836 8.98444L12.5868 11.3803C12.681 11.4005 12.7887 11.5822 12.6339 11.8581C12.6272 11.8649 8.2208 20.7148 8.2208 20.7148L0.390196 9.73147C0.262377 9.56995 0.255649 9.35459 0.363287 9.18634Z" fill="url(#paint4_linear)"/>
<path d="M17.9283 32.8759L12.7012 11.5283C12.7214 11.6091 12.7079 11.7235 12.6339 11.8581C12.6272 11.8648 8.22079 20.7148 8.22079 20.7148L17.0941 33.2662C17.1816 33.3874 17.3229 33.4614 17.4641 33.4614C17.5314 33.4614 17.6054 33.4479 17.6727 33.421C17.8745 33.3201 17.9821 33.0913 17.9283 32.8759Z" fill="url(#paint5_linear)"/>
<path d="M18.5271 -0.0810315C18.5405 -0.0743015 18.5472 -0.0608414 18.5607 -0.0541114C18.6616 0.0333787 18.7221 0.154519 18.7221 0.289119V25.5805C18.7221 25.8093 18.5472 26.0045 18.3185 26.0314C18.2983 26.0314 18.2849 26.0314 18.2647 26.0314C18.0561 26.0314 17.8745 25.8901 17.8207 25.6814L13.9996 9.68421H13.9861L13.865 9.66402L18.3723 -0.141602C18.4329 -0.128142 18.48 -0.114682 18.5271 -0.0810315Z" fill="url(#paint6_linear)"/>
<path d="M0.840935 6.87117C0.820753 6.66927 0.941845 6.48083 1.13021 6.4068L18.11 -0.128035C18.1974 -0.161685 18.2916 -0.161685 18.3791 -0.141495L13.8718 9.66412L1.20421 7.27497C1.00912 7.23459 0.85439 7.07307 0.840935 6.87117Z" fill="url(#paint7_linear)"/>
<path d="M44.5214 28.6698C44.5214 27.7007 45.2682 27.0007 46.2705 27.0007C46.8289 27.0007 47.2931 27.2026 47.5958 27.5728L47.1182 28.017C46.9029 27.768 46.6271 27.6401 46.3109 27.6401C45.7054 27.6401 45.2816 28.0641 45.2816 28.6698C45.2816 29.2755 45.7122 29.6995 46.3109 29.6995C46.6338 29.6995 46.9029 29.5716 47.1182 29.3159L47.5958 29.76C47.2931 30.1302 46.8289 30.3388 46.2638 30.3388C45.2682 30.3388 44.5214 29.6456 44.5214 28.6698Z" fill="#1E5579"/>
<path d="M49.7553 29.1411V30.2852H49.0085V29.1344L47.764 27.0615H48.5578L49.4189 28.495L50.28 27.0615H51.0133L49.7553 29.1411Z" fill="#1E5579"/>
<path d="M54.3904 29.4036C54.3904 29.9622 53.9464 30.2852 53.0988 30.2852H51.4304V27.0615H53.0113C53.8186 27.0615 54.229 27.398 54.229 27.9028C54.229 28.2258 54.0608 28.4748 53.7984 28.6094C54.1617 28.7238 54.3904 28.9998 54.3904 29.4036ZM52.1772 27.6201V28.3806H52.9172C53.2804 28.3806 53.4755 28.2527 53.4755 27.997C53.4755 27.7413 53.2804 27.6201 52.9172 27.6201H52.1772ZM53.6437 29.3295C53.6437 29.0603 53.4352 28.9257 53.0517 28.9257H52.1839V29.7199H53.0517C53.4352 29.7199 53.6437 29.6055 53.6437 29.3295Z" fill="#1E5579"/>
<path d="M57.5993 29.6862V30.2852H55.1035V27.0615H57.5388V27.6605H55.8435V28.3604H57.337V28.9392H55.8435V29.6862H57.5993Z" fill="#1E5579"/>
<path d="M60.3979 30.2852L59.779 29.3901H59.7387H59.0928V30.2852H58.3461V27.0615H59.7387C60.5998 27.0615 61.138 27.5057 61.138 28.2325C61.138 28.7171 60.8958 29.0738 60.4719 29.2488L61.1918 30.2852H60.3979ZM59.6983 27.6672H59.0928V28.7911H59.6983C60.1558 28.7911 60.3845 28.5825 60.3845 28.2325C60.3845 27.8759 60.149 27.6672 59.6983 27.6672Z" fill="#1E5579"/>
<path d="M63.0686 29.9686L63.3243 29.41C63.5934 29.6052 64.0037 29.7465 64.3872 29.7465C64.8312 29.7465 65.0061 29.5985 65.0061 29.4033C65.0061 28.7976 63.1359 29.2149 63.1359 28.0169C63.1359 27.4718 63.5799 27.0142 64.4948 27.0142C64.8985 27.0142 65.3156 27.1084 65.6116 27.2968L65.3828 27.8621C65.0868 27.6939 64.7774 27.6064 64.4881 27.6064C64.0441 27.6064 63.8759 27.7747 63.8759 27.9766C63.8759 28.5688 65.7461 28.1583 65.7461 29.3427C65.7461 29.8811 65.3021 30.3388 64.3805 30.3388C63.8692 30.3388 63.3579 30.184 63.0686 29.9686Z" fill="#1E5579"/>
<path d="M68.9013 29.6862V30.2852H66.4054V27.0615H68.8407V27.6605H67.1454V28.3604H68.6389V28.9392H67.1454V29.6862H68.9013Z" fill="#1E5579"/>
<path d="M69.4327 28.6698C69.4327 27.7007 70.1794 27.0007 71.1818 27.0007C71.7402 27.0007 72.2044 27.2026 72.5071 27.5728L72.0294 28.017C71.8142 27.768 71.5384 27.6401 71.2222 27.6401C70.6167 27.6401 70.1929 28.0641 70.1929 28.6698C70.1929 29.2755 70.6234 29.6995 71.2222 29.6995C71.5451 29.6995 71.8142 29.5716 72.0294 29.3159L72.5071 29.76C72.2044 30.1302 71.7402 30.3388 71.1751 30.3388C70.1727 30.3388 69.4327 29.6456 69.4327 28.6698Z" fill="#1E5579"/>
<path d="M73.0991 28.8652V27.0615H73.8459V28.8382C73.8459 29.4507 74.115 29.7064 74.5657 29.7064C75.0231 29.7064 75.2855 29.4507 75.2855 28.8382V27.0615H76.0188V28.8652C76.0188 29.8141 75.4739 30.339 74.559 30.339C73.644 30.339 73.0991 29.8141 73.0991 28.8652Z" fill="#1E5579"/>
<path d="M78.9519 30.2852L78.3329 29.3901H78.2993H77.6535V30.2852H76.9067V27.0615H78.2993C79.1604 27.0615 79.6986 27.5057 79.6986 28.2325C79.6986 28.7171 79.4564 29.0738 79.0326 29.2488L79.7524 30.2852H78.9519ZM78.2522 27.6672H77.6467V28.7911H78.2522C78.7097 28.7911 78.9384 28.5825 78.9384 28.2325C78.9384 27.8759 78.7097 27.6672 78.2522 27.6672Z" fill="#1E5579"/>
<path d="M80.4319 27.0615H81.1786V30.2852H80.4319V27.0615Z" fill="#1E5579"/>
<path d="M82.7528 27.6672H81.7235V27.0615H84.5288V27.6672H83.4995V30.2852H82.7528V27.6672Z" fill="#1E5579"/>
<path d="M86.5672 29.1411V30.2852H85.8205V29.1344L84.5759 27.0615H85.3697L86.2308 28.495L87.0919 27.0615H87.8252L86.5672 29.1411Z" fill="#1E5579"/>
<path d="M89.5272 28.6698C89.5272 27.7007 90.274 27.0007 91.2763 27.0007C91.8347 27.0007 92.2989 27.2026 92.6016 27.5728L92.124 28.017C91.9087 27.768 91.6329 27.6401 91.3167 27.6401C90.7112 27.6401 90.2874 28.0641 90.2874 28.6698C90.2874 29.2755 90.718 29.6995 91.3167 29.6995C91.6396 29.6995 91.9087 29.5716 92.124 29.3159L92.6016 29.76C92.2989 30.1302 91.8347 30.3388 91.2696 30.3388C90.2739 30.3388 89.5272 29.6456 89.5272 28.6698Z" fill="#1E5579"/>
<path d="M92.9783 28.6698C92.9783 27.7141 93.7251 27.0007 94.7409 27.0007C95.7567 27.0007 96.5034 27.7074 96.5034 28.6698C96.5034 29.6322 95.75 30.3388 94.7409 30.3388C93.7251 30.3388 92.9783 29.6322 92.9783 28.6698ZM95.75 28.6698C95.75 28.0573 95.3194 27.6401 94.7409 27.6401C94.1623 27.6401 93.7318 28.0573 93.7318 28.6698C93.7318 29.2822 94.1623 29.6995 94.7409 29.6995C95.3194 29.6995 95.75 29.2822 95.75 28.6698Z" fill="#1E5579"/>
<path d="M100.17 27.0615V30.2852H99.5577L97.9498 28.3268V30.2852H97.2098V27.0615H97.8287L99.4298 29.02V27.0615H100.17Z" fill="#1E5579"/>
<path d="M100.829 29.9686L101.085 29.41C101.354 29.6052 101.764 29.7465 102.148 29.7465C102.592 29.7465 102.767 29.5985 102.767 29.4033C102.767 28.7976 100.896 29.2149 100.896 28.0169C100.896 27.4718 101.34 27.0142 102.255 27.0142C102.659 27.0142 103.076 27.1084 103.372 27.2968L103.143 27.8621C102.847 27.6939 102.538 27.6064 102.249 27.6064C101.805 27.6064 101.636 27.7747 101.636 27.9766C101.636 28.5688 103.507 28.1583 103.507 29.3427C103.507 29.8811 103.063 30.3388 102.141 30.3388C101.63 30.3388 101.112 30.184 100.829 29.9686Z" fill="#1E5579"/>
<path d="M104.132 28.8652V27.0615H104.879V28.8382C104.879 29.4507 105.148 29.7064 105.599 29.7064C106.056 29.7064 106.319 29.4507 106.319 28.8382V27.0615H107.052V28.8652C107.052 29.8141 106.507 30.339 105.592 30.339C104.677 30.339 104.132 29.8141 104.132 28.8652Z" fill="#1E5579"/>
<path d="M107.94 27.0615H108.687V29.6795H110.301V30.2852H107.94V27.0615Z" fill="#1E5579"/>
<path d="M111.23 27.6672H110.2V27.0615H113.006V27.6672H111.976V30.2852H111.23V27.6672Z" fill="#1E5579"/>
<path d="M113.557 27.0615H114.304V30.2852H113.557V27.0615Z" fill="#1E5579"/>
<path d="M118.165 27.0615V30.2852H117.553L115.945 28.3268V30.2852H115.212V27.0615H115.831L117.432 29.02V27.0615H118.165Z" fill="#1E5579"/>
<path d="M121.26 28.6227H121.939V29.9283C121.583 30.1975 121.099 30.3388 120.634 30.3388C119.619 30.3388 118.879 29.6456 118.879 28.6698C118.879 27.7007 119.625 27.0007 120.648 27.0007C121.213 27.0007 121.684 27.1959 121.993 27.5593L121.516 28.0035C121.28 27.7545 121.011 27.6401 120.681 27.6401C120.056 27.6401 119.625 28.0573 119.625 28.6698C119.625 29.2755 120.056 29.6995 120.668 29.6995C120.87 29.6995 121.058 29.6658 121.247 29.5581V28.6227H121.26Z" fill="#1E5579"/>
<path d="M61.8712 9.9469C61.8712 14.2272 58.6622 16.8923 53.5293 16.8923H49.6611V22.1888H45.2143V2.97461H53.5293C58.6622 2.97461 61.8712 5.63296 61.8712 9.9469ZM57.3706 9.9469C57.3706 7.83367 55.9982 6.59535 53.2804 6.59535H49.6611V13.2648H53.2804C55.9982 13.2715 57.3706 12.0332 57.3706 9.9469Z" fill="#1E5579"/>
<path d="M73.4287 7.20117V11.1517C73.0722 11.1248 72.7963 11.0978 72.4667 11.0978C70.1054 11.0978 68.5447 12.39 68.5447 15.2166V22.1889H64.2661V7.42326H68.3563V9.37496C69.399 7.94147 71.1549 7.20117 73.4287 7.20117Z" fill="#1E5579"/>
<path d="M75.4604 9.21996C75.4604 7.87396 76.53 6.83081 78.1244 6.83081C79.7188 6.83081 80.7884 7.82012 80.7884 9.1392C80.7884 10.566 79.7188 11.6091 78.1244 11.6091C76.53 11.6091 75.4604 10.566 75.4604 9.21996Z" fill="#1E5579"/>
<path d="M80.2637 12.9348H75.9851V22.1953H80.2637V12.9348Z" fill="#1E5579"/>
<path d="M100.378 9.21996C100.378 7.87396 101.448 6.83081 103.042 6.83081C104.637 6.83081 105.706 7.82012 105.706 9.1392C105.706 10.566 104.637 11.6091 103.042 11.6091C101.448 11.6091 100.378 10.566 100.378 9.21996Z" fill="#1E5579"/>
<path d="M105.175 12.9348H100.896V22.1953H105.175V12.9348Z" fill="#1E5579"/>
<path d="M98.8984 7.42334L92.6689 22.1957H88.249L82.0464 7.42334H86.4663L90.5565 17.4712L94.7812 7.42334H98.8984Z" fill="#1E5579"/>
<path d="M121.522 13.7629V22.1889H117.513V20.3516C116.719 21.6976 115.178 22.411 113.012 22.411C109.554 22.411 107.496 20.4862 107.496 17.9355C107.496 15.3243 109.332 13.5139 113.833 13.5139H117.237C117.237 11.6766 116.14 10.6066 113.833 10.6066C112.272 10.6066 110.651 11.1315 109.581 11.9795L108.048 8.98462C109.669 7.83379 112.057 7.20117 114.412 7.20117C118.912 7.20117 121.522 9.28747 121.522 13.7629ZM117.237 17.525V16.0175H114.297C112.292 16.0175 111.66 16.7578 111.66 17.7471C111.66 18.8172 112.568 19.5305 114.075 19.5305C115.508 19.5305 116.746 18.871 117.237 17.525Z" fill="#1E5579"/>
</g>
<defs>
<linearGradient id="paint0_linear" x1="28.6956" y1="16.0517" x2="41.6126" y2="9.59334" gradientUnits="userSpaceOnUse">
<stop stop-color="#1E5579"/>
<stop offset="1" stop-color="#0D374E"/>
</linearGradient>
<linearGradient id="paint1_linear" x1="21.7932" y1="29.6338" x2="30.4259" y2="12.6218" gradientUnits="userSpaceOnUse">
<stop stop-color="#1E5579"/>
<stop offset="1" stop-color="#0D374E"/>
</linearGradient>
<linearGradient id="paint2_linear" x1="19.6259" y1="22.123" x2="23.5639" y2="0.882785" gradientUnits="userSpaceOnUse">
<stop stop-color="#1E5579"/>
<stop offset="1" stop-color="#0D374E"/>
</linearGradient>
<linearGradient id="paint3_linear" x1="21.6969" y1="4.22502" x2="35.5526" y2="9.55201" gradientUnits="userSpaceOnUse">
<stop stop-color="#1E5579"/>
<stop offset="1" stop-color="#0D374E"/>
</linearGradient>
<linearGradient id="paint4_linear" x1="10.4075" y1="16.0503" x2="-2.50951" y2="9.59191" gradientUnits="userSpaceOnUse">
<stop stop-color="#1E5579"/>
<stop offset="1" stop-color="#0D374E"/>
</linearGradient>
<linearGradient id="paint5_linear" x1="12.5284" y1="27.8265" x2="19.4471" y2="14.1921" gradientUnits="userSpaceOnUse">
<stop stop-color="#1E5579"/>
<stop offset="1" stop-color="#0D374E"/>
</linearGradient>
<linearGradient id="paint6_linear" x1="19.4735" y1="22.1238" x2="15.5355" y2="0.883659" gradientUnits="userSpaceOnUse">
<stop stop-color="#1E5579"/>
<stop offset="1" stop-color="#0D374E"/>
</linearGradient>
<linearGradient id="paint7_linear" x1="17.4074" y1="4.22564" x2="3.55171" y2="9.55262" gradientUnits="userSpaceOnUse">
<stop stop-color="#1E5579"/>
<stop offset="1" stop-color="#0D374E"/>
</linearGradient>
<clipPath id="clip0">
<rect width="122" height="34" fill="white"/>
</clipPath>
</defs>
</svg>
