<svg width="74" height="33" viewBox="0 0 74 33" fill="none" xmlns="http://www.w3.org/2000/svg">
<g clip-path="url(#clip0)">
<path d="M5.088 9.736C2.976 9.736 1.136 10.936 1.136 12.968C1.136 15 2.56 15.784 4.816 16.328C6.448 16.712 7.024 17.256 7.024 18.184C7.024 19.032 6.224 19.576 5.216 19.576C4.096 19.576 3.168 18.952 2.928 17.736H0.672C0.88 20.056 2.608 21.224 5.248 21.224C7.424 21.224 9.328 20.04 9.328 17.96C9.328 16.184 8.24 15.064 5.808 14.504C4.048 14.088 3.456 13.624 3.456 12.696C3.456 11.8 4.128 11.384 5.008 11.384C6.16 11.384 6.784 12.088 6.912 13.208H9.168C8.928 11.24 7.728 9.736 5.088 9.736ZM15.8642 21H18.0242C17.8962 20.056 17.8642 19.48 17.8642 18.84V16.088C17.8642 15.624 17.8482 15.176 17.8162 14.776C17.6882 13.304 16.7922 12.264 14.4082 12.264C12.3762 12.264 10.8242 13.352 10.7602 15.272L12.9042 15.256C12.9682 14.328 13.4482 13.816 14.3282 13.816C15.1922 13.816 15.5762 14.248 15.6402 14.84C15.6722 15.128 15.6722 15.384 15.6722 15.64V15.816H15.1282C12.0402 15.816 10.4402 16.872 10.4402 18.744C10.4402 20.36 11.7042 21.224 13.1762 21.224C13.9762 21.224 14.6962 21.064 15.2882 20.664L15.7042 19.752L15.8642 21ZM14.0242 19.672C13.2402 19.672 12.7282 19.32 12.7282 18.568C12.7282 17.448 13.9122 17.048 15.6722 17.176V17.864C15.6722 19.048 14.9202 19.672 14.0242 19.672ZM28.1463 12.488H25.7623L23.6663 19.336L21.5223 12.488H19.0743L22.3863 21H24.8503L28.1463 12.488ZM36.7693 16.568C36.7693 14.248 35.3933 12.264 32.7853 12.264C30.1773 12.264 28.4653 14.168 28.4653 16.776C28.4653 19.768 30.2733 21.224 32.6093 21.224C34.6093 21.224 36.2093 20.216 36.6413 18.232H34.4333C34.2893 19.144 33.6013 19.672 32.6573 19.672C31.6333 19.672 30.8333 19.112 30.6893 17.32H36.7373C36.7693 17.032 36.7693 16.776 36.7693 16.568ZM32.6893 13.816C33.7453 13.816 34.3533 14.536 34.4973 15.88H30.7533C30.9453 14.472 31.6653 13.816 32.6893 13.816ZM48.1403 9.96H47.0523C46.4443 9.96 45.8683 10.12 45.2763 10.456L42.7163 11.976V14.056L45.9323 12.28V21H48.1403V9.96ZM56.478 13.592C55.838 13.592 55.262 13.72 54.75 14.024L54.206 14.776L54.622 11.688H59.694V9.96H52.814L52.03 16.488H54.078C54.462 15.608 55.022 15.24 55.886 15.24C57.086 15.24 57.79 16.12 57.79 17.416C57.79 18.712 57.07 19.576 55.838 19.576C54.782 19.576 54.222 18.952 54.062 17.976L54.046 17.816H51.838L51.854 17.976C52.078 20.2 53.486 21.224 55.95 21.224C58.11 21.224 60.142 19.864 60.142 17.336C60.142 15.064 58.798 13.592 56.478 13.592ZM64.1438 9.768C62.6238 9.768 61.6798 10.744 61.6798 12.392C61.6798 14.04 62.6238 15.032 64.1438 15.032C65.6798 15.032 66.6238 14.04 66.6238 12.392C66.6238 10.744 65.6798 9.768 64.1438 9.768ZM64.5278 21L71.6958 9.96H69.9838L62.8158 21H64.5278ZM64.1438 10.936C64.7358 10.936 65.0718 11.448 65.0718 12.392C65.0718 13.336 64.7358 13.864 64.1438 13.864C63.5518 13.864 63.2318 13.336 63.2318 12.392C63.2318 11.448 63.5518 10.936 64.1438 10.936ZM70.2718 15.96C68.7518 15.96 67.7918 16.936 67.7918 18.584C67.7918 20.232 68.7518 21.224 70.2718 21.224C71.8078 21.224 72.7518 20.232 72.7518 18.584C72.7518 16.936 71.8078 15.96 70.2718 15.96ZM70.2718 17.128C70.8638 17.128 71.1838 17.64 71.1838 18.584C71.1838 19.528 70.8638 20.056 70.2718 20.056C69.6798 20.056 69.3598 19.528 69.3598 18.584C69.3598 17.64 69.6798 17.128 70.2718 17.128Z" fill="#1E5579"/>
<path d="M3 33C3 33 31.7401 27.482 66 29.5761" stroke="#1E5579" stroke-width="2" stroke-linecap="round" stroke-linejoin="round"/>
</g>
<defs>
<clipPath id="clip0">
<rect width="74" height="33" fill="white"/>
</clipPath>
</defs>
</svg>
