<svg width="124" height="32" viewBox="0 0 124 32" fill="none" xmlns="http://www.w3.org/2000/svg">
<path d="M40.1982 24.475L41.7345 20.875C43.3947 22.125 45.6 22.775 47.7805 22.775C49.3912 22.775 50.4071 22.15 50.4071 21.2C50.3823 18.55 40.7682 20.625 40.6938 13.975C40.669 10.6 43.6425 8 47.8549 8C50.3575 8 52.8602 8.625 54.6443 10.05L53.2071 13.725C51.5717 12.675 49.5398 11.925 47.6071 11.925C46.2938 11.925 45.4266 12.55 45.4266 13.35C45.4513 15.95 55.1398 14.525 55.2389 20.875C55.2389 24.325 52.3398 26.75 48.177 26.75C45.1292 26.75 42.3292 26.025 40.1982 24.475Z" fill="#64626A"/>
<path d="M99.1469 19.575C98.3788 20.925 96.9416 21.85 95.2814 21.85C92.8283 21.85 90.846 19.85 90.846 17.375C90.846 14.9 92.8283 12.9 95.2814 12.9C96.9416 12.9 98.3788 13.825 99.1469 15.175L103.384 12.8C101.798 9.95 98.7504 8 95.2814 8C90.1522 8 85.9894 12.2 85.9894 17.375C85.9894 22.55 90.1522 26.75 95.2814 26.75C98.7752 26.75 101.798 24.825 103.384 21.95L99.1469 19.575Z" fill="#64626A"/>
<rect x="57.3699" y="0.224976" width="5.30265" height="26.175" fill="#64626A"/>
<path d="M105.465 0.224976V26.4H110.768V18.55L117.062 26.4H123.851L115.848 17.075L123.257 8.37498H116.765L110.768 15.6V0.224976H105.465Z" fill="#64626A"/>
<path fill-rule="evenodd" clip-rule="evenodd" d="M78.4318 10.5V8.375H83.7345V26.375H78.4318V24.25C77.5646 25.725 75.4088 26.75 73.154 26.75C68.4956 26.75 64.8283 22.55 64.8283 17.35C64.8283 12.15 68.4956 8 73.154 8C75.4088 8 77.5646 9.025 78.4318 10.5ZM74.2938 21.85C76.0779 21.85 77.6637 20.9 78.4318 19.625V15.2C77.6637 13.9 76.0779 12.9 74.2938 12.9C71.8407 12.9 69.8584 14.9 69.8584 17.375C69.8584 19.85 71.8407 21.85 74.2938 21.85Z" fill="#64626A"/>
<path d="M6.58385 19.7266C6.58385 21.5403 5.11801 23.0061 3.30434 23.0061C1.49068 23.0061 0.0248413 21.5403 0.0248413 19.7266C0.0248413 17.913 1.49068 16.4471 3.30434 16.4471H6.58385V19.7266Z" fill="#64626A"/>
<path d="M8.2236 19.7266C8.2236 17.913 9.68944 16.4471 11.5031 16.4471C13.3168 16.4471 14.7826 17.913 14.7826 19.7266V27.9254C14.7826 29.7391 13.3168 31.2049 11.5031 31.2049C9.68944 31.2049 8.2236 29.7391 8.2236 27.9254V19.7266H8.2236Z" fill="#64626A"/>
<path d="M11.5031 6.55901C9.68944 6.55901 8.2236 5.09317 8.2236 3.2795C8.2236 1.46584 9.68944 0 11.5031 0C13.3168 0 14.7826 1.46584 14.7826 3.2795V6.55901H11.5031Z" fill="#64626A"/>
<path d="M11.5031 8.22363C13.3168 8.22363 14.7826 9.68947 14.7826 11.5031C14.7826 13.3168 13.3168 14.7826 11.5031 14.7826H3.2795C1.46584 14.7826 0 13.3168 0 11.5031C0 9.68947 1.46584 8.22363 3.2795 8.22363H11.5031Z" fill="#64626A"/>
<path d="M24.646 11.5031C24.646 9.68947 26.1118 8.22363 27.9255 8.22363C29.7391 8.22363 31.205 9.68947 31.205 11.5031C31.205 13.3168 29.7391 14.7826 27.9255 14.7826H24.646V11.5031Z" fill="#64626A"/>
<path d="M23.0062 11.5031C23.0062 13.3168 21.5404 14.7826 19.7267 14.7826C17.913 14.7826 16.4472 13.3168 16.4472 11.5031V3.2795C16.4472 1.46584 17.913 0 19.7267 0C21.5404 0 23.0062 1.46584 23.0062 3.2795V11.5031Z" fill="#64626A"/>
<path d="M19.7267 24.6459C21.5404 24.6459 23.0062 26.1117 23.0062 27.9254C23.0062 29.739 21.5404 31.2049 19.7267 31.2049C17.913 31.2049 16.4472 29.739 16.4472 27.9254V24.6459H19.7267Z" fill="#64626A"/>
<path d="M19.7267 23.0061C17.913 23.0061 16.4472 21.5403 16.4472 19.7266C16.4472 17.913 17.913 16.4471 19.7267 16.4471H27.9503C29.764 16.4471 31.2298 17.913 31.2298 19.7266C31.2298 21.5403 29.764 23.0061 27.9503 23.0061H19.7267Z" fill="#64626A"/>
</svg>
