<svg width="128" height="32" viewBox="0 0 128 32" fill="none" xmlns="http://www.w3.org/2000/svg">
<path fill-rule="evenodd" clip-rule="evenodd" d="M60.6195 12.4C61.6024 11.6358 62.8 11.127 64.0559 11.0909C65.5666 10.9726 67.0817 11.4944 68.2558 12.4364C68.6972 12.7301 69.0031 13.1956 69.3096 13.6621C69.3761 13.7632 69.4425 13.8643 69.5104 13.9637V11.4182H71.6377V30.5455H69.5104C69.511 29.3706 69.5107 28.1926 69.5104 27.0157C69.5101 25.8395 69.5098 24.6644 69.5104 23.4946C69.4852 23.1655 69.1601 23.5879 69.1831 23.6909C69.1532 23.7277 69.123 23.7652 69.0925 23.8031C68.797 24.1697 68.468 24.5779 68.1104 24.8C66.533 26.0196 64.3463 26.3274 62.4591 25.7284C61.8703 25.5754 61.3129 25.2205 60.816 24.9043C60.7305 24.8498 60.6467 24.7965 60.5649 24.7455C59.8783 24.1791 59.4131 23.516 58.9788 22.7516C57.8634 20.6023 57.7396 17.9957 58.4368 15.6935C58.6778 14.8695 59.1049 14.132 59.6084 13.4417C59.8399 13.0659 60.268 12.6511 60.6195 12.4ZM67.5831 13.9091C66.886 13.2913 65.7779 13.0157 64.8013 13.0182C64.3609 13.0057 63.9163 13.0504 63.4958 13.1862C62.6301 13.3908 61.9234 13.9683 61.3831 14.6364C60.5807 15.7 60.3296 17.0712 60.2774 18.3783C60.2585 19.8842 60.5538 21.5288 61.5889 22.6654C62.1448 23.324 62.8794 23.8192 63.7449 23.9677C65.0522 24.1957 66.5494 24.0478 67.5831 23.1637C68.2853 22.6001 68.8213 21.8745 69.1001 21.0157C69.7212 19.2399 69.6505 17.2067 68.8551 15.4969C68.5549 14.8352 68.1389 14.3595 67.5831 13.9091Z" fill="#64626A"/>
<path d="M48.4292 5.61819C46.8108 5.68299 45.1629 6.10737 43.8656 7.1091C43.5993 7.28588 43.305 7.60497 43.1208 7.8823C42.3294 8.88211 41.9246 10.1815 42.0508 11.4581C42.0961 12.3868 42.4389 13.2897 43.0656 13.9818C43.2491 14.2583 43.6033 14.5722 43.8913 14.7535C45.5664 16.0553 47.7446 16.2971 49.7215 16.889C50.9559 17.2649 52.3849 17.52 53.1929 18.6182C53.8771 19.4537 53.8579 20.7095 53.4838 21.6909C53.1637 22.4948 52.4652 23.0695 51.7201 23.4727C50.1599 24.1477 48.3527 24.1039 46.7386 23.6519C45.5226 23.2797 44.4439 22.5571 43.6545 21.5551C43.4525 21.2259 43.2729 21.0138 42.957 21.3942C42.4781 21.7295 41.9991 22.0647 41.5201 22.4C41.9048 23.0041 42.3591 23.5841 42.902 24C43.8306 24.7103 44.8378 25.3384 45.9801 25.6331C48.1174 26.2699 50.4898 26.2036 52.5565 25.3455C53.3907 24.9098 54.1874 24.4696 54.7775 23.7388C55.5407 22.8367 56.0311 21.5714 56.0547 20.3384C56.1172 19.1547 55.7352 17.9541 54.9565 17.0546C54.808 16.8206 54.54 16.5814 54.2828 16.4319C53.8936 16.0863 53.4535 15.8697 52.9766 15.6116C50.8498 14.5477 48.4245 14.3181 46.2521 13.3883C45.5867 13.0576 44.9205 12.5995 44.5747 11.9273C44.0574 10.7794 44.4605 9.32664 45.4734 8.59858C46.3582 7.88951 47.573 7.68092 48.6947 7.67274C50.6424 7.65284 52.6173 8.50221 53.7929 10.0727C54.3747 9.63638 54.9565 9.20001 55.5383 8.76365C55.028 8.05306 54.39 7.50265 53.6917 7.03199C52.1502 6.01816 50.273 5.52322 48.4292 5.61819Z" fill="#64626A"/>
<path d="M75.2279 20.6908C75.2302 21.9402 75.4838 23.2383 76.2461 24.2545C76.5794 24.7963 77.2369 25.227 77.8213 25.546C79.3481 26.2525 81.1811 26.1445 82.693 25.4519C83.3816 25.0792 84.043 24.6155 84.4825 24.0181C84.6839 23.8322 84.911 23.3044 85.0279 23.2763C85.0279 24.0811 85.0279 24.886 85.0279 25.6908C85.737 25.6908 86.4461 25.6908 87.1552 25.6908C87.1552 20.9332 87.1552 16.1757 87.1552 11.4181C86.4461 11.4181 85.737 11.4181 85.0279 11.4181C85.0131 14.3331 85.0623 17.2497 84.9915 20.1635C84.8197 21.3368 84.2865 22.4698 83.3188 23.1817C82.1459 24.0754 80.4462 24.2926 79.0643 23.7454C78.0964 23.3104 77.5449 22.2482 77.4758 21.2049C77.3093 19.3798 77.4269 17.5429 77.3915 15.7126C77.3915 14.2811 77.3915 12.8496 77.3915 11.4181C76.6703 11.4181 75.9491 11.4181 75.2279 11.4181C75.2279 14.509 75.2279 17.5999 75.2279 20.6908Z" fill="#64626A"/>
<path fill-rule="evenodd" clip-rule="evenodd" d="M90.7091 12.8183C92.215 11.7513 94.0445 11.151 95.8909 11.091C97.2634 11.0133 98.7362 11.2607 99.8975 12.0217C100.785 12.5162 101.325 13.5662 101.491 14.5819C101.537 16.9901 101.532 19.3994 101.527 21.8086C101.524 23.1028 101.522 24.397 101.527 25.691H99.4727V24.6001C99.4484 24.5218 99.461 24.414 99.4738 24.305C99.4961 24.1144 99.5189 23.92 99.3454 23.8728C99.212 23.9708 99.1272 24.1011 99.0408 24.2338C98.943 24.384 98.8432 24.5372 98.6688 24.6501C98.0423 25.2175 97.2385 25.6644 96.3674 25.8628C94.8893 26.1487 93.2571 26.0869 91.9273 25.3274C91.8299 25.256 91.7274 25.1883 91.6257 25.1211C91.3593 24.9452 91.0981 24.7726 90.9454 24.5456C90.5436 24.033 90.2121 23.4688 90.0828 22.8221C89.8566 21.6762 89.9101 20.3637 90.6727 19.4183C91.0295 18.8685 91.6051 18.4414 92.2257 18.1509C93.227 17.6993 94.3134 17.5447 95.396 17.3907C95.8056 17.3325 96.2146 17.2743 96.6182 17.2001C97.3932 17.0521 98.3015 16.8409 98.8364 16.3274C99.4749 15.8371 99.56 14.8561 99.1871 14.1726C98.5343 13.1653 97.1972 12.9482 96.0618 12.9638C94.503 13.0264 92.89 13.4198 91.6363 14.3819L90.7091 12.8183ZM99.4017 18.9784C99.3933 18.5879 99.3849 18.1992 99.4 17.8183V17.691C99.1694 17.9241 98.888 18.0847 98.5818 18.2547C97.7648 18.5731 96.9029 18.7241 96.0404 18.8753C95.2715 19.0101 94.5021 19.1449 93.7638 19.3984C93.1003 19.6169 92.4759 20.0485 92.2761 20.7461C92.0159 21.5502 92.1187 22.5451 92.6545 23.2001C93.408 24.1033 94.7037 24.2429 95.8147 24.1504C97.068 24.0532 98.2841 23.3971 98.8968 22.286C99.451 21.2674 99.4262 20.1153 99.4017 18.9784Z" fill="#64626A"/>
<path d="M111.336 11.1454C110.2 11.2339 109.09 11.7521 108.303 12.4947C107.958 12.8749 107.635 13.3514 107.336 13.8181C107.336 13.0181 107.336 12.2181 107.336 11.4181C106.627 11.4181 105.918 11.4181 105.208 11.4181C105.208 16.1757 105.208 20.9333 105.208 25.6908C105.918 25.6908 106.627 25.6908 107.336 25.6908C107.355 22.9084 107.291 20.1227 107.38 17.3423C107.545 15.9959 108.108 14.6253 109.254 13.8363C110.276 13.0674 111.739 13.0085 112.918 13.4726C113.17 13.3437 113.068 12.9074 113.203 12.6605C113.296 12.307 113.388 11.9535 113.481 11.5999C112.838 11.2282 112.07 11.1016 111.336 11.1454Z" fill="#64626A"/>
<path fill-rule="evenodd" clip-rule="evenodd" d="M117.162 12.2363C118.192 11.5553 119.391 11.1122 120.635 11.0909C122.099 11.0011 123.652 11.3627 124.853 12.2181C124.872 12.2318 124.891 12.2455 124.91 12.2592C125.348 12.5733 125.796 12.8944 126.079 13.3309C127.305 14.8693 127.748 16.9212 127.508 18.8545H117.548C117.422 18.8897 117.271 18.8718 117.121 18.854C116.876 18.8251 116.633 18.7964 116.508 19C116.538 20.2961 116.85 21.7059 117.807 22.6268C118.947 23.9265 120.859 24.2766 122.505 23.9576C123.695 23.7497 124.77 23.093 125.508 22.1454C125.748 22.3636 125.987 22.5817 126.226 22.7999C126.465 23.0181 126.705 23.2363 126.944 23.4545C126.595 23.8834 126.236 24.234 125.8 24.5291C124.412 25.6879 122.551 26.1077 120.773 26.0087C119.437 25.9678 118.119 25.5461 117.035 24.7636C116.774 24.5805 116.481 24.3528 116.212 24.0778C115.556 23.3225 114.943 22.3803 114.654 21.3649C113.991 19.1493 114.11 16.6574 115.162 14.5818C115.551 13.9181 115.953 13.2838 116.485 12.7684C116.672 12.6068 116.875 12.4533 117.058 12.3152C117.093 12.2883 117.128 12.262 117.162 12.2363ZM124.85 15.0535C124.192 13.7904 122.818 12.9941 121.399 12.9091C120.377 12.8371 119.306 13.026 118.441 13.59C118.357 13.6747 118.25 13.7605 118.142 13.8472C117.961 13.9927 117.777 14.1409 117.69 14.2909C116.913 15.0476 116.664 16.1726 116.526 17.2181H125.362C125.347 16.4726 125.163 15.7267 124.85 15.0535Z" fill="#64626A"/>
<path fill-rule="evenodd" clip-rule="evenodd" d="M26.3758 0.52417H5.74114C2.90427 0.52417 0.581787 2.84574 0.581787 5.68352V26.3182C0.581787 29.1546 2.90427 31.4757 5.74114 31.4757H26.3758C29.2127 31.4757 31.5352 29.1546 31.5352 26.3182V5.68352C31.5352 2.84574 29.2127 0.52417 26.3758 0.52417ZM25.9069 24.2093C25.9069 25.1108 25.1685 25.847 24.266 25.847H7.8496C6.94759 25.847 6.20918 25.1108 6.20918 24.2093V7.79333C6.20918 6.89133 6.94759 6.15292 7.8496 6.15292H24.266C25.1685 6.15292 25.9069 6.89133 25.9069 7.79333V24.2093ZM19.3434 20.2209C19.8582 20.2209 20.2804 19.8002 20.2804 19.2826V12.7178C20.2804 12.202 19.8582 11.7803 19.3434 11.7803H12.7781C12.2619 11.7803 11.8411 12.202 11.8411 12.7178V19.2826C11.8411 19.8002 12.2619 20.2209 12.7781 20.2209H19.3434Z" fill="#64626A"/>
</svg>
