<svg width="24" height="24" viewBox="0 0 24 24" fill="none" xmlns="http://www.w3.org/2000/svg">
<path fill-rule="evenodd" clip-rule="evenodd" d="M12 24C18.6274 24 24 18.6274 24 12C24 5.37258 18.6274 0 12 0C5.37258 0 0 5.37258 0 12C0 18.6274 5.37258 24 12 24Z" fill="#55ACEE"/>
<path fill-rule="evenodd" clip-rule="evenodd" d="M17.4967 7.41017C17.158 7.62712 16.3804 7.94238 15.9968 7.94238V7.94303C15.5589 7.48555 14.9424 7.19995 14.2586 7.19995C12.9306 7.19995 11.8538 8.27681 11.8538 9.6043C11.8538 9.78874 11.8751 9.96865 11.9146 10.1412H11.9142C10.1128 10.0939 8.14264 9.19099 6.95659 7.64564C6.22737 8.90785 6.85841 10.3116 7.68594 10.8231C7.40267 10.8445 6.88121 10.7905 6.63576 10.551C6.61931 11.3888 7.02213 12.4988 8.49093 12.9015C8.20805 13.0537 7.70731 13.01 7.48958 12.9776C7.566 13.6848 8.55634 14.6094 9.63929 14.6094C9.25331 15.0558 7.80109 15.8656 6.17142 15.608C7.2782 16.2814 8.56813 16.6714 9.93344 16.6714C13.8133 16.6714 16.8264 13.5269 16.6643 9.64782C16.6636 9.64355 16.6636 9.63927 16.6632 9.63461C16.6636 9.62464 16.6643 9.61466 16.6643 9.6043C16.6643 9.59226 16.6632 9.58086 16.6628 9.5692C17.0161 9.32764 17.49 8.90034 17.8286 8.33795C17.6322 8.4461 17.0431 8.66266 16.495 8.71642C16.8468 8.52653 17.368 7.90469 17.4967 7.41017Z" fill="white"/>
</svg>
